<svg xmlns="http://www.w3.org/2000/svg" xmlns:xlink="http://www.w3.org/1999/xlink" width="400" zoomAndPan="magnify" viewBox="0 0 300 374.999991" height="500" preserveAspectRatio="xMidYMid meet" version="1.0"><defs><clipPath id="6eb36e1ccd"><path d="M 5.332031 154 L 189 154 L 189 337.363281 L 5.332031 337.363281 Z M 5.332031 154 " clip-rule="nonzero"/></clipPath><clipPath id="8cb7079c4a"><path d="M 216 40.363281 L 246 40.363281 L 246 98 L 216 98 Z M 216 40.363281 " clip-rule="nonzero"/></clipPath><clipPath id="ee1a33c3b9"><path d="M 231 177 L 294.832031 177 L 294.832031 189 L 231 189 Z M 231 177 " clip-rule="nonzero"/></clipPath></defs><rect x="-30" width="360" fill="#ffffff" y="-37.499999" height="449.999989" fill-opacity="1"/><rect x="-30" width="360" fill="#ffffff" y="-37.499999" height="449.999989" fill-opacity="1"/><rect x="-30" width="360" fill="#ffffff" y="-37.499999" height="449.999989" fill-opacity="1"/><g clip-path="url(#6eb36e1ccd)"><path fill="#87d6c8" d="M 186.90625 283.246094 C 195.296875 274.863281 172.917969 238.921875 138.679688 204.722656 C 104.445312 170.519531 67.992188 147.6875 59.609375 156.070312 L 57.6875 162.261719 L 5.40625 330.648438 C 5.40625 334.355469 8.414062 337.363281 12.128906 337.363281 L 180.683594 285.132812 L 186.90625 283.246094 " fill-opacity="1" fill-rule="nonzero"/></g><path fill="#87d6c8" d="M 177.785156 91.285156 L 171.386719 94.238281 L 164.777344 79.9375 L 171.175781 76.980469 L 177.785156 91.285156 " fill-opacity="1" fill-rule="nonzero"/><path fill="#87d6c8" d="M 201.460938 138.511719 L 197.097656 132.976562 L 209.484375 123.226562 L 213.847656 128.753906 L 201.460938 138.511719 " fill-opacity="1" fill-rule="nonzero"/><path fill="#87d6c8" d="M 212.484375 226.4375 L 213.578125 219.488281 L 229.152344 221.933594 L 228.0625 228.890625 L 212.484375 226.4375 " fill-opacity="1" fill-rule="nonzero"/><path fill="#87d6c8" d="M 233.496094 198.992188 L 240.261719 197.023438 L 244.675781 212.148438 L 237.914062 214.117188 L 233.496094 198.992188 " fill-opacity="1" fill-rule="nonzero"/><path fill="#87d6c8" d="M 126.671875 156.378906 L 130.503906 150.476562 L 143.738281 159.039062 L 139.90625 164.949219 L 126.671875 156.378906 " fill-opacity="1" fill-rule="nonzero"/><path fill="#87d6c8" d="M 255.402344 101.230469 L 248.503906 102.664062 L 245.292969 87.242188 L 252.191406 85.808594 L 255.402344 101.230469 " fill-opacity="1" fill-rule="nonzero"/><path fill="#ace2d9" d="M 80.886719 211.148438 C 76.023438 211.148438 71.167969 209.296875 67.460938 205.589844 C 60.046875 198.191406 60.046875 186.179688 67.460938 178.78125 C 71.167969 175.078125 76.023438 173.230469 80.886719 173.230469 C 85.742188 173.230469 90.597656 175.074219 94.300781 178.78125 C 101.714844 186.179688 101.714844 198.191406 94.300781 205.589844 C 90.597656 209.296875 85.742188 211.148438 80.886719 211.148438 " fill-opacity="1" fill-rule="nonzero"/><path fill="#ace2d9" d="M 129.457031 291.765625 C 124.59375 291.765625 119.738281 289.917969 116.035156 286.210938 C 108.621094 278.808594 108.621094 266.800781 116.035156 259.398438 C 119.738281 255.691406 124.59375 253.839844 129.457031 253.839844 C 134.3125 253.839844 139.167969 255.691406 142.871094 259.398438 C 150.289062 266.800781 150.289062 278.808594 142.871094 286.210938 C 139.167969 289.917969 134.3125 291.765625 129.457031 291.765625 " fill-opacity="1" fill-rule="nonzero"/><path fill="#ffffff" d="M 155.257812 222.441406 C 150.582031 217.070312 145.523438 211.625 140.15625 206.199219 C 145.128906 210.941406 150.683594 217.121094 155.257812 222.441406 M 140.078125 206.113281 C 139.894531 205.9375 139.710938 205.757812 139.535156 205.574219 L 140.078125 206.113281 " fill-opacity="1" fill-rule="nonzero"/><path fill="#ace2d9" d="M 152.097656 238.765625 C 146.894531 238.765625 141.714844 236.640625 137.96875 232.46875 C 130.960938 224.679688 131.734375 212.574219 139.535156 205.574219 C 139.710938 205.757812 139.894531 205.9375 140.078125 206.113281 L 140.15625 206.199219 C 145.523438 211.625 150.582031 217.070312 155.257812 222.441406 C 160.710938 228.789062 164.777344 233.914062 164.777344 233.914062 C 161.144531 237.164062 156.617188 238.765625 152.097656 238.765625 " fill-opacity="1" fill-rule="nonzero"/><path fill="#ace2d9" d="M 65.257812 275.113281 C 60.402344 275.113281 55.542969 273.261719 51.839844 269.558594 C 44.425781 262.15625 44.425781 250.144531 51.839844 242.746094 C 55.542969 239.039062 60.402344 237.1875 65.257812 237.1875 C 70.117188 237.1875 74.976562 239.039062 78.679688 242.746094 C 86.09375 250.144531 86.09375 262.15625 78.683594 269.558594 C 74.976562 273.261719 70.117188 275.113281 65.257812 275.113281 " fill-opacity="1" fill-rule="nonzero"/><path fill="#ffffff" d="M 52.195312 324.945312 L 88.523438 313.691406 L 52.195312 324.945312 " fill-opacity="1" fill-rule="nonzero"/><path fill="#ace2d9" d="M 52.195312 324.945312 C 49.144531 314.925781 54.722656 303.929688 64.753906 300.886719 C 66.5625 300.332031 68.382812 300.070312 70.1875 300.070312 C 78.386719 300.070312 86.027344 305.472656 88.523438 313.691406 L 52.195312 324.945312 " fill-opacity="1" fill-rule="nonzero"/><path fill="#ace2d9" d="M 11.59375 329.371094 C 9.761719 329.371094 7.898438 329.109375 6.0625 328.554688 L 17.324219 292.261719 C 27.359375 295.292969 32.960938 305.894531 29.929688 315.914062 C 27.449219 324.105469 19.789062 329.371094 11.59375 329.371094 " fill-opacity="1" fill-rule="nonzero"/><path fill="#f5a30d" d="M 146.761719 130.867188 C 146.761719 134.054688 144.171875 136.636719 140.984375 136.636719 C 137.792969 136.636719 135.207031 134.054688 135.207031 130.867188 C 135.207031 127.683594 137.792969 125.09375 140.984375 125.09375 C 144.171875 125.09375 146.761719 127.683594 146.761719 130.867188 " fill-opacity="1" fill-rule="nonzero"/><path fill="#f5a30d" d="M 181.957031 208.128906 C 181.957031 210.644531 179.917969 212.683594 177.402344 212.683594 C 174.882812 212.683594 172.84375 210.644531 172.84375 208.128906 C 172.84375 205.621094 174.882812 203.582031 177.402344 203.582031 C 179.917969 203.582031 181.957031 205.621094 181.957031 208.128906 " fill-opacity="1" fill-rule="nonzero"/><path fill="#f5a30d" d="M 291.945312 157.714844 C 291.945312 160.457031 289.714844 162.6875 286.96875 162.6875 C 284.21875 162.6875 281.988281 160.457031 281.988281 157.714844 C 281.988281 154.96875 284.21875 152.742188 286.96875 152.742188 C 289.714844 152.742188 291.945312 154.96875 291.945312 157.714844 " fill-opacity="1" fill-rule="nonzero"/><path fill="#f5a30d" d="M 236.148438 120.917969 C 236.148438 123.292969 234.222656 125.21875 231.839844 125.21875 C 229.46875 125.21875 227.539062 123.292969 227.539062 120.917969 C 227.539062 118.546875 229.46875 116.621094 231.839844 116.621094 C 234.222656 116.621094 236.148438 118.546875 236.148438 120.917969 " fill-opacity="1" fill-rule="nonzero"/><path fill="#f5a30d" d="M 291.269531 76.980469 C 291.269531 79.355469 289.34375 81.28125 286.96875 81.28125 C 284.585938 81.28125 282.660156 79.355469 282.660156 76.980469 C 282.660156 74.609375 284.585938 72.6875 286.96875 72.6875 C 289.34375 72.6875 291.269531 74.609375 291.269531 76.980469 " fill-opacity="1" fill-rule="nonzero"/><path fill="#f5a30d" d="M 199.652344 44.136719 L 199.652344 52.324219 C 199.652344 54.289062 202.699219 54.289062 202.699219 52.324219 L 202.699219 44.136719 C 202.699219 42.175781 199.652344 42.175781 199.652344 44.136719 " fill-opacity="1" fill-rule="nonzero"/><path fill="#f5a30d" d="M 199.652344 60.917969 L 199.652344 69.109375 C 199.652344 71.070312 202.699219 71.070312 202.699219 69.109375 L 202.699219 60.917969 C 202.699219 58.957031 199.652344 58.957031 199.652344 60.917969 " fill-opacity="1" fill-rule="nonzero"/><path fill="#f5a30d" d="M 213.671875 55.097656 L 205.476562 55.097656 C 203.507812 55.097656 203.507812 58.140625 205.476562 58.140625 L 213.671875 58.140625 C 215.632812 58.140625 215.632812 55.097656 213.671875 55.097656 " fill-opacity="1" fill-rule="nonzero"/><path fill="#f5a30d" d="M 196.875 55.097656 L 188.679688 55.097656 C 186.710938 55.097656 186.710938 58.140625 188.679688 58.140625 L 196.875 58.140625 C 198.835938 58.140625 198.835938 55.097656 196.875 55.097656 " fill-opacity="1" fill-rule="nonzero"/><path fill="#f5a30d" d="M 208.046875 174.675781 L 208.046875 180.421875 C 208.046875 182.382812 211.09375 182.382812 211.09375 180.421875 L 211.09375 174.675781 C 211.09375 172.71875 208.046875 172.71875 208.046875 174.675781 " fill-opacity="1" fill-rule="nonzero"/><path fill="#f5a30d" d="M 208.046875 186.441406 L 208.046875 192.1875 C 208.046875 194.148438 211.09375 194.148438 211.09375 192.1875 L 211.09375 186.441406 C 211.09375 184.484375 208.046875 184.484375 208.046875 186.441406 " fill-opacity="1" fill-rule="nonzero"/><path fill="#f5a30d" d="M 218.339844 181.910156 L 212.585938 181.910156 C 210.625 181.910156 210.625 184.953125 212.585938 184.953125 L 218.339844 184.953125 C 220.300781 184.953125 220.300781 181.910156 218.339844 181.910156 " fill-opacity="1" fill-rule="nonzero"/><path fill="#f5a30d" d="M 206.554688 181.910156 L 200.808594 181.910156 C 198.839844 181.910156 198.839844 184.953125 200.808594 184.953125 L 206.554688 184.953125 C 208.523438 184.953125 208.523438 181.910156 206.554688 181.910156 " fill-opacity="1" fill-rule="nonzero"/><path fill="#f5a30d" d="M 198.148438 229.707031 L 198.148438 233.367188 C 198.148438 235.332031 201.191406 235.332031 201.191406 233.367188 L 201.191406 229.707031 C 201.191406 227.742188 198.148438 227.742188 198.148438 229.707031 " fill-opacity="1" fill-rule="nonzero"/><path fill="#f5a30d" d="M 198.148438 237.207031 L 198.148438 240.863281 C 198.148438 242.828125 201.191406 242.828125 201.191406 240.863281 L 201.191406 237.207031 C 201.191406 235.246094 198.148438 235.246094 198.148438 237.207031 " fill-opacity="1" fill-rule="nonzero"/><path fill="#f5a30d" d="M 205.261719 233.765625 L 201.59375 233.765625 C 199.632812 233.765625 199.632812 236.808594 201.59375 236.808594 L 205.261719 236.808594 C 207.226562 236.808594 207.226562 233.765625 205.261719 233.765625 " fill-opacity="1" fill-rule="nonzero"/><path fill="#f5a30d" d="M 197.75 233.765625 L 194.089844 233.765625 C 192.121094 233.765625 192.121094 236.808594 194.089844 236.808594 L 197.75 236.808594 C 199.710938 236.808594 199.710938 233.765625 197.75 233.765625 " fill-opacity="1" fill-rule="nonzero"/><g clip-path="url(#8cb7079c4a)"><path fill="#4f7a9e" d="M 239.394531 43.304688 C 239.980469 48.589844 239.535156 53.710938 236.96875 58.4375 C 234.484375 63.03125 230.554688 66.804688 227.097656 70.664062 C 220.652344 77.859375 212.0625 87.871094 218.972656 97.546875 C 219.988281 98.96875 225.222656 95.976562 224.460938 94.910156 C 217.175781 84.707031 227.695312 74.433594 234.332031 67.15625 C 237.683594 63.488281 241.058594 59.730469 243.167969 55.1875 C 245.296875 50.582031 245.433594 45.632812 244.882812 40.664062 C 244.769531 39.632812 239.179688 41.425781 239.394531 43.304688 " fill-opacity="1" fill-rule="nonzero"/></g><g clip-path="url(#ee1a33c3b9)"><path fill="#4f7a9e" d="M 290.761719 182.085938 C 284.589844 185.5 278.6875 185.347656 272.082031 183.371094 C 266.890625 181.816406 261.882812 179.722656 256.65625 178.273438 C 247.429688 175.707031 236.835938 176.578125 231.371094 185.5 C 230.664062 186.648438 232.359375 186.511719 232.992188 186.351562 C 234.214844 186.046875 235.886719 185.328125 236.578125 184.195312 C 237.835938 182.144531 239.144531 180.636719 241.589844 180.246094 C 243.8125 179.898438 246.101562 180.203125 248.296875 180.582031 C 252.714844 181.335938 256.9375 183.023438 261.171875 184.441406 C 266.34375 186.175781 271.425781 188.128906 276.949219 188.207031 C 282.738281 188.292969 288.15625 186.003906 293.121094 183.253906 C 293.46875 183.066406 295.496094 181.648438 294.46875 181.140625 C 293.375 180.601562 291.671875 181.585938 290.761719 182.085938 " fill-opacity="1" fill-rule="nonzero"/></g><path fill="#4f7a9e" d="M 116.972656 156.394531 C 112.914062 152.125 110.09375 147.421875 109.355469 141.523438 C 108.65625 135.894531 109.703125 130.011719 110.125 124.382812 C 110.800781 115.324219 110.625 103.808594 100.207031 100.636719 C 98.988281 100.265625 97.523438 100.964844 96.507812 101.582031 C 96.292969 101.710938 94.039062 103.355469 95.160156 103.695312 C 105.925781 106.976562 105.160156 119.289062 104.425781 128.382812 C 104.007812 133.636719 103.355469 138.898438 103.867188 144.164062 C 104.441406 150.019531 107.503906 154.851562 111.476562 159.035156 C 112.769531 160.390625 117.722656 157.183594 116.972656 156.394531 " fill-opacity="1" fill-rule="nonzero"/><path fill="#b95fb6" d="M 168.917969 125.976562 C 165.695312 130.382812 163.417969 135.125 163.113281 140.632812 C 162.832031 145.757812 164.265625 150.878906 165.300781 155.84375 C 166.824219 163.191406 170.851562 177.441406 161.722656 181.554688 C 161.1875 181.804688 159.007812 182.929688 159.445312 183.84375 C 159.894531 184.78125 162.121094 183.742188 162.65625 183.496094 C 167.140625 181.476562 170.621094 178.328125 172.148438 173.585938 C 173.617188 169.046875 172.832031 163.84375 172.019531 159.261719 C 171.0625 153.835938 169.566406 148.515625 168.859375 143.050781 C 167.964844 136.160156 170.082031 130.214844 174.136719 124.679688 C 174.957031 123.554688 173.042969 123.695312 172.507812 123.824219 C 171.199219 124.152344 169.734375 124.871094 168.917969 125.976562 " fill-opacity="1" fill-rule="nonzero"/><path fill="#b95fb6" d="M 120.605469 46.058594 C 119.75 51.003906 119.726562 55.867188 121.488281 60.613281 C 123.230469 65.285156 126.648438 69.257812 129.730469 73.082031 C 135.757812 80.550781 145.546875 91.582031 137.851562 101.078125 C 136.957031 102.179688 138.992188 102.050781 139.472656 101.929688 C 140.832031 101.59375 142.179688 100.871094 143.0625 99.777344 C 150.5 90.601562 143.152344 80.5 137.132812 72.875 C 133.875 68.742188 130.351562 64.726562 127.902344 60.03125 C 125.277344 55.003906 125.203125 49.503906 126.148438 44.027344 C 126.386719 42.660156 120.894531 44.378906 120.605469 46.054688 " fill-opacity="1" fill-rule="nonzero"/><path fill="#b95fb6" d="M 204.617188 148.460938 C 209.570312 151.019531 214.589844 152.4375 220.183594 151.980469 C 225.800781 151.523438 231.144531 149.121094 236.359375 147.171875 C 244.839844 144.007812 256.1875 139.253906 262.402344 148.75 C 263.339844 150.171875 268.644531 147.257812 267.898438 146.105469 C 262.167969 137.359375 251.640625 139.507812 243.148438 142.328125 C 238.011719 144.023438 233.082031 146.324219 227.890625 147.847656 C 221.425781 149.738281 215.542969 148.4375 209.667969 145.402344 C 208.140625 144.613281 203.421875 147.847656 204.617188 148.460938 " fill-opacity="1" fill-rule="nonzero"/></svg>