<svg xmlns="http://www.w3.org/2000/svg" xmlns:xlink="http://www.w3.org/1999/xlink" width="500" zoomAndPan="magnify" viewBox="0 0 375 374.999991" height="500" preserveAspectRatio="xMidYMid meet" version="1.0"><defs><filter x="0%" y="0%" width="100%" height="100%" id="fecda79c8d"><feColorMatrix values="0 0 0 0 1 0 0 0 0 1 0 0 0 0 1 0 0 0 1 0" color-interpolation-filters="sRGB"/></filter><mask id="89db470588"><g filter="url(#fecda79c8d)"><rect x="-37.5" width="450" fill="#000000" y="-37.499999" height="449.999989" fill-opacity="0.498"/></g></mask><clipPath id="8d8fafc70e"><path d="M 0.199219 0.660156 L 252.679688 0.660156 L 252.679688 294.019531 L 0.199219 294.019531 Z M 0.199219 0.660156 " clip-rule="nonzero"/></clipPath><clipPath id="87b3d1a8e6"><rect x="0" width="253" y="0" height="295"/></clipPath><mask id="31c0284879"><g filter="url(#fecda79c8d)"><rect x="-37.5" width="450" fill="#000000" y="-37.499999" height="449.999989" fill-opacity="0.549"/></g></mask><clipPath id="500efc0b41"><path d="M 0.121094 0.660156 L 252.601562 0.660156 L 252.601562 294.019531 L 0.121094 294.019531 Z M 0.121094 0.660156 " clip-rule="nonzero"/></clipPath><clipPath id="d2a3af3ece"><rect x="0" width="253" y="0" height="295"/></clipPath><clipPath id="30eea59ca1"><path d="M 44 40.660156 L 296.984375 40.660156 L 296.984375 334.019531 L 44 334.019531 Z M 44 40.660156 " clip-rule="nonzero"/></clipPath></defs><g mask="url(#89db470588)"><g transform="matrix(1, 0, 0, 1, 79, 40)"><g clip-path="url(#87b3d1a8e6)"><g clip-path="url(#8d8fafc70e)"><path fill="#ff66c4" d="M 83.859375 43.253906 C 83.859375 41.855469 83.925781 40.464844 84.0625 39.078125 C 84.199219 37.6875 84.40625 36.3125 84.675781 34.941406 C 84.949219 33.574219 85.285156 32.222656 85.691406 30.886719 C 86.09375 29.554688 86.566406 28.242188 87.097656 26.953125 C 87.632812 25.664062 88.226562 24.402344 88.882812 23.175781 C 89.539062 21.945312 90.257812 20.75 91.03125 19.589844 C 91.804688 18.429688 92.632812 17.308594 93.519531 16.230469 C 94.402344 15.152344 95.335938 14.121094 96.320312 13.132812 C 97.308594 12.148438 98.339844 11.210938 99.417969 10.328125 C 100.492188 9.441406 101.613281 8.613281 102.769531 7.835938 C 103.929688 7.0625 105.121094 6.347656 106.351562 5.6875 C 107.582031 5.03125 108.839844 4.433594 110.128906 3.902344 C 111.414062 3.367188 112.726562 2.898438 114.058594 2.492188 C 115.390625 2.089844 116.742188 1.75 118.109375 1.476562 C 119.476562 1.207031 120.851562 1 122.242188 0.863281 C 123.628906 0.726562 125.015625 0.660156 126.410156 0.660156 C 127.804688 0.660156 129.195312 0.726562 130.582031 0.863281 C 131.96875 1 133.347656 1.207031 134.710938 1.476562 C 136.078125 1.75 137.429688 2.089844 138.761719 2.492188 C 140.097656 2.898438 141.40625 3.367188 142.695312 3.902344 C 143.984375 4.433594 145.242188 5.03125 146.46875 5.6875 C 147.699219 6.347656 148.894531 7.0625 150.050781 7.835938 C 151.210938 8.613281 152.328125 9.441406 153.40625 10.328125 C 154.484375 11.210938 155.515625 12.148438 156.5 13.132812 C 157.484375 14.121094 158.421875 15.152344 159.304688 16.230469 C 160.1875 17.308594 161.019531 18.429688 161.792969 19.589844 C 162.566406 20.75 163.28125 21.945312 163.9375 23.175781 C 164.597656 24.402344 165.191406 25.664062 165.722656 26.953125 C 166.257812 28.242188 166.726562 29.554688 167.132812 30.886719 C 167.535156 32.222656 167.875 33.574219 168.144531 34.941406 C 168.417969 36.3125 168.621094 37.6875 168.757812 39.078125 C 168.894531 40.464844 168.964844 41.855469 168.964844 43.253906 C 168.964844 44.648438 168.894531 46.039062 168.757812 47.425781 C 168.621094 48.816406 168.417969 50.195312 168.144531 51.5625 C 167.875 52.929688 167.535156 54.28125 167.132812 55.617188 C 166.726562 56.953125 166.257812 58.261719 165.722656 59.550781 C 165.191406 60.839844 164.597656 62.101562 163.9375 63.332031 C 163.28125 64.5625 162.566406 65.757812 161.792969 66.914062 C 161.019531 68.074219 160.1875 69.195312 159.304688 70.273438 C 158.421875 71.351562 157.484375 72.382812 156.5 73.371094 C 155.515625 74.355469 154.484375 75.292969 153.40625 76.175781 C 152.328125 77.0625 151.210938 77.890625 150.050781 78.667969 C 148.894531 79.441406 147.699219 80.160156 146.46875 80.816406 C 145.242188 81.472656 143.984375 82.070312 142.695312 82.601562 C 141.40625 83.136719 140.097656 83.605469 138.761719 84.011719 C 137.429688 84.417969 136.078125 84.753906 134.710938 85.027344 C 133.347656 85.300781 131.96875 85.503906 130.582031 85.640625 C 129.195312 85.777344 127.804688 85.84375 126.410156 85.84375 C 125.019531 85.84375 123.628906 85.773438 122.242188 85.636719 C 120.855469 85.5 119.480469 85.292969 118.113281 85.019531 C 116.746094 84.746094 115.398438 84.40625 114.0625 84 C 112.730469 83.59375 111.421875 83.125 110.132812 82.589844 C 108.847656 82.054688 107.589844 81.460938 106.363281 80.800781 C 105.132812 80.144531 103.941406 79.429688 102.78125 78.652344 C 101.625 77.878906 100.507812 77.046875 99.429688 76.164062 C 98.351562 75.277344 97.320312 74.34375 96.335938 73.355469 C 95.351562 72.371094 94.417969 71.339844 93.53125 70.261719 C 92.648438 69.183594 91.820312 68.0625 91.042969 66.90625 C 90.269531 65.746094 89.554688 64.550781 88.898438 63.320312 C 88.238281 62.089844 87.644531 60.832031 87.109375 59.542969 C 86.578125 58.257812 86.105469 56.945312 85.703125 55.609375 C 85.296875 54.277344 84.957031 52.925781 84.683594 51.558594 C 84.410156 50.191406 84.207031 48.8125 84.066406 47.425781 C 83.929688 46.039062 83.859375 44.648438 83.859375 43.253906 Z M 246.292969 36.914062 C 238.816406 30.167969 227.140625 30.738281 219.710938 38.179688 L 162.285156 95.65625 L 90.542969 95.320312 L 32.542969 37.609375 C 32.105469 37.179688 31.644531 36.769531 31.164062 36.382812 C 30.6875 35.996094 30.191406 35.636719 29.675781 35.296875 C 29.164062 34.960938 28.632812 34.648438 28.089844 34.363281 C 27.542969 34.074219 26.988281 33.816406 26.417969 33.585938 C 25.847656 33.351562 25.265625 33.148438 24.675781 32.976562 C 24.089844 32.800781 23.492188 32.652344 22.886719 32.535156 C 22.285156 32.421875 21.675781 32.332031 21.0625 32.277344 C 20.449219 32.21875 19.835938 32.191406 19.222656 32.195312 C 18.605469 32.195312 17.992188 32.230469 17.382812 32.289062 C 16.769531 32.351562 16.164062 32.445312 15.558594 32.566406 C 14.957031 32.6875 14.359375 32.839844 13.773438 33.019531 C 13.183594 33.199219 12.605469 33.40625 12.039062 33.644531 C 11.472656 33.878906 10.917969 34.144531 10.375 34.433594 C 9.832031 34.726562 9.304688 35.042969 8.792969 35.382812 C 8.28125 35.726562 7.789062 36.089844 7.3125 36.480469 C 6.835938 36.871094 6.382812 37.285156 5.945312 37.71875 C 5.511719 38.152344 5.097656 38.609375 4.707031 39.082031 C 4.316406 39.558594 3.949219 40.050781 3.605469 40.5625 C 3.261719 41.074219 2.945312 41.597656 2.652344 42.140625 C 2.359375 42.683594 2.09375 43.238281 1.859375 43.804688 C 1.621094 44.375 1.410156 44.953125 1.230469 45.539062 C 1.046875 46.128906 0.894531 46.722656 0.773438 47.328125 C 0.648438 47.929688 0.554688 48.539062 0.492188 49.148438 C 0.425781 49.761719 0.390625 50.375 0.386719 50.992188 C 0.382812 51.605469 0.410156 52.222656 0.464844 52.835938 C 0.519531 53.449219 0.605469 54.054688 0.722656 54.660156 C 0.835938 55.265625 0.980469 55.863281 1.152344 56.453125 C 1.324219 57.046875 1.527344 57.625 1.757812 58.195312 C 1.988281 58.769531 2.246094 59.328125 2.527344 59.871094 C 2.8125 60.417969 3.121094 60.949219 3.457031 61.464844 C 3.792969 61.980469 4.15625 62.480469 4.539062 62.960938 C 4.925781 63.4375 5.332031 63.898438 5.761719 64.339844 L 83.859375 144.34375 L 83.859375 275.148438 C 83.859375 275.769531 83.890625 276.386719 83.949219 277.003906 C 84.011719 277.621094 84.101562 278.234375 84.222656 278.84375 C 84.34375 279.449219 84.492188 280.050781 84.671875 280.644531 C 84.851562 281.238281 85.0625 281.820312 85.296875 282.394531 C 85.535156 282.964844 85.800781 283.527344 86.09375 284.074219 C 86.382812 284.621094 86.703125 285.152344 87.046875 285.667969 C 87.390625 286.183594 87.757812 286.679688 88.152344 287.160156 C 88.542969 287.636719 88.960938 288.097656 89.398438 288.535156 C 89.835938 288.972656 90.292969 289.390625 90.773438 289.78125 C 91.253906 290.175781 91.75 290.542969 92.265625 290.890625 C 92.777344 291.234375 93.308594 291.550781 93.855469 291.84375 C 94.402344 292.136719 94.960938 292.402344 95.535156 292.636719 C 96.105469 292.875 96.6875 293.085938 97.28125 293.265625 C 97.875 293.445312 98.472656 293.59375 99.082031 293.714844 C 99.6875 293.835938 100.300781 293.925781 100.917969 293.988281 C 101.535156 294.050781 102.152344 294.078125 102.769531 294.078125 C 103.390625 294.078125 104.007812 294.050781 104.625 293.988281 C 105.242188 293.925781 105.851562 293.835938 106.460938 293.714844 C 107.066406 293.59375 107.667969 293.445312 108.261719 293.265625 C 108.855469 293.085938 109.4375 292.875 110.007812 292.636719 C 110.582031 292.402344 111.140625 292.136719 111.6875 291.84375 C 112.230469 291.550781 112.761719 291.234375 113.277344 290.890625 C 113.792969 290.542969 114.289062 290.175781 114.769531 289.78125 C 115.246094 289.390625 115.707031 288.972656 116.144531 288.535156 C 116.582031 288.097656 116.996094 287.636719 117.390625 287.160156 C 117.78125 286.679688 118.152344 286.183594 118.496094 285.667969 C 118.839844 285.152344 119.15625 284.621094 119.449219 284.074219 C 119.742188 283.527344 120.007812 282.964844 120.242188 282.394531 C 120.480469 281.820312 120.6875 281.238281 120.867188 280.644531 C 121.046875 280.050781 121.199219 279.449219 121.320312 278.84375 C 121.441406 278.234375 121.53125 277.621094 121.59375 277.003906 C 121.652344 276.386719 121.683594 275.769531 121.683594 275.148438 L 121.398438 199.425781 L 131.140625 199.140625 L 131.140625 275.148438 C 131.140625 275.769531 131.167969 276.386719 131.230469 277.003906 C 131.289062 277.621094 131.382812 278.234375 131.503906 278.84375 C 131.625 279.449219 131.773438 280.050781 131.953125 280.644531 C 132.132812 281.238281 132.339844 281.820312 132.578125 282.394531 C 132.816406 282.964844 133.082031 283.527344 133.371094 284.074219 C 133.664062 284.621094 133.980469 285.152344 134.328125 285.667969 C 134.671875 286.183594 135.039062 286.679688 135.433594 287.160156 C 135.824219 287.636719 136.242188 288.097656 136.679688 288.535156 C 137.117188 288.972656 137.574219 289.390625 138.054688 289.78125 C 138.53125 290.175781 139.03125 290.542969 139.542969 290.890625 C 140.058594 291.234375 140.589844 291.550781 141.136719 291.84375 C 141.683594 292.136719 142.242188 292.402344 142.8125 292.636719 C 143.386719 292.875 143.96875 293.085938 144.5625 293.265625 C 145.152344 293.445312 145.753906 293.59375 146.363281 293.714844 C 146.96875 293.835938 147.582031 293.925781 148.199219 293.988281 C 148.8125 294.050781 149.433594 294.078125 150.050781 294.078125 C 150.671875 294.078125 151.289062 294.050781 151.90625 293.988281 C 152.523438 293.925781 153.132812 293.835938 153.742188 293.714844 C 154.347656 293.59375 154.949219 293.445312 155.542969 293.265625 C 156.132812 293.085938 156.714844 292.875 157.289062 292.636719 C 157.859375 292.402344 158.421875 292.136719 158.964844 291.84375 C 159.511719 291.550781 160.042969 291.234375 160.558594 290.890625 C 161.074219 290.542969 161.570312 290.175781 162.050781 289.78125 C 162.527344 289.390625 162.988281 288.972656 163.425781 288.535156 C 163.863281 288.097656 164.277344 287.636719 164.671875 287.160156 C 165.0625 286.679688 165.433594 286.183594 165.777344 285.667969 C 166.121094 285.152344 166.4375 284.621094 166.730469 284.074219 C 167.023438 283.527344 167.285156 282.964844 167.523438 282.394531 C 167.761719 281.820312 167.96875 281.238281 168.148438 280.644531 C 168.328125 280.050781 168.480469 279.449219 168.601562 278.84375 C 168.722656 278.234375 168.8125 277.621094 168.871094 277.003906 C 168.933594 276.386719 168.964844 275.769531 168.964844 275.148438 L 168.964844 144.34375 L 247.027344 64.378906 C 247.933594 63.46875 248.738281 62.476562 249.441406 61.40625 C 250.148438 60.332031 250.738281 59.199219 251.210938 58.003906 C 251.6875 56.8125 252.039062 55.582031 252.265625 54.320312 C 252.492188 53.054688 252.589844 51.78125 252.558594 50.496094 C 252.527344 49.210938 252.367188 47.941406 252.078125 46.6875 C 251.789062 45.433594 251.375 44.222656 250.835938 43.054688 C 250.296875 41.886719 249.644531 40.785156 248.878906 39.75 C 248.113281 38.714844 247.253906 37.769531 246.292969 36.914062 Z M 246.292969 36.914062 " fill-opacity="1" fill-rule="nonzero"/></g></g></g></g><g mask="url(#31c0284879)"><g transform="matrix(1, 0, 0, 1, 63, 40)"><g clip-path="url(#d2a3af3ece)"><g clip-path="url(#500efc0b41)"><path fill="#f621a4" d="M 83.789062 43.253906 C 83.789062 41.855469 83.859375 40.464844 83.996094 39.078125 C 84.132812 37.6875 84.335938 36.3125 84.609375 34.941406 C 84.878906 33.574219 85.21875 32.222656 85.621094 30.886719 C 86.027344 29.554688 86.496094 28.242188 87.027344 26.953125 C 87.5625 25.664062 88.15625 24.402344 88.8125 23.175781 C 89.472656 21.945312 90.1875 20.75 90.960938 19.589844 C 91.734375 18.429688 92.566406 17.308594 93.449219 16.230469 C 94.332031 15.152344 95.269531 14.121094 96.253906 13.132812 C 97.238281 12.148438 98.269531 11.210938 99.347656 10.328125 C 100.425781 9.441406 101.542969 8.613281 102.703125 7.835938 C 103.859375 7.0625 105.054688 6.347656 106.285156 5.6875 C 107.511719 5.03125 108.769531 4.433594 110.058594 3.902344 C 111.347656 3.367188 112.65625 2.898438 113.988281 2.492188 C 115.324219 2.089844 116.675781 1.75 118.039062 1.476562 C 119.40625 1.207031 120.785156 1 122.171875 0.863281 C 123.558594 0.726562 124.949219 0.660156 126.34375 0.660156 C 127.734375 0.660156 129.125 0.726562 130.511719 0.863281 C 131.898438 1 133.277344 1.207031 134.644531 1.476562 C 136.011719 1.75 137.359375 2.089844 138.695312 2.492188 C 140.027344 2.898438 141.339844 3.367188 142.625 3.902344 C 143.914062 4.433594 145.171875 5.03125 146.402344 5.6875 C 147.628906 6.347656 148.824219 7.0625 149.984375 7.835938 C 151.140625 8.613281 152.261719 9.441406 153.335938 10.328125 C 154.414062 11.210938 155.445312 12.148438 156.429688 13.132812 C 157.417969 14.121094 158.351562 15.152344 159.234375 16.230469 C 160.121094 17.308594 160.949219 18.429688 161.722656 19.589844 C 162.496094 20.75 163.214844 21.945312 163.871094 23.175781 C 164.527344 24.402344 165.121094 25.664062 165.65625 26.953125 C 166.1875 28.242188 166.65625 29.554688 167.0625 30.886719 C 167.46875 32.222656 167.804688 33.574219 168.078125 34.941406 C 168.347656 36.3125 168.554688 37.6875 168.691406 39.078125 C 168.828125 40.464844 168.894531 41.855469 168.894531 43.253906 C 168.894531 44.648438 168.828125 46.039062 168.691406 47.425781 C 168.554688 48.816406 168.347656 50.195312 168.078125 51.5625 C 167.804688 52.929688 167.46875 54.28125 167.0625 55.617188 C 166.65625 56.953125 166.1875 58.261719 165.65625 59.550781 C 165.121094 60.839844 164.527344 62.101562 163.871094 63.332031 C 163.214844 64.5625 162.496094 65.757812 161.722656 66.914062 C 160.949219 68.074219 160.121094 69.195312 159.234375 70.273438 C 158.351562 71.351562 157.417969 72.382812 156.429688 73.371094 C 155.445312 74.355469 154.414062 75.292969 153.335938 76.175781 C 152.261719 77.0625 151.140625 77.890625 149.984375 78.667969 C 148.824219 79.441406 147.628906 80.160156 146.402344 80.816406 C 145.171875 81.472656 143.914062 82.070312 142.625 82.601562 C 141.339844 83.136719 140.027344 83.605469 138.695312 84.011719 C 137.359375 84.417969 136.011719 84.753906 134.644531 85.027344 C 133.277344 85.300781 131.898438 85.503906 130.511719 85.640625 C 129.125 85.777344 127.734375 85.84375 126.34375 85.84375 C 124.949219 85.84375 123.558594 85.773438 122.171875 85.636719 C 120.785156 85.5 119.410156 85.292969 118.042969 85.019531 C 116.679688 84.746094 115.328125 84.40625 113.996094 84 C 112.664062 83.59375 111.351562 83.125 110.066406 82.589844 C 108.777344 82.054688 107.519531 81.460938 106.292969 80.800781 C 105.0625 80.144531 103.871094 79.429688 102.710938 78.652344 C 101.554688 77.878906 100.4375 77.046875 99.359375 76.164062 C 98.285156 75.277344 97.253906 74.34375 96.265625 73.355469 C 95.28125 72.371094 94.347656 71.339844 93.464844 70.261719 C 92.578125 69.183594 91.75 68.0625 90.976562 66.90625 C 90.203125 65.746094 89.484375 64.550781 88.828125 63.320312 C 88.171875 62.089844 87.574219 60.832031 87.042969 59.542969 C 86.507812 58.257812 86.039062 56.945312 85.632812 55.609375 C 85.226562 54.277344 84.886719 52.925781 84.617188 51.558594 C 84.34375 50.191406 84.136719 48.8125 84 47.425781 C 83.859375 46.039062 83.792969 44.648438 83.789062 43.253906 Z M 246.222656 36.914062 C 238.75 30.167969 227.070312 30.738281 219.644531 38.179688 L 162.21875 95.65625 L 90.476562 95.320312 L 32.472656 37.609375 C 32.035156 37.179688 31.574219 36.769531 31.097656 36.382812 C 30.617188 35.996094 30.121094 35.636719 29.609375 35.296875 C 29.09375 34.960938 28.5625 34.648438 28.019531 34.363281 C 27.476562 34.074219 26.917969 33.816406 26.347656 33.585938 C 25.777344 33.351562 25.199219 33.148438 24.609375 32.976562 C 24.019531 32.800781 23.421875 32.652344 22.820312 32.535156 C 22.214844 32.421875 21.605469 32.332031 20.996094 32.277344 C 20.382812 32.21875 19.769531 32.191406 19.152344 32.195312 C 18.539062 32.195312 17.925781 32.230469 17.3125 32.289062 C 16.699219 32.351562 16.09375 32.445312 15.492188 32.566406 C 14.886719 32.6875 14.292969 32.839844 13.703125 33.019531 C 13.117188 33.199219 12.539062 33.40625 11.96875 33.644531 C 11.402344 33.878906 10.847656 34.144531 10.304688 34.433594 C 9.761719 34.726562 9.234375 35.042969 8.726562 35.382812 C 8.214844 35.726562 7.71875 36.089844 7.242188 36.480469 C 6.769531 36.871094 6.3125 37.285156 5.878906 37.71875 C 5.441406 38.152344 5.027344 38.609375 4.636719 39.082031 C 4.246094 39.558594 3.878906 40.050781 3.535156 40.5625 C 3.191406 41.074219 2.875 41.597656 2.582031 42.140625 C 2.292969 42.683594 2.027344 43.238281 1.789062 43.804688 C 1.550781 44.375 1.339844 44.953125 1.160156 45.539062 C 0.980469 46.128906 0.828125 46.722656 0.703125 47.328125 C 0.578125 47.929688 0.484375 48.539062 0.421875 49.148438 C 0.359375 49.761719 0.324219 50.375 0.320312 50.992188 C 0.316406 51.605469 0.339844 52.222656 0.394531 52.835938 C 0.453125 53.449219 0.535156 54.054688 0.652344 54.660156 C 0.765625 55.265625 0.910156 55.863281 1.085938 56.453125 C 1.257812 57.046875 1.457031 57.625 1.6875 58.195312 C 1.917969 58.769531 2.175781 59.328125 2.460938 59.871094 C 2.742188 60.417969 3.054688 60.949219 3.390625 61.464844 C 3.726562 61.980469 4.085938 62.480469 4.46875 62.960938 C 4.855469 63.4375 5.261719 63.898438 5.691406 64.339844 L 83.789062 144.34375 L 83.789062 275.148438 C 83.789062 275.769531 83.820312 276.386719 83.882812 277.003906 C 83.941406 277.621094 84.03125 278.234375 84.152344 278.84375 C 84.273438 279.449219 84.425781 280.050781 84.605469 280.644531 C 84.785156 281.238281 84.992188 281.820312 85.230469 282.394531 C 85.464844 282.964844 85.730469 283.527344 86.023438 284.074219 C 86.316406 284.621094 86.632812 285.152344 86.976562 285.667969 C 87.320312 286.183594 87.691406 286.679688 88.082031 287.160156 C 88.476562 287.636719 88.890625 288.097656 89.328125 288.535156 C 89.765625 288.972656 90.226562 289.390625 90.703125 289.78125 C 91.183594 290.175781 91.679688 290.542969 92.195312 290.890625 C 92.710938 291.234375 93.242188 291.550781 93.785156 291.84375 C 94.332031 292.136719 94.890625 292.402344 95.464844 292.636719 C 96.035156 292.875 96.621094 293.085938 97.210938 293.265625 C 97.804688 293.445312 98.40625 293.59375 99.011719 293.714844 C 99.621094 293.835938 100.230469 293.925781 100.847656 293.988281 C 101.464844 294.050781 102.082031 294.078125 102.703125 294.078125 C 103.320312 294.078125 103.9375 294.050781 104.554688 293.988281 C 105.171875 293.925781 105.785156 293.835938 106.390625 293.714844 C 107 293.59375 107.597656 293.445312 108.191406 293.265625 C 108.785156 293.085938 109.367188 292.875 109.941406 292.636719 C 110.511719 292.402344 111.070312 292.136719 111.617188 291.84375 C 112.164062 291.550781 112.695312 291.234375 113.210938 290.890625 C 113.722656 290.542969 114.222656 290.175781 114.699219 289.78125 C 115.179688 289.390625 115.636719 288.972656 116.074219 288.535156 C 116.511719 288.097656 116.929688 287.636719 117.320312 287.160156 C 117.714844 286.679688 118.082031 286.183594 118.425781 285.667969 C 118.769531 285.152344 119.089844 284.621094 119.382812 284.074219 C 119.671875 283.527344 119.9375 282.964844 120.175781 282.394531 C 120.410156 281.820312 120.621094 281.238281 120.800781 280.644531 C 120.980469 280.050781 121.128906 279.449219 121.25 278.84375 C 121.371094 278.234375 121.460938 277.621094 121.523438 277.003906 C 121.582031 276.386719 121.613281 275.769531 121.613281 275.148438 L 121.328125 199.425781 L 131.070312 199.140625 L 131.070312 275.148438 C 131.070312 275.769531 131.101562 276.386719 131.160156 277.003906 C 131.222656 277.621094 131.3125 278.234375 131.433594 278.84375 C 131.554688 279.449219 131.703125 280.050781 131.882812 280.644531 C 132.066406 281.238281 132.273438 281.820312 132.511719 282.394531 C 132.746094 282.964844 133.011719 283.527344 133.304688 284.074219 C 133.59375 284.621094 133.914062 285.152344 134.257812 285.667969 C 134.601562 286.183594 134.96875 286.679688 135.363281 287.160156 C 135.757812 287.636719 136.171875 288.097656 136.609375 288.535156 C 137.046875 288.972656 137.507812 289.390625 137.984375 289.78125 C 138.464844 290.175781 138.960938 290.542969 139.476562 290.890625 C 139.992188 291.234375 140.519531 291.550781 141.066406 291.84375 C 141.613281 292.136719 142.171875 292.402344 142.746094 292.636719 C 143.316406 292.875 143.898438 293.085938 144.492188 293.265625 C 145.085938 293.445312 145.683594 293.59375 146.292969 293.714844 C 146.902344 293.835938 147.511719 293.925781 148.128906 293.988281 C 148.746094 294.050781 149.363281 294.078125 149.984375 294.078125 C 150.601562 294.078125 151.21875 294.050781 151.835938 293.988281 C 152.453125 293.925781 153.066406 293.835938 153.671875 293.714844 C 154.28125 293.59375 154.878906 293.445312 155.472656 293.265625 C 156.066406 293.085938 156.648438 292.875 157.21875 292.636719 C 157.792969 292.402344 158.351562 292.136719 158.898438 291.84375 C 159.445312 291.550781 159.972656 291.234375 160.488281 290.890625 C 161.003906 290.542969 161.5 290.175781 161.980469 289.78125 C 162.460938 289.390625 162.917969 288.972656 163.355469 288.535156 C 163.792969 288.097656 164.207031 287.636719 164.601562 287.160156 C 164.996094 286.679688 165.363281 286.183594 165.707031 285.667969 C 166.050781 285.152344 166.371094 284.621094 166.660156 284.074219 C 166.953125 283.527344 167.21875 282.964844 167.453125 282.394531 C 167.691406 281.820312 167.902344 281.238281 168.082031 280.644531 C 168.261719 280.050781 168.410156 279.449219 168.53125 278.84375 C 168.652344 278.234375 168.742188 277.621094 168.804688 277.003906 C 168.863281 276.386719 168.894531 275.769531 168.894531 275.148438 L 168.894531 144.34375 L 246.957031 64.378906 C 247.863281 63.46875 248.667969 62.476562 249.375 61.40625 C 250.078125 60.332031 250.667969 59.199219 251.144531 58.003906 C 251.621094 56.8125 251.96875 55.582031 252.195312 54.320312 C 252.421875 53.054688 252.519531 51.78125 252.488281 50.496094 C 252.460938 49.210938 252.300781 47.941406 252.007812 46.6875 C 251.71875 45.433594 251.304688 44.222656 250.765625 43.054688 C 250.226562 41.886719 249.574219 40.785156 248.808594 39.75 C 248.046875 38.714844 247.183594 37.769531 246.222656 36.914062 Z M 246.222656 36.914062 " fill-opacity="1" fill-rule="nonzero"/></g></g></g></g><g clip-path="url(#30eea59ca1)"><path fill="#ffec43" d="M 128.105469 83.253906 C 128.105469 81.855469 128.171875 80.464844 128.308594 79.078125 C 128.445312 77.6875 128.648438 76.3125 128.921875 74.941406 C 129.191406 73.574219 129.53125 72.222656 129.9375 70.886719 C 130.339844 69.554688 130.808594 68.242188 131.34375 66.953125 C 131.875 65.664062 132.472656 64.402344 133.128906 63.175781 C 133.785156 61.945312 134.5 60.75 135.273438 59.589844 C 136.050781 58.429688 136.878906 57.308594 137.761719 56.230469 C 138.648438 55.152344 139.582031 54.121094 140.566406 53.132812 C 141.550781 52.148438 142.582031 51.210938 143.660156 50.328125 C 144.738281 49.441406 145.855469 48.613281 147.015625 47.835938 C 148.175781 47.0625 149.367188 46.347656 150.597656 45.6875 C 151.824219 45.03125 153.085938 44.433594 154.371094 43.902344 C 155.660156 43.367188 156.96875 42.898438 158.304688 42.492188 C 159.636719 42.089844 160.988281 41.75 162.355469 41.476562 C 163.722656 41.207031 165.097656 41 166.484375 40.863281 C 167.871094 40.726562 169.261719 40.660156 170.65625 40.660156 C 172.050781 40.660156 173.441406 40.726562 174.828125 40.863281 C 176.214844 41 177.589844 41.207031 178.957031 41.476562 C 180.324219 41.75 181.675781 42.089844 183.007812 42.492188 C 184.34375 42.898438 185.652344 43.367188 186.941406 43.902344 C 188.226562 44.433594 189.484375 45.03125 190.714844 45.6875 C 191.945312 46.347656 193.136719 47.0625 194.296875 47.835938 C 195.457031 48.613281 196.574219 49.441406 197.652344 50.328125 C 198.726562 51.210938 199.757812 52.148438 200.746094 53.132812 C 201.730469 54.121094 202.664062 55.152344 203.550781 56.230469 C 204.433594 57.308594 205.261719 58.429688 206.035156 59.589844 C 206.8125 60.75 207.527344 61.945312 208.183594 63.175781 C 208.839844 64.402344 209.4375 65.664062 209.96875 66.953125 C 210.503906 68.242188 210.972656 69.554688 211.375 70.886719 C 211.78125 72.222656 212.117188 73.574219 212.390625 74.941406 C 212.664062 76.3125 212.867188 77.6875 213.003906 79.078125 C 213.140625 80.464844 213.207031 81.855469 213.207031 83.253906 C 213.207031 84.648438 213.140625 86.039062 213.003906 87.425781 C 212.867188 88.816406 212.664062 90.195312 212.390625 91.5625 C 212.117188 92.929688 211.78125 94.28125 211.375 95.617188 C 210.972656 96.953125 210.503906 98.261719 209.96875 99.550781 C 209.4375 100.839844 208.839844 102.101562 208.183594 103.332031 C 207.527344 104.5625 206.8125 105.757812 206.035156 106.914062 C 205.261719 108.074219 204.433594 109.195312 203.550781 110.273438 C 202.664062 111.351562 201.730469 112.382812 200.746094 113.371094 C 199.757812 114.355469 198.726562 115.292969 197.652344 116.175781 C 196.574219 117.0625 195.457031 117.890625 194.296875 118.667969 C 193.136719 119.441406 191.945312 120.160156 190.714844 120.816406 C 189.484375 121.472656 188.226562 122.070312 186.941406 122.601562 C 185.652344 123.136719 184.34375 123.605469 183.007812 124.011719 C 181.675781 124.417969 180.324219 124.753906 178.957031 125.027344 C 177.589844 125.300781 176.214844 125.503906 174.828125 125.640625 C 173.441406 125.777344 172.050781 125.84375 170.65625 125.84375 C 169.261719 125.84375 167.871094 125.773438 166.488281 125.636719 C 165.101562 125.5 163.722656 125.292969 162.359375 125.019531 C 160.992188 124.746094 159.640625 124.40625 158.308594 124 C 156.976562 123.59375 155.667969 123.125 154.378906 122.589844 C 153.09375 122.054688 151.835938 121.460938 150.605469 120.800781 C 149.378906 120.144531 148.183594 119.429688 147.027344 118.652344 C 145.867188 117.878906 144.75 117.046875 143.675781 116.164062 C 142.597656 115.277344 141.566406 114.34375 140.582031 113.355469 C 139.597656 112.371094 138.660156 111.339844 137.777344 110.261719 C 136.894531 109.183594 136.0625 108.0625 135.289062 106.90625 C 134.515625 105.746094 133.800781 104.550781 133.140625 103.320312 C 132.484375 102.089844 131.890625 100.832031 131.355469 99.542969 C 130.820312 98.257812 130.351562 96.945312 129.945312 95.609375 C 129.542969 94.277344 129.203125 92.925781 128.929688 91.558594 C 128.65625 90.191406 128.449219 88.8125 128.3125 87.425781 C 128.175781 86.039062 128.105469 84.648438 128.105469 83.253906 Z M 290.539062 76.914062 C 283.0625 70.167969 271.386719 70.738281 263.957031 78.179688 L 206.53125 135.65625 L 134.789062 135.320312 L 76.789062 77.609375 C 76.347656 77.179688 75.890625 76.769531 75.410156 76.382812 C 74.933594 75.996094 74.433594 75.636719 73.921875 75.296875 C 73.40625 74.960938 72.878906 74.648438 72.332031 74.363281 C 71.789062 74.074219 71.230469 73.816406 70.660156 73.585938 C 70.089844 73.351562 69.511719 73.148438 68.921875 72.976562 C 68.332031 72.800781 67.734375 72.652344 67.132812 72.535156 C 66.527344 72.421875 65.921875 72.332031 65.308594 72.277344 C 64.695312 72.21875 64.082031 72.191406 63.46875 72.195312 C 62.851562 72.195312 62.238281 72.230469 61.625 72.289062 C 61.015625 72.351562 60.40625 72.445312 59.804688 72.566406 C 59.203125 72.6875 58.605469 72.839844 58.019531 73.019531 C 57.429688 73.199219 56.851562 73.40625 56.285156 73.644531 C 55.714844 73.878906 55.160156 74.144531 54.617188 74.433594 C 54.078125 74.726562 53.550781 75.042969 53.039062 75.382812 C 52.527344 75.726562 52.035156 76.089844 51.558594 76.480469 C 51.082031 76.871094 50.625 77.285156 50.191406 77.71875 C 49.753906 78.152344 49.34375 78.609375 48.949219 79.082031 C 48.558594 79.558594 48.191406 80.050781 47.847656 80.5625 C 47.507812 81.074219 47.1875 81.597656 46.898438 82.140625 C 46.605469 82.683594 46.339844 83.238281 46.101562 83.804688 C 45.863281 84.375 45.65625 84.953125 45.472656 85.539062 C 45.292969 86.128906 45.140625 86.722656 45.015625 87.328125 C 44.894531 87.929688 44.800781 88.539062 44.734375 89.148438 C 44.671875 89.761719 44.636719 90.375 44.632812 90.992188 C 44.628906 91.605469 44.652344 92.222656 44.710938 92.835938 C 44.765625 93.449219 44.851562 94.054688 44.964844 94.660156 C 45.082031 95.265625 45.222656 95.863281 45.398438 96.453125 C 45.570312 97.046875 45.773438 97.625 46.003906 98.195312 C 46.230469 98.769531 46.488281 99.328125 46.773438 99.871094 C 47.058594 100.417969 47.367188 100.949219 47.703125 101.464844 C 48.039062 101.980469 48.398438 102.480469 48.785156 102.960938 C 49.167969 103.4375 49.574219 103.898438 50.003906 104.339844 L 128.105469 184.34375 L 128.105469 315.148438 C 128.105469 315.769531 128.132812 316.386719 128.195312 317.003906 C 128.253906 317.621094 128.347656 318.234375 128.46875 318.84375 C 128.585938 319.449219 128.738281 320.050781 128.917969 320.644531 C 129.097656 321.238281 129.304688 321.820312 129.542969 322.394531 C 129.78125 322.964844 130.042969 323.527344 130.335938 324.074219 C 130.628906 324.621094 130.945312 325.152344 131.289062 325.667969 C 131.636719 326.183594 132.003906 326.679688 132.394531 327.160156 C 132.789062 327.636719 133.203125 328.097656 133.644531 328.535156 C 134.082031 328.972656 134.539062 329.390625 135.019531 329.78125 C 135.496094 330.175781 135.992188 330.542969 136.507812 330.890625 C 137.023438 331.234375 137.554688 331.550781 138.101562 331.84375 C 138.648438 332.136719 139.207031 332.402344 139.777344 332.636719 C 140.351562 332.875 140.933594 333.085938 141.527344 333.265625 C 142.117188 333.445312 142.71875 333.59375 143.328125 333.714844 C 143.933594 333.835938 144.546875 333.925781 145.160156 333.988281 C 145.777344 334.050781 146.394531 334.078125 147.015625 334.078125 C 147.636719 334.078125 148.253906 334.050781 148.871094 333.988281 C 149.484375 333.925781 150.097656 333.835938 150.707031 333.714844 C 151.3125 333.59375 151.914062 333.445312 152.503906 333.265625 C 153.097656 333.085938 153.679688 332.875 154.253906 332.636719 C 154.824219 332.402344 155.382812 332.136719 155.929688 331.84375 C 156.476562 331.550781 157.007812 331.234375 157.523438 330.890625 C 158.039062 330.542969 158.535156 330.175781 159.011719 329.78125 C 159.492188 329.390625 159.949219 328.972656 160.390625 328.535156 C 160.828125 328.097656 161.242188 327.636719 161.636719 327.160156 C 162.027344 326.679688 162.398438 326.183594 162.742188 325.667969 C 163.085938 325.152344 163.402344 324.621094 163.695312 324.074219 C 163.988281 323.527344 164.25 322.964844 164.488281 322.394531 C 164.726562 321.820312 164.933594 321.238281 165.113281 320.644531 C 165.292969 320.050781 165.445312 319.449219 165.566406 318.84375 C 165.683594 318.234375 165.777344 317.621094 165.835938 317.003906 C 165.898438 316.386719 165.929688 315.769531 165.929688 315.148438 L 165.640625 239.425781 L 175.382812 239.140625 L 175.382812 315.148438 C 175.382812 315.769531 175.414062 316.386719 175.476562 317.003906 C 175.535156 317.621094 175.625 318.234375 175.746094 318.84375 C 175.867188 319.449219 176.019531 320.050781 176.199219 320.644531 C 176.378906 321.238281 176.585938 321.820312 176.824219 322.394531 C 177.0625 322.964844 177.324219 323.527344 177.617188 324.074219 C 177.910156 324.621094 178.226562 325.152344 178.570312 325.667969 C 178.914062 326.183594 179.285156 326.679688 179.675781 327.160156 C 180.070312 327.636719 180.484375 328.097656 180.921875 328.535156 C 181.359375 328.972656 181.820312 329.390625 182.296875 329.78125 C 182.777344 330.175781 183.273438 330.542969 183.789062 330.890625 C 184.304688 331.234375 184.835938 331.550781 185.382812 331.84375 C 185.925781 332.136719 186.488281 332.402344 187.058594 332.636719 C 187.632812 332.875 188.214844 333.085938 188.804688 333.265625 C 189.398438 333.445312 190 333.59375 190.605469 333.714844 C 191.214844 333.835938 191.824219 333.925781 192.441406 333.988281 C 193.058594 334.050781 193.675781 334.078125 194.296875 334.078125 C 194.914062 334.078125 195.535156 334.050781 196.148438 333.988281 C 196.765625 333.925781 197.378906 333.835938 197.984375 333.714844 C 198.59375 333.59375 199.195312 333.445312 199.785156 333.265625 C 200.378906 333.085938 200.960938 332.875 201.535156 332.636719 C 202.105469 332.402344 202.664062 332.136719 203.210938 331.84375 C 203.757812 331.550781 204.289062 331.234375 204.804688 330.890625 C 205.316406 330.542969 205.816406 330.175781 206.292969 329.78125 C 206.773438 329.390625 207.230469 328.972656 207.667969 328.535156 C 208.105469 328.097656 208.523438 327.636719 208.914062 327.160156 C 209.308594 326.679688 209.675781 326.183594 210.019531 325.667969 C 210.363281 325.152344 210.683594 324.621094 210.976562 324.074219 C 211.265625 323.527344 211.53125 322.964844 211.769531 322.394531 C 212.003906 321.820312 212.214844 321.238281 212.394531 320.644531 C 212.574219 320.050781 212.722656 319.449219 212.84375 318.84375 C 212.964844 318.234375 213.054688 317.621094 213.117188 317.003906 C 213.179688 316.386719 213.207031 315.769531 213.207031 315.148438 L 213.207031 184.34375 L 291.273438 104.378906 C 292.175781 103.46875 292.984375 102.476562 293.6875 101.40625 C 294.390625 100.332031 294.980469 99.199219 295.457031 98.003906 C 295.933594 96.8125 296.285156 95.582031 296.511719 94.320312 C 296.738281 93.054688 296.835938 91.78125 296.804688 90.496094 C 296.773438 89.210938 296.613281 87.941406 296.324219 86.6875 C 296.03125 85.433594 295.617188 84.222656 295.078125 83.054688 C 294.539062 81.886719 293.886719 80.785156 293.125 79.75 C 292.359375 78.714844 291.496094 77.769531 290.539062 76.914062 Z M 290.539062 76.914062 " fill-opacity="1" fill-rule="nonzero"/></g></svg>