<svg xmlns="http://www.w3.org/2000/svg" xmlns:xlink="http://www.w3.org/1999/xlink" width="529" zoomAndPan="magnify" viewBox="0 0 396.75 396.749984" height="529" preserveAspectRatio="xMidYMid meet" version="1.0"><defs><filter x="0%" y="0%" width="100%" height="100%" id="eab62e2613"><feColorMatrix values="0 0 0 0 1 0 0 0 0 1 0 0 0 0 1 0 0 0 1 0" color-interpolation-filters="sRGB"/></filter><g/><mask id="48d3f7e39a"><g filter="url(#eab62e2613)"><rect x="-39.675" width="476.1" fill="#000000" y="-39.674998" height="476.099981" fill-opacity="0.498"/></g></mask><clipPath id="91537f2985"><path d="M 0.347656 0.523438 L 116.589844 0.523438 L 116.589844 135.523438 L 0.347656 135.523438 Z M 0.347656 0.523438 " clip-rule="nonzero"/></clipPath><clipPath id="97f2e55b8c"><rect x="0" width="117" y="0" height="136"/></clipPath><mask id="9a49ddddc8"><g filter="url(#eab62e2613)"><rect x="-39.675" width="476.1" fill="#000000" y="-39.674998" height="476.099981" fill-opacity="0.549"/></g></mask><clipPath id="70bb1ab355"><path d="M 0.589844 0.855469 L 116.917969 0.855469 L 116.917969 135.855469 L 0.589844 135.855469 Z M 0.589844 0.855469 " clip-rule="nonzero"/></clipPath><clipPath id="ac5e050da4"><rect x="0" width="117" y="0" height="136"/></clipPath><clipPath id="32e2a092e3"><path d="M 262 103.855469 L 378.1875 103.855469 L 378.1875 238.855469 L 262 238.855469 Z M 262 103.855469 " clip-rule="nonzero"/></clipPath></defs><g fill="#fa2baa" fill-opacity="0.302"><g transform="translate(36.803972, 234.958426)"><g><path d="M 6.957031 0.554688 C 16.558594 1.949219 25.1875 0.835938 28.386719 -0.554688 L 28.386719 -27.554688 L 56.777344 -27.554688 C 57.890625 -32.703125 57.890625 -41.191406 56.777344 -46.199219 L 28.386719 -46.199219 L 28.386719 -57.75 L 60.394531 -57.75 C 61.507812 -62.898438 61.507812 -71.390625 60.394531 -76.398438 L 28.804688 -76.398438 C 17.8125 -76.398438 11.828125 -75.5625 5.566406 -73.753906 C 6.539062 -47.035156 6.957031 -22.265625 6.957031 0.554688 Z M 6.957031 0.554688 "/></g></g></g><g fill="#fa2baa" fill-opacity="0.302"><g transform="translate(117.79188, 234.958426)"><g><path d="M 6.957031 0 L 61.089844 0 C 62.203125 -5.007812 62.203125 -13.5 61.089844 -18.648438 L 28.386719 -18.648438 L 28.386719 -76.953125 C 21.011719 -77.511719 12.523438 -76.398438 5.566406 -73.894531 C 6.539062 -47.035156 6.957031 -22.265625 6.957031 0 Z M 6.957031 0 "/></g></g></g><g fill="#fa2baa" fill-opacity="0.302"><g transform="translate(198.501484, 234.958426)"><g><path d="M 38.40625 2.085938 C 59.976562 2.085938 72.640625 -9.742188 72.640625 -29.917969 L 72.640625 -76.953125 C 65.265625 -77.511719 56.777344 -76.398438 49.820312 -73.894531 C 50.652344 -54.132812 51.210938 -37.433594 50.933594 -28.527344 C 50.652344 -20.179688 47.3125 -16.421875 40.21875 -16.421875 C 32.144531 -16.421875 28.386719 -20.179688 28.386719 -28.527344 L 28.386719 -76.953125 C 21.011719 -77.511719 12.523438 -76.398438 5.566406 -73.894531 C 6.261719 -54.132812 6.679688 -37.433594 6.820312 -27.136719 C 7.097656 -6.957031 17.953125 2.085938 38.40625 2.085938 Z M 38.40625 2.085938 "/></g></g></g><g fill="#fa2baa" fill-opacity="0.502"><g transform="translate(30.653703, 228.808143)"><g><path d="M 6.957031 0.554688 C 16.558594 1.949219 25.1875 0.835938 28.386719 -0.554688 L 28.386719 -27.554688 L 56.777344 -27.554688 C 57.890625 -32.703125 57.890625 -41.191406 56.777344 -46.199219 L 28.386719 -46.199219 L 28.386719 -57.75 L 60.394531 -57.75 C 61.507812 -62.898438 61.507812 -71.390625 60.394531 -76.398438 L 28.804688 -76.398438 C 17.8125 -76.398438 11.828125 -75.5625 5.566406 -73.753906 C 6.539062 -47.035156 6.957031 -22.265625 6.957031 0.554688 Z M 6.957031 0.554688 "/></g></g></g><g fill="#fa2baa" fill-opacity="0.502"><g transform="translate(111.641611, 228.808143)"><g><path d="M 6.957031 0 L 61.089844 0 C 62.203125 -5.007812 62.203125 -13.5 61.089844 -18.648438 L 28.386719 -18.648438 L 28.386719 -76.953125 C 21.011719 -77.511719 12.523438 -76.398438 5.566406 -73.894531 C 6.539062 -47.035156 6.957031 -22.265625 6.957031 0 Z M 6.957031 0 "/></g></g></g><g fill="#fa2baa" fill-opacity="0.502"><g transform="translate(192.351215, 228.808143)"><g><path d="M 38.40625 2.085938 C 59.976562 2.085938 72.640625 -9.742188 72.640625 -29.917969 L 72.640625 -76.953125 C 65.265625 -77.511719 56.777344 -76.398438 49.820312 -73.894531 C 50.652344 -54.132812 51.210938 -37.433594 50.933594 -28.527344 C 50.652344 -20.179688 47.3125 -16.421875 40.21875 -16.421875 C 32.144531 -16.421875 28.386719 -20.179688 28.386719 -28.527344 L 28.386719 -76.953125 C 21.011719 -77.511719 12.523438 -76.398438 5.566406 -73.894531 C 6.261719 -54.132812 6.679688 -37.433594 6.820312 -27.136719 C 7.097656 -6.957031 17.953125 2.085938 38.40625 2.085938 Z M 38.40625 2.085938 "/></g></g></g><g fill="#ffffff" fill-opacity="1"><g transform="translate(24.503425, 222.657874)"><g><path d="M 6.957031 0.554688 C 16.558594 1.949219 25.1875 0.835938 28.386719 -0.554688 L 28.386719 -27.554688 L 56.777344 -27.554688 C 57.890625 -32.703125 57.890625 -41.191406 56.777344 -46.199219 L 28.386719 -46.199219 L 28.386719 -57.75 L 60.394531 -57.75 C 61.507812 -62.898438 61.507812 -71.390625 60.394531 -76.398438 L 28.804688 -76.398438 C 17.8125 -76.398438 11.828125 -75.5625 5.566406 -73.753906 C 6.539062 -47.035156 6.957031 -22.265625 6.957031 0.554688 Z M 6.957031 0.554688 "/></g></g></g><g fill="#ffffff" fill-opacity="1"><g transform="translate(105.491332, 222.657874)"><g><path d="M 6.957031 0 L 61.089844 0 C 62.203125 -5.007812 62.203125 -13.5 61.089844 -18.648438 L 28.386719 -18.648438 L 28.386719 -76.953125 C 21.011719 -77.511719 12.523438 -76.398438 5.566406 -73.894531 C 6.539062 -47.035156 6.957031 -22.265625 6.957031 0 Z M 6.957031 0 "/></g></g></g><g fill="#ffffff" fill-opacity="1"><g transform="translate(186.200937, 222.657874)"><g><path d="M 38.40625 2.085938 C 59.976562 2.085938 72.640625 -9.742188 72.640625 -29.917969 L 72.640625 -76.953125 C 65.265625 -77.511719 56.777344 -76.398438 49.820312 -73.894531 C 50.652344 -54.132812 51.210938 -37.433594 50.933594 -28.527344 C 50.652344 -20.179688 47.3125 -16.421875 40.21875 -16.421875 C 32.144531 -16.421875 28.386719 -20.179688 28.386719 -28.527344 L 28.386719 -76.953125 C 21.011719 -77.511719 12.523438 -76.398438 5.566406 -73.894531 C 6.261719 -54.132812 6.679688 -37.433594 6.820312 -27.136719 C 7.097656 -6.957031 17.953125 2.085938 38.40625 2.085938 Z M 38.40625 2.085938 "/></g></g></g><g mask="url(#48d3f7e39a)"><g transform="matrix(1, 0, 0, 1, 275, 109)"><g clip-path="url(#97f2e55b8c)"><g clip-path="url(#91537f2985)"><path fill="#ff66c4" d="M 38.871094 20.125 C 38.871094 19.484375 38.902344 18.84375 38.964844 18.203125 C 39.027344 17.566406 39.125 16.929688 39.25 16.300781 C 39.375 15.671875 39.527344 15.050781 39.714844 14.433594 C 39.902344 13.820312 40.117188 13.21875 40.363281 12.625 C 40.609375 12.03125 40.882812 11.449219 41.183594 10.886719 C 41.488281 10.320312 41.816406 9.769531 42.171875 9.234375 C 42.527344 8.703125 42.910156 8.1875 43.316406 7.691406 C 43.722656 7.195312 44.152344 6.71875 44.609375 6.265625 C 45.0625 5.8125 45.535156 5.378906 46.03125 4.972656 C 46.527344 4.566406 47.042969 4.183594 47.574219 3.828125 C 48.109375 3.46875 48.65625 3.140625 49.222656 2.839844 C 49.789062 2.535156 50.367188 2.261719 50.960938 2.015625 C 51.554688 1.769531 52.15625 1.554688 52.769531 1.367188 C 53.382812 1.179688 54.003906 1.027344 54.632812 0.902344 C 55.261719 0.773438 55.894531 0.679688 56.535156 0.617188 C 57.171875 0.554688 57.8125 0.523438 58.453125 0.523438 C 59.09375 0.523438 59.734375 0.554688 60.375 0.617188 C 61.011719 0.679688 61.644531 0.773438 62.273438 0.902344 C 62.902344 1.027344 63.523438 1.179688 64.136719 1.367188 C 64.753906 1.554688 65.355469 1.769531 65.949219 2.015625 C 66.539062 2.261719 67.121094 2.535156 67.683594 2.839844 C 68.25 3.140625 68.800781 3.46875 69.332031 3.828125 C 69.867188 4.183594 70.382812 4.566406 70.875 4.972656 C 71.371094 5.378906 71.847656 5.8125 72.300781 6.265625 C 72.753906 6.71875 73.183594 7.195312 73.589844 7.691406 C 73.996094 8.1875 74.378906 8.703125 74.734375 9.234375 C 75.09375 9.769531 75.421875 10.320312 75.722656 10.886719 C 76.027344 11.449219 76.300781 12.03125 76.546875 12.625 C 76.789062 13.21875 77.007812 13.820312 77.191406 14.433594 C 77.378906 15.050781 77.535156 15.671875 77.660156 16.300781 C 77.785156 16.929688 77.878906 17.566406 77.941406 18.203125 C 78.003906 18.84375 78.035156 19.484375 78.035156 20.125 C 78.035156 20.765625 78.003906 21.40625 77.941406 22.046875 C 77.878906 22.683594 77.785156 23.320312 77.660156 23.949219 C 77.535156 24.578125 77.378906 25.199219 77.191406 25.8125 C 77.007812 26.429688 76.789062 27.03125 76.546875 27.625 C 76.300781 28.21875 76.027344 28.796875 75.722656 29.363281 C 75.421875 29.929688 75.09375 30.480469 74.734375 31.015625 C 74.378906 31.546875 73.996094 32.0625 73.589844 32.558594 C 73.183594 33.054688 72.753906 33.53125 72.300781 33.984375 C 71.847656 34.4375 71.371094 34.867188 70.875 35.277344 C 70.382812 35.683594 69.867188 36.066406 69.332031 36.421875 C 68.800781 36.777344 68.25 37.109375 67.683594 37.410156 C 67.121094 37.714844 66.539062 37.988281 65.949219 38.234375 C 65.355469 38.480469 64.753906 38.695312 64.136719 38.882812 C 63.523438 39.066406 62.902344 39.222656 62.273438 39.347656 C 61.644531 39.472656 61.011719 39.566406 60.375 39.632812 C 59.734375 39.695312 59.09375 39.726562 58.453125 39.726562 C 57.8125 39.726562 57.171875 39.691406 56.535156 39.628906 C 55.898438 39.566406 55.265625 39.472656 54.636719 39.34375 C 54.007812 39.21875 53.386719 39.0625 52.773438 38.875 C 52.160156 38.691406 51.554688 38.472656 50.964844 38.226562 C 50.371094 37.980469 49.792969 37.707031 49.226562 37.40625 C 48.664062 37.101562 48.113281 36.773438 47.578125 36.414062 C 47.046875 36.058594 46.53125 35.675781 46.039062 35.269531 C 45.542969 34.863281 45.066406 34.433594 44.613281 33.976562 C 44.160156 33.523438 43.730469 33.050781 43.324219 32.554688 C 42.917969 32.058594 42.535156 31.542969 42.179688 31.007812 C 41.824219 30.476562 41.492188 29.925781 41.191406 29.359375 C 40.886719 28.792969 40.613281 28.214844 40.367188 27.621094 C 40.121094 27.03125 39.90625 26.425781 39.71875 25.8125 C 39.535156 25.199219 39.378906 24.578125 39.253906 23.945312 C 39.125 23.316406 39.03125 22.683594 38.96875 22.046875 C 38.90625 21.40625 38.871094 20.765625 38.871094 20.125 Z M 113.621094 17.207031 C 110.183594 14.105469 104.808594 14.367188 101.390625 17.789062 L 74.964844 44.242188 L 41.949219 44.085938 L 15.257812 17.527344 C 14.851562 17.128906 14.414062 16.777344 13.9375 16.464844 C 13.464844 16.152344 12.964844 15.890625 12.4375 15.675781 C 11.914062 15.460938 11.371094 15.300781 10.8125 15.195312 C 10.257812 15.085938 9.695312 15.035156 9.128906 15.035156 C 8.558594 15.039062 8 15.09375 7.441406 15.207031 C 6.886719 15.320312 6.347656 15.484375 5.820312 15.703125 C 5.296875 15.921875 4.800781 16.1875 4.328125 16.503906 C 3.855469 16.820312 3.417969 17.175781 3.019531 17.578125 C 2.617188 17.980469 2.257812 18.414062 1.941406 18.886719 C 1.625 19.359375 1.355469 19.855469 1.136719 20.378906 C 0.917969 20.902344 0.75 21.441406 0.636719 22 C 0.523438 22.554688 0.464844 23.117188 0.460938 23.6875 C 0.457031 24.253906 0.507812 24.816406 0.613281 25.375 C 0.71875 25.933594 0.878906 26.476562 1.089844 27.003906 C 1.300781 27.527344 1.5625 28.03125 1.875 28.503906 C 2.183594 28.980469 2.535156 29.421875 2.933594 29.828125 L 38.871094 66.644531 L 38.871094 126.839844 C 38.871094 127.410156 38.929688 127.976562 39.039062 128.539062 C 39.152344 129.101562 39.316406 129.644531 39.535156 130.171875 C 39.753906 130.703125 40.019531 131.203125 40.339844 131.679688 C 40.65625 132.15625 41.015625 132.59375 41.421875 133 C 41.824219 133.402344 42.265625 133.765625 42.738281 134.082031 C 43.214844 134.402344 43.714844 134.667969 44.246094 134.886719 C 44.773438 135.105469 45.316406 135.273438 45.878906 135.382812 C 46.4375 135.496094 47.003906 135.550781 47.574219 135.550781 C 48.148438 135.550781 48.710938 135.496094 49.273438 135.382812 C 49.832031 135.273438 50.378906 135.105469 50.90625 134.886719 C 51.433594 134.667969 51.933594 134.402344 52.410156 134.082031 C 52.886719 133.765625 53.324219 133.402344 53.730469 133 C 54.132812 132.59375 54.492188 132.15625 54.8125 131.679688 C 55.128906 131.203125 55.398438 130.703125 55.617188 130.171875 C 55.835938 129.644531 56 129.101562 56.109375 128.539062 C 56.222656 127.976562 56.277344 127.410156 56.277344 126.839844 L 56.148438 91.992188 L 60.628906 91.863281 L 60.628906 126.839844 C 60.628906 127.410156 60.683594 127.976562 60.796875 128.539062 C 60.910156 129.101562 61.074219 129.644531 61.292969 130.171875 C 61.511719 130.703125 61.777344 131.203125 62.097656 131.679688 C 62.414062 132.15625 62.773438 132.59375 63.179688 133 C 63.582031 133.402344 64.023438 133.765625 64.496094 134.082031 C 64.972656 134.402344 65.472656 134.667969 66.003906 134.886719 C 66.53125 135.105469 67.074219 135.273438 67.636719 135.382812 C 68.195312 135.496094 68.761719 135.550781 69.332031 135.550781 C 69.902344 135.550781 70.46875 135.496094 71.03125 135.382812 C 71.589844 135.273438 72.136719 135.105469 72.664062 134.886719 C 73.191406 134.667969 73.691406 134.402344 74.167969 134.082031 C 74.644531 133.765625 75.082031 133.402344 75.488281 133 C 75.890625 132.59375 76.25 132.15625 76.570312 131.679688 C 76.886719 131.203125 77.15625 130.703125 77.375 130.171875 C 77.59375 129.644531 77.757812 129.101562 77.867188 128.539062 C 77.980469 127.976562 78.035156 127.410156 78.035156 126.839844 L 78.035156 66.644531 L 113.960938 29.847656 C 114.800781 29 115.445312 28.023438 115.886719 26.914062 C 116.328125 25.804688 116.535156 24.652344 116.503906 23.457031 C 116.476562 22.261719 116.214844 21.121094 115.710938 20.035156 C 115.210938 18.945312 114.515625 18.003906 113.621094 17.207031 Z M 113.621094 17.207031 " fill-opacity="1" fill-rule="nonzero"/></g></g></g></g><g mask="url(#9a49ddddc8)"><g transform="matrix(1, 0, 0, 1, 269, 103)"><g clip-path="url(#ac5e050da4)"><g clip-path="url(#70bb1ab355)"><path fill="#f621a4" d="M 39.203125 20.457031 C 39.203125 19.8125 39.234375 19.171875 39.296875 18.535156 C 39.359375 17.894531 39.453125 17.261719 39.578125 16.632812 C 39.703125 16 39.859375 15.378906 40.046875 14.765625 C 40.230469 14.152344 40.449219 13.546875 40.695312 12.953125 C 40.9375 12.363281 41.210938 11.78125 41.515625 11.214844 C 41.816406 10.648438 42.148438 10.097656 42.503906 9.566406 C 42.859375 9.03125 43.242188 8.515625 43.648438 8.019531 C 44.054688 7.523438 44.484375 7.050781 44.9375 6.59375 C 45.390625 6.140625 45.867188 5.710938 46.363281 5.304688 C 46.859375 4.898438 47.371094 4.515625 47.90625 4.15625 C 48.4375 3.800781 48.988281 3.472656 49.554688 3.167969 C 50.121094 2.867188 50.699219 2.59375 51.292969 2.347656 C 51.882812 2.101562 52.488281 1.886719 53.101562 1.699219 C 53.714844 1.511719 54.335938 1.355469 54.964844 1.230469 C 55.59375 1.105469 56.226562 1.011719 56.867188 0.949219 C 57.503906 0.886719 58.144531 0.855469 58.785156 0.855469 C 59.425781 0.855469 60.066406 0.886719 60.703125 0.949219 C 61.34375 1.011719 61.976562 1.105469 62.605469 1.230469 C 63.234375 1.355469 63.855469 1.511719 64.46875 1.699219 C 65.082031 1.886719 65.6875 2.101562 66.277344 2.347656 C 66.871094 2.59375 67.449219 2.867188 68.015625 3.167969 C 68.582031 3.472656 69.128906 3.800781 69.664062 4.15625 C 70.195312 4.515625 70.710938 4.898438 71.207031 5.304688 C 71.703125 5.710938 72.175781 6.140625 72.632812 6.59375 C 73.085938 7.050781 73.515625 7.523438 73.921875 8.019531 C 74.328125 8.515625 74.710938 9.03125 75.066406 9.566406 C 75.421875 10.097656 75.753906 10.648438 76.054688 11.214844 C 76.355469 11.78125 76.628906 12.363281 76.875 12.953125 C 77.121094 13.546875 77.335938 14.152344 77.523438 14.765625 C 77.710938 15.378906 77.863281 16 77.992188 16.632812 C 78.117188 17.261719 78.210938 17.894531 78.273438 18.535156 C 78.335938 19.171875 78.367188 19.8125 78.367188 20.457031 C 78.367188 21.097656 78.335938 21.738281 78.273438 22.375 C 78.210938 23.015625 78.117188 23.648438 77.992188 24.277344 C 77.863281 24.910156 77.710938 25.53125 77.523438 26.144531 C 77.335938 26.757812 77.121094 27.363281 76.875 27.957031 C 76.628906 28.550781 76.355469 29.128906 76.054688 29.695312 C 75.753906 30.261719 75.421875 30.8125 75.066406 31.34375 C 74.710938 31.878906 74.328125 32.394531 73.921875 32.890625 C 73.515625 33.386719 73.085938 33.859375 72.632812 34.316406 C 72.175781 34.769531 71.703125 35.199219 71.207031 35.605469 C 70.710938 36.015625 70.195312 36.394531 69.664062 36.753906 C 69.128906 37.109375 68.582031 37.4375 68.015625 37.742188 C 67.449219 38.042969 66.871094 38.320312 66.277344 38.5625 C 65.6875 38.808594 65.082031 39.027344 64.46875 39.210938 C 63.855469 39.398438 63.234375 39.554688 62.605469 39.679688 C 61.976562 39.804688 61.34375 39.898438 60.703125 39.960938 C 60.066406 40.023438 59.425781 40.054688 58.785156 40.054688 C 58.144531 40.054688 57.503906 40.023438 56.867188 39.960938 C 56.226562 39.894531 55.59375 39.800781 54.964844 39.675781 C 54.335938 39.550781 53.714844 39.394531 53.101562 39.207031 C 52.488281 39.019531 51.886719 38.804688 51.292969 38.558594 C 50.703125 38.3125 50.125 38.039062 49.558594 37.734375 C 48.992188 37.433594 48.445312 37.101562 47.910156 36.746094 C 47.378906 36.390625 46.863281 36.007812 46.367188 35.601562 C 45.871094 35.191406 45.398438 34.761719 44.945312 34.308594 C 44.492188 33.855469 44.0625 33.378906 43.65625 32.882812 C 43.246094 32.386719 42.867188 31.875 42.507812 31.339844 C 42.152344 30.804688 41.824219 30.257812 41.519531 29.691406 C 41.21875 29.125 40.945312 28.546875 40.699219 27.953125 C 40.453125 27.359375 40.238281 26.757812 40.050781 26.144531 C 39.863281 25.527344 39.707031 24.90625 39.582031 24.277344 C 39.457031 23.648438 39.363281 23.015625 39.300781 22.375 C 39.234375 21.738281 39.203125 21.097656 39.203125 20.457031 Z M 113.953125 17.539062 C 110.511719 14.433594 105.140625 14.695312 101.71875 18.121094 L 75.292969 44.570312 L 42.28125 44.417969 L 15.589844 17.859375 C 15.183594 17.460938 14.742188 17.105469 14.269531 16.792969 C 13.792969 16.484375 13.292969 16.21875 12.769531 16.007812 C 12.242188 15.792969 11.703125 15.632812 11.144531 15.523438 C 10.585938 15.417969 10.027344 15.363281 9.457031 15.367188 C 8.890625 15.367188 8.328125 15.425781 7.773438 15.539062 C 7.214844 15.652344 6.675781 15.816406 6.152344 16.035156 C 5.628906 16.25 5.128906 16.519531 4.660156 16.835938 C 4.1875 17.148438 3.75 17.507812 3.347656 17.910156 C 2.945312 18.308594 2.585938 18.746094 2.269531 19.21875 C 1.953125 19.6875 1.6875 20.1875 1.46875 20.710938 C 1.246094 21.234375 1.082031 21.773438 0.96875 22.332031 C 0.855469 22.886719 0.792969 23.449219 0.789062 24.015625 C 0.785156 24.585938 0.839844 25.148438 0.945312 25.707031 C 1.050781 26.261719 1.210938 26.804688 1.421875 27.332031 C 1.632812 27.859375 1.894531 28.359375 2.203125 28.835938 C 2.515625 29.3125 2.867188 29.753906 3.261719 30.160156 L 39.203125 66.976562 L 39.203125 127.171875 C 39.203125 127.742188 39.257812 128.308594 39.371094 128.871094 C 39.480469 129.429688 39.648438 129.976562 39.867188 130.503906 C 40.082031 131.03125 40.351562 131.535156 40.667969 132.011719 C 40.988281 132.484375 41.347656 132.925781 41.75 133.332031 C 42.15625 133.734375 42.59375 134.097656 43.070312 134.414062 C 43.546875 134.730469 44.046875 135 44.574219 135.21875 C 45.101562 135.4375 45.648438 135.601562 46.207031 135.714844 C 46.769531 135.824219 47.335938 135.882812 47.90625 135.882812 C 48.476562 135.882812 49.042969 135.824219 49.605469 135.714844 C 50.164062 135.601562 50.707031 135.4375 51.238281 135.21875 C 51.765625 135 52.265625 134.730469 52.742188 134.414062 C 53.214844 134.097656 53.65625 133.734375 54.058594 133.332031 C 54.464844 132.925781 54.824219 132.484375 55.140625 132.011719 C 55.460938 131.535156 55.726562 131.03125 55.945312 130.503906 C 56.164062 129.976562 56.332031 129.429688 56.441406 128.871094 C 56.554688 128.308594 56.609375 127.742188 56.609375 127.171875 L 56.476562 92.324219 L 60.960938 92.191406 L 60.960938 127.171875 C 60.960938 127.742188 61.015625 128.308594 61.128906 128.871094 C 61.238281 129.429688 61.402344 129.976562 61.621094 130.503906 C 61.839844 131.03125 62.109375 131.535156 62.425781 132.011719 C 62.746094 132.484375 63.105469 132.925781 63.507812 133.332031 C 63.914062 133.734375 64.351562 134.097656 64.828125 134.414062 C 65.304688 134.730469 65.804688 135 66.332031 135.21875 C 66.859375 135.4375 67.40625 135.601562 67.964844 135.714844 C 68.527344 135.824219 69.09375 135.882812 69.664062 135.882812 C 70.234375 135.882812 70.800781 135.824219 71.363281 135.714844 C 71.921875 135.601562 72.464844 135.4375 72.992188 135.21875 C 73.523438 135 74.023438 134.730469 74.5 134.414062 C 74.972656 134.097656 75.414062 133.734375 75.816406 133.332031 C 76.222656 132.925781 76.582031 132.484375 76.898438 132.011719 C 77.21875 131.535156 77.484375 131.03125 77.703125 130.503906 C 77.921875 129.976562 78.089844 129.429688 78.199219 128.871094 C 78.3125 128.308594 78.367188 127.742188 78.367188 127.171875 L 78.367188 66.976562 L 114.289062 30.179688 C 115.132812 29.332031 115.773438 28.355469 116.214844 27.246094 C 116.660156 26.136719 116.863281 24.984375 116.835938 23.789062 C 116.808594 22.59375 116.542969 21.449219 116.042969 20.363281 C 115.542969 19.277344 114.84375 18.335938 113.953125 17.539062 Z M 113.953125 17.539062 " fill-opacity="1" fill-rule="nonzero"/></g></g></g></g><g clip-path="url(#32e2a092e3)"><path fill="#ffec43" d="M 300.472656 123.457031 C 300.472656 122.8125 300.503906 122.171875 300.566406 121.535156 C 300.628906 120.894531 300.722656 120.261719 300.847656 119.632812 C 300.972656 119 301.128906 118.378906 301.316406 117.765625 C 301.5 117.152344 301.714844 116.546875 301.960938 115.953125 C 302.207031 115.363281 302.480469 114.78125 302.785156 114.214844 C 303.085938 113.648438 303.414062 113.097656 303.769531 112.566406 C 304.128906 112.03125 304.507812 111.515625 304.917969 111.019531 C 305.324219 110.523438 305.753906 110.050781 306.207031 109.59375 C 306.660156 109.140625 307.136719 108.710938 307.628906 108.304688 C 308.125 107.898438 308.640625 107.515625 309.175781 107.15625 C 309.707031 106.800781 310.257812 106.472656 310.824219 106.167969 C 311.386719 105.867188 311.96875 105.59375 312.558594 105.347656 C 313.152344 105.101562 313.753906 104.886719 314.367188 104.699219 C 314.984375 104.511719 315.605469 104.355469 316.234375 104.230469 C 316.863281 104.105469 317.496094 104.011719 318.132812 103.949219 C 318.773438 103.886719 319.410156 103.855469 320.054688 103.855469 C 320.695312 103.855469 321.335938 103.886719 321.972656 103.949219 C 322.609375 104.011719 323.246094 104.105469 323.875 104.230469 C 324.503906 104.355469 325.125 104.511719 325.738281 104.699219 C 326.351562 104.886719 326.953125 105.101562 327.546875 105.347656 C 328.140625 105.59375 328.71875 105.867188 329.285156 106.167969 C 329.851562 106.472656 330.398438 106.800781 330.933594 107.15625 C 331.464844 107.515625 331.980469 107.898438 332.476562 108.304688 C 332.972656 108.710938 333.445312 109.140625 333.898438 109.59375 C 334.351562 110.050781 334.785156 110.523438 335.191406 111.019531 C 335.597656 111.515625 335.980469 112.03125 336.335938 112.566406 C 336.691406 113.097656 337.019531 113.648438 337.324219 114.214844 C 337.625 114.78125 337.898438 115.363281 338.144531 115.953125 C 338.390625 116.546875 338.605469 117.152344 338.792969 117.765625 C 338.976562 118.378906 339.132812 119 339.257812 119.632812 C 339.382812 120.261719 339.476562 120.894531 339.539062 121.535156 C 339.605469 122.171875 339.636719 122.8125 339.636719 123.457031 C 339.636719 124.097656 339.605469 124.738281 339.539062 125.375 C 339.476562 126.015625 339.382812 126.648438 339.257812 127.277344 C 339.132812 127.910156 338.976562 128.53125 338.792969 129.144531 C 338.605469 129.757812 338.390625 130.363281 338.144531 130.957031 C 337.898438 131.550781 337.625 132.128906 337.324219 132.695312 C 337.019531 133.261719 336.691406 133.8125 336.335938 134.34375 C 335.980469 134.878906 335.597656 135.394531 335.191406 135.890625 C 334.785156 136.386719 334.351562 136.859375 333.898438 137.316406 C 333.445312 137.769531 332.972656 138.199219 332.476562 138.605469 C 331.980469 139.015625 331.464844 139.394531 330.933594 139.753906 C 330.398438 140.109375 329.851562 140.4375 329.285156 140.742188 C 328.71875 141.042969 328.140625 141.320312 327.546875 141.5625 C 326.953125 141.808594 326.351562 142.027344 325.738281 142.210938 C 325.125 142.398438 324.503906 142.554688 323.875 142.679688 C 323.246094 142.804688 322.609375 142.898438 321.972656 142.960938 C 321.335938 143.023438 320.695312 143.054688 320.054688 143.054688 C 319.410156 143.054688 318.773438 143.023438 318.132812 142.960938 C 317.496094 142.894531 316.863281 142.800781 316.234375 142.675781 C 315.605469 142.550781 314.984375 142.394531 314.371094 142.207031 C 313.757812 142.019531 313.15625 141.804688 312.5625 141.558594 C 311.972656 141.3125 311.390625 141.039062 310.828125 140.734375 C 310.261719 140.433594 309.710938 140.101562 309.179688 139.746094 C 308.644531 139.390625 308.132812 139.007812 307.636719 138.601562 C 307.140625 138.191406 306.667969 137.761719 306.214844 137.308594 C 305.761719 136.855469 305.328125 136.378906 304.921875 135.882812 C 304.515625 135.386719 304.132812 134.875 303.777344 134.339844 C 303.421875 133.804688 303.09375 133.257812 302.789062 132.691406 C 302.488281 132.125 302.214844 131.546875 301.96875 130.953125 C 301.722656 130.359375 301.507812 129.757812 301.320312 129.144531 C 301.132812 128.527344 300.976562 127.90625 300.851562 127.277344 C 300.726562 126.648438 300.632812 126.015625 300.566406 125.375 C 300.503906 124.738281 300.472656 124.097656 300.472656 123.457031 Z M 375.222656 120.539062 C 371.78125 117.433594 366.40625 117.695312 362.988281 121.121094 L 336.5625 147.570312 L 303.546875 147.417969 L 276.855469 120.859375 C 276.453125 120.460938 276.011719 120.105469 275.539062 119.792969 C 275.0625 119.484375 274.5625 119.21875 274.039062 119.007812 C 273.511719 118.792969 272.96875 118.632812 272.414062 118.523438 C 271.855469 118.417969 271.292969 118.363281 270.726562 118.367188 C 270.160156 118.367188 269.597656 118.425781 269.042969 118.539062 C 268.484375 118.652344 267.945312 118.816406 267.421875 119.035156 C 266.898438 119.25 266.398438 119.519531 265.925781 119.835938 C 265.457031 120.148438 265.019531 120.507812 264.617188 120.910156 C 264.214844 121.308594 263.855469 121.746094 263.539062 122.21875 C 263.222656 122.6875 262.957031 123.1875 262.734375 123.710938 C 262.515625 124.234375 262.351562 124.773438 262.234375 125.332031 C 262.121094 125.886719 262.0625 126.449219 262.058594 127.015625 C 262.054688 127.585938 262.105469 128.148438 262.210938 128.707031 C 262.320312 129.261719 262.476562 129.804688 262.691406 130.332031 C 262.902344 130.859375 263.164062 131.359375 263.472656 131.835938 C 263.78125 132.3125 264.136719 132.753906 264.53125 133.160156 L 300.472656 169.976562 L 300.472656 230.171875 C 300.472656 230.742188 300.527344 231.308594 300.636719 231.871094 C 300.75 232.429688 300.914062 232.976562 301.132812 233.503906 C 301.351562 234.03125 301.621094 234.535156 301.9375 235.011719 C 302.253906 235.484375 302.617188 235.925781 303.019531 236.332031 C 303.425781 236.734375 303.863281 237.097656 304.339844 237.414062 C 304.8125 237.730469 305.316406 238 305.84375 238.21875 C 306.371094 238.4375 306.914062 238.601562 307.476562 238.714844 C 308.035156 238.824219 308.601562 238.882812 309.175781 238.882812 C 309.746094 238.882812 310.3125 238.824219 310.871094 238.714844 C 311.433594 238.601562 311.976562 238.4375 312.503906 238.21875 C 313.03125 238 313.535156 237.730469 314.007812 237.414062 C 314.484375 237.097656 314.925781 236.734375 315.328125 236.332031 C 315.734375 235.925781 316.09375 235.484375 316.410156 235.011719 C 316.726562 234.535156 316.996094 234.03125 317.214844 233.503906 C 317.433594 232.976562 317.597656 232.429688 317.710938 231.871094 C 317.820312 231.308594 317.878906 230.742188 317.878906 230.171875 L 317.746094 195.324219 L 322.230469 195.191406 L 322.230469 230.171875 C 322.230469 230.742188 322.285156 231.308594 322.394531 231.871094 C 322.507812 232.429688 322.671875 232.976562 322.890625 233.503906 C 323.109375 234.03125 323.378906 234.535156 323.695312 235.011719 C 324.011719 235.484375 324.375 235.925781 324.777344 236.332031 C 325.183594 236.734375 325.621094 237.097656 326.097656 237.414062 C 326.570312 237.730469 327.074219 238 327.601562 238.21875 C 328.128906 238.4375 328.671875 238.601562 329.234375 238.714844 C 329.792969 238.824219 330.359375 238.882812 330.933594 238.882812 C 331.503906 238.882812 332.070312 238.824219 332.628906 238.714844 C 333.191406 238.601562 333.734375 238.4375 334.261719 238.21875 C 334.789062 238 335.292969 237.730469 335.765625 237.414062 C 336.242188 237.097656 336.683594 236.734375 337.085938 236.332031 C 337.488281 235.925781 337.851562 235.484375 338.167969 235.011719 C 338.484375 234.535156 338.753906 234.03125 338.972656 233.503906 C 339.191406 232.976562 339.355469 232.429688 339.46875 231.871094 C 339.578125 231.308594 339.636719 230.742188 339.636719 230.171875 L 339.636719 169.976562 L 375.558594 133.179688 C 376.402344 132.332031 377.042969 131.355469 377.484375 130.246094 C 377.925781 129.136719 378.132812 127.984375 378.105469 126.789062 C 378.078125 125.59375 377.8125 124.449219 377.3125 123.363281 C 376.808594 122.277344 376.113281 121.335938 375.222656 120.539062 Z M 375.222656 120.539062 " fill-opacity="1" fill-rule="nonzero"/></g></svg>