<svg xmlns="http://www.w3.org/2000/svg" xmlns:xlink="http://www.w3.org/1999/xlink" width="529" zoomAndPan="magnify" viewBox="0 0 396.75 396.749984" height="529" preserveAspectRatio="xMidYMid meet" version="1.0"><defs><filter x="0%" y="0%" width="100%" height="100%" id="07b8ca7d0b"><feColorMatrix values="0 0 0 0 1 0 0 0 0 1 0 0 0 0 1 0 0 0 1 0" color-interpolation-filters="sRGB"/></filter><g/><clipPath id="f37f356fb7"><path d="M 0 0 L 396.5 0 L 396.5 396.5 L 0 396.5 Z M 0 0 " clip-rule="nonzero"/></clipPath><mask id="71f6858ec9"><g filter="url(#07b8ca7d0b)"><rect x="-39.675" width="476.1" fill="#000000" y="-39.674998" height="476.099981" fill-opacity="0.6"/></g></mask><clipPath id="3e779ff65a"><path d="M 363 372 L 396 372 L 396 396.5 L 363 396.5 Z M 363 372 " clip-rule="nonzero"/></clipPath><clipPath id="874f7cc9e9"><path d="M 51 382 L 80 382 L 80 396.5 L 51 396.5 Z M 51 382 " clip-rule="nonzero"/></clipPath><clipPath id="6b44ed9b15"><path d="M 16 391 L 43 391 L 43 396.5 L 16 396.5 Z M 16 391 " clip-rule="nonzero"/></clipPath><clipPath id="e623c0e63c"><path d="M 281 0 L 305 0 L 305 22 L 281 22 Z M 281 0 " clip-rule="nonzero"/></clipPath><clipPath id="888ef0a607"><path d="M 358 0 L 377 0 L 377 24 L 358 24 Z M 358 0 " clip-rule="nonzero"/></clipPath><clipPath id="479052ef5c"><path d="M 372 76 L 396.5 76 L 396.5 95 L 372 95 Z M 372 76 " clip-rule="nonzero"/></clipPath><clipPath id="6bc31b9fe9"><path d="M 196 392 L 222 392 L 222 396.5 L 196 396.5 Z M 196 392 " clip-rule="nonzero"/></clipPath><clipPath id="91d9132e6a"><path d="M 144 0 L 171 0 L 171 15 L 144 15 Z M 144 0 " clip-rule="nonzero"/></clipPath><clipPath id="78b9f6597f"><path d="M 396 0 L 396.5 0 L 396.5 10 L 396 10 Z M 396 0 " clip-rule="nonzero"/></clipPath><clipPath id="44e78bc9c6"><path d="M 0 158 L 15 158 L 15 176 L 0 176 Z M 0 158 " clip-rule="nonzero"/></clipPath><clipPath id="10072e4460"><path d="M 328 0 L 346 0 L 346 4 L 328 4 Z M 328 0 " clip-rule="nonzero"/></clipPath><clipPath id="fb3bb278ae"><path d="M 0 109 L 26 109 L 26 134 L 0 134 Z M 0 109 " clip-rule="nonzero"/></clipPath><clipPath id="2cb6b2900f"><path d="M 389 342 L 396.5 342 L 396.5 367 L 389 367 Z M 389 342 " clip-rule="nonzero"/></clipPath><clipPath id="d151c5e34d"><path d="M 376 205 L 396.5 205 L 396.5 227 L 376 227 Z M 376 205 " clip-rule="nonzero"/></clipPath><clipPath id="408a00d879"><path d="M 386 154 L 396.5 154 L 396.5 177 L 386 177 Z M 386 154 " clip-rule="nonzero"/></clipPath><clipPath id="692f3be917"><rect x="0" width="397" y="0" height="397"/></clipPath><mask id="23f1eafcce"><g filter="url(#07b8ca7d0b)"><rect x="-39.675" width="476.1" fill="#000000" y="-39.674998" height="476.099981" fill-opacity="0.498"/></g></mask><clipPath id="d0c686b2e0"><path d="M 0.347656 0.523438 L 116.589844 0.523438 L 116.589844 135.523438 L 0.347656 135.523438 Z M 0.347656 0.523438 " clip-rule="nonzero"/></clipPath><clipPath id="9e9d952411"><rect x="0" width="117" y="0" height="136"/></clipPath><mask id="948d613114"><g filter="url(#07b8ca7d0b)"><rect x="-39.675" width="476.1" fill="#000000" y="-39.674998" height="476.099981" fill-opacity="0.549"/></g></mask><clipPath id="440e62709b"><path d="M 0.589844 0.855469 L 116.917969 0.855469 L 116.917969 135.855469 L 0.589844 135.855469 Z M 0.589844 0.855469 " clip-rule="nonzero"/></clipPath><clipPath id="f9d80f3bbe"><rect x="0" width="117" y="0" height="136"/></clipPath><clipPath id="72cf8e6876"><path d="M 262 103.855469 L 378.1875 103.855469 L 378.1875 238.855469 L 262 238.855469 Z M 262 103.855469 " clip-rule="nonzero"/></clipPath></defs><g clip-path="url(#f37f356fb7)"><path fill="#ffffff" d="M 0 0 L 396.75 0 L 396.75 404.25 L 0 404.25 Z M 0 0 " fill-opacity="1" fill-rule="nonzero"/><path fill="#ffffff" d="M 0 0 L 396.75 0 L 396.75 396.75 L 0 396.75 Z M 0 0 " fill-opacity="1" fill-rule="nonzero"/><path fill="#95d8ff" d="M 0 0 L 396.75 0 L 396.75 396.75 L 0 396.75 Z M 0 0 " fill-opacity="1" fill-rule="nonzero"/><g mask="url(#71f6858ec9)"><g transform="matrix(1, 0, 0, 1, 0, 0)"><g clip-path="url(#692f3be917)"><g clip-path="url(#3e779ff65a)"><path fill="#6eca70" d="M 374.023438 372.328125 C 371.976562 372.160156 372.726562 379.660156 367.125 373.316406 C 366.738281 372.871094 365.761719 372.898438 365.441406 373.359375 C 357.457031 385.066406 369.453125 406.148438 395.554688 398.847656 C 395.847656 398.761719 395.820312 397.898438 395.484375 397.816406 C 393.660156 397.371094 390.1875 398.023438 386.148438 394.679688 C 379.363281 389.09375 374.832031 382.25 374.777344 373.472656 C 374.777344 372.929688 374.722656 372.382812 374.023438 372.328125 " fill-opacity="1" fill-rule="nonzero"/></g><g clip-path="url(#874f7cc9e9)"><path fill="#6eca70" d="M 51.734375 394.21875 C 52.042969 395.628906 53.199219 394.429688 55.804688 393.496094 C 60.917969 391.671875 65.753906 394.21875 68.472656 396.855469 C 78.367188 406.425781 74.769531 413.382812 78.589844 410.34375 C 80.929688 408.476562 79.5625 400.28125 78.785156 397.328125 C 70.128906 375.449219 49.644531 382.335938 51.179688 386.472656 C 52.863281 390.945312 51.429688 392.855469 51.734375 394.21875 " fill-opacity="1" fill-rule="nonzero"/></g><path fill="#38b6ff" d="M 8.96875 13.167969 C 22.125 13.488281 32.464844 27.214844 34.289062 35.503906 C 34.804688 37.917969 37.007812 34.78125 41.003906 29.902344 C 44.195312 25.972656 31.25 16.582031 28.394531 14.574219 C 13.582031 5.746094 3.128906 13.015625 8.96875 13.167969 " fill-opacity="1" fill-rule="nonzero"/><path fill="#ff66c4" d="M 302.691406 79.191406 C 301.882812 85.042969 305.324219 78.800781 308.921875 85.492188 C 310.621094 88.683594 309.6875 85.492188 317.921875 77.574219 C 324.652344 71.097656 341.847656 69.632812 323.957031 58.316406 C 322.519531 57.410156 322.285156 59.347656 321.796875 60.671875 C 316.488281 74.816406 305.171875 69.132812 302.691406 79.191406 " fill-opacity="1" fill-rule="nonzero"/><g clip-path="url(#6b44ed9b15)"><path fill="#f5d629" d="M 42.175781 416.027344 C 43.304688 414.761719 41.425781 414.21875 40.210938 413.507812 C 27.125 405.953125 34.597656 395.726562 25.078125 391.613281 C 19.433594 389.859375 25.023438 394.289062 17.832031 396.730469 C 14.417969 397.886719 17.707031 397.496094 24.171875 406.914062 C 29.453125 414.621094 28.058594 431.816406 42.175781 416.027344 " fill-opacity="1" fill-rule="nonzero"/></g><path fill="#ff66c4" d="M 194.289062 35.03125 C 193.59375 32.285156 178.824219 37.164062 175.617188 39.824219 C 172.316406 42.585938 167.871094 48.714844 167.507812 49.816406 C 167.117188 51 168.511719 51.167969 170.253906 51.726562 C 175.632812 53.496094 174.265625 60.40625 176.34375 57.730469 C 188.4375 42.097656 195.433594 39.085938 196.703125 37.761719 C 196.5625 37.46875 196.480469 37.148438 196.285156 36.953125 C 195.613281 36.300781 194.527344 35.992188 194.289062 35.03125 " fill-opacity="1" fill-rule="nonzero"/><path fill="#6eca70" d="M 229.785156 25.917969 C 227.820312 28.132812 228.238281 27.480469 226.730469 30.65625 C 225.6875 32.816406 240.261719 37.554688 247.71875 25.347656 C 251.089844 19.828125 252.371094 11.59375 251.871094 7.816406 C 251.746094 6.910156 250.128906 6.722656 249.738281 7.789062 C 249.5 8.429688 249.558594 10.394531 249.25 11.203125 C 246.742188 17.824219 239.96875 26.558594 233.167969 24.664062 C 229.699219 23.6875 230.996094 24.539062 229.785156 25.917969 " fill-opacity="1" fill-rule="nonzero"/><path fill="#6eca70" d="M 194.222656 326.539062 C 191.574219 324.378906 192.675781 323.945312 189.875 325.5625 C 187.253906 327.082031 182.90625 323.75 183.308594 319.472656 C 183.757812 314.917969 185.441406 313.46875 187.128906 310.636719 C 187.53125 309.96875 186.738281 309.160156 185.914062 309.703125 C 179.449219 313.886719 175.15625 325.4375 180.828125 330.761719 C 190.972656 340.234375 198.722656 330.175781 194.222656 326.539062 " fill-opacity="1" fill-rule="nonzero"/><path fill="#ff66c4" d="M 367.238281 327.542969 C 367.390625 327.417969 367.460938 327.191406 367.738281 326.773438 C 366.5 325.730469 363.753906 324.921875 363.265625 320.519531 C 363.15625 319.460938 362.125 319.277344 361.71875 319.78125 C 360.714844 321.019531 347.5625 339.734375 342.460938 342.007812 C 341.332031 342.507812 341.679688 343.621094 342.628906 343.664062 C 345.386719 343.734375 346.28125 346.132812 347.421875 347.71875 C 348.996094 349.933594 349.570312 346.980469 356.5625 336.976562 C 362.234375 328.878906 364.714844 329.605469 367.238281 327.542969 " fill-opacity="1" fill-rule="nonzero"/><g clip-path="url(#e623c0e63c)"><path fill="#ff66c4" d="M 283.488281 9.378906 C 287.25 12.570312 295.097656 18.144531 297.355469 19.746094 C 302.175781 23.160156 302.441406 23.492188 304.78125 8.933594 C 304.921875 8.109375 304.640625 7.46875 303.902344 7.09375 C 301.839844 6.0625 299.917969 4.710938 297.6875 4.070312 C 292.394531 2.554688 292.421875 -1.425781 289.59375 -0.480469 C 289.273438 -0.226562 288.757812 0.132812 288.324219 0.589844 C 279.390625 10.339844 281.636719 7.789062 283.488281 9.378906 " fill-opacity="1" fill-rule="nonzero"/></g><path fill="#6eca70" d="M 177.570312 87.652344 C 177.023438 87.59375 176.773438 88.375 177.164062 88.808594 C 179.214844 91.078125 180.203125 91.273438 181.679688 90.839844 C 188.882812 88.738281 194.289062 88.972656 204.421875 87.804688 C 206.625 86.785156 205.816406 85.085938 205.59375 82.789062 C 205.230469 79.050781 204.128906 79.375 201.507812 80 C 192.214844 82.1875 177.570312 87.652344 177.570312 87.652344 " fill-opacity="1" fill-rule="nonzero"/><path fill="#ff66c4" d="M 133.285156 82.605469 C 131.582031 83.164062 131.375 83.625 131.570312 85.433594 C 132.417969 92.875 132.210938 88.179688 135.054688 105.558594 C 135.289062 107.007812 136.726562 108.539062 139.21875 102.8125 C 144.027344 91.816406 148.195312 92.332031 146.3125 89.851562 C 139.402344 80.695312 146.675781 78.175781 133.285156 82.605469 " fill-opacity="1" fill-rule="nonzero"/><path fill="#f5d629" d="M 182.363281 265.960938 C 181.457031 264.804688 179.449219 264.179688 180.078125 270.394531 C 181.261719 282.335938 177.386719 283.925781 180.230469 285.164062 C 190.75 289.777344 185.636719 295.519531 195.140625 285.109375 C 196.351562 283.800781 196.3125 283.285156 195.253906 281.808594 C 190.875 275.730469 193.34375 279.714844 182.363281 265.960938 " fill-opacity="1" fill-rule="nonzero"/><path fill="#ff66c4" d="M 57.546875 167.246094 C 66.019531 159.792969 69.515625 163.109375 57.726562 156.585938 C 57.226562 156.308594 56.710938 156.320312 56.265625 156.710938 C 53.15625 159.527344 34.414062 180.679688 39.429688 178.703125 C 41.96875 177.710938 44.488281 176.515625 47.289062 176.667969 C 51.539062 176.890625 49.992188 173.894531 57.546875 167.246094 " fill-opacity="1" fill-rule="nonzero"/><path fill="#6eca70" d="M 243.214844 319.683594 C 263.046875 334.035156 258.488281 333.867188 266.65625 323.710938 C 267.144531 323.109375 266.960938 322.261719 266.195312 321.800781 C 262.796875 319.808594 259.785156 317.398438 257.582031 314.082031 C 256.96875 313.148438 255.746094 313.664062 254.683594 313.984375 C 246.351562 316.5625 239.132812 316.742188 243.214844 319.683594 " fill-opacity="1" fill-rule="nonzero"/><g clip-path="url(#888ef0a607)"><path fill="#ff66c4" d="M 360.074219 22.253906 C 365.21875 14.894531 368.421875 18.492188 369.746094 13.90625 C 372.464844 4.429688 376.894531 -3.355469 376.910156 -3.445312 C 377.117188 -4.121094 376.003906 -4.757812 375.070312 -3.871094 C 370.597656 0.398438 367.042969 -6.550781 364.828125 0.585938 C 363.308594 5.503906 355.9375 28.160156 360.074219 22.253906 " fill-opacity="1" fill-rule="nonzero"/></g><path fill="#ff66c4" d="M 224.988281 107.464844 C 224.921875 106.421875 223.429688 106.351562 222.382812 106.226562 C 217.410156 105.613281 216.710938 105.222656 215.109375 106.503906 C 204.339844 115.089844 194.695312 115.117188 197.007812 118.710938 C 201.996094 126.488281 202.09375 126.65625 207.027344 123.464844 C 209.242188 122.015625 225.085938 109.097656 224.988281 107.464844 " fill-opacity="1" fill-rule="nonzero"/><g clip-path="url(#479052ef5c)"><path fill="#ff66c4" d="M 372.503906 83.859375 C 372.144531 85.878906 376.421875 87.425781 377.855469 87.875 C 384.210938 89.824219 394.816406 95.96875 395.957031 93.894531 C 396.167969 93.503906 395.902344 93.292969 395.679688 93.085938 C 394.496094 92.039062 394.160156 90.617188 393.910156 89.15625 C 392.570312 81.492188 395.261719 86.925781 374.886719 77.15625 C 373.078125 76.292969 373.273438 77.8125 372.503906 83.859375 " fill-opacity="1" fill-rule="nonzero"/></g><path fill="#ff66c4" d="M 236.332031 169.753906 C 235.246094 170.914062 233.808594 171.203125 232.332031 171.398438 C 224.628906 172.445312 230.160156 169.949219 219.652344 189.949219 C 218.71875 191.730469 220.238281 191.578125 226.242188 192.582031 C 228.25 193.027344 229.964844 188.804688 230.453125 187.371094 C 232.640625 181.097656 239.175781 170.730469 237.140625 169.503906 C 236.765625 169.28125 236.542969 169.546875 236.332031 169.753906 " fill-opacity="1" fill-rule="nonzero"/><path fill="#6eca70" d="M 73.710938 226.136719 C 66.1875 228.644531 70.476562 226.332031 55.09375 235.207031 C 52.667969 236.617188 58.605469 236.394531 64.097656 238.316406 C 65.324219 238.734375 66.269531 238.621094 67.355469 237.941406 C 73.503906 234.121094 83.757812 231.683594 83.757812 231.683594 C 83.980469 231.558594 84.035156 231.179688 84.175781 230.886719 C 82.78125 228.796875 81.320312 226.929688 80.957031 226.191406 C 79.882812 224.019531 79.535156 224.214844 73.710938 226.136719 " fill-opacity="1" fill-rule="nonzero"/><path fill="#ff66c4" d="M 303.707031 345.238281 C 298.746094 339.957031 294.300781 330.398438 294.300781 330.398438 C 294.136719 330.21875 293.773438 330.230469 293.453125 330.148438 C 291.683594 331.929688 290.136719 333.730469 289.480469 334.246094 C 287.570312 335.722656 287.824219 336.027344 290.875 341.351562 C 294.816406 348.222656 291.710938 344.488281 303.472656 357.792969 C 305.324219 359.882812 303.917969 354.117188 304.726562 348.347656 C 304.894531 347.078125 304.585938 346.160156 303.707031 345.238281 " fill-opacity="1" fill-rule="nonzero"/><path fill="#ff66c4" d="M 133.019531 269.070312 C 123.140625 269.167969 121.84375 268.652344 121.019531 270.617188 C 120.101562 272.789062 118.234375 280.972656 125.367188 278.992188 C 143.398438 274.003906 143.527344 274.03125 145.265625 272.929688 C 145.238281 267.734375 137.574219 269.015625 133.019531 269.070312 " fill-opacity="1" fill-rule="nonzero"/><path fill="#ff66c4" d="M 148.429688 322.496094 C 149.378906 321.242188 150.046875 318.246094 154.769531 316.769531 C 159.871094 315.167969 154.730469 314.359375 163.300781 304.953125 C 171.089844 296.410156 163.941406 302.097656 154.980469 301.300781 C 152.609375 301.09375 153.976562 301.164062 147.398438 320.519531 C 147.371094 321.0625 147.289062 321.589844 147.34375 322.09375 C 147.398438 322.554688 148 323.039062 148.429688 322.496094 " fill-opacity="1" fill-rule="nonzero"/><g clip-path="url(#6bc31b9fe9)"><path fill="#ff66c4" d="M 217.03125 407.722656 C 227.050781 399.976562 216.378906 404.53125 208.128906 393.636719 C 207.417969 392.6875 206.484375 392.410156 205.339844 392.800781 C 193.496094 396.894531 192.535156 394.609375 210.164062 411.625 C 212.628906 414.007812 212.070312 411.542969 217.03125 407.722656 " fill-opacity="1" fill-rule="nonzero"/></g><path fill="#ff66c4" d="M 268.453125 366.265625 C 268.855469 365.152344 268.578125 364.21875 267.628906 363.480469 C 257.722656 355.800781 259.117188 353.738281 254.503906 377.804688 C 253.863281 381.164062 255.632812 379.367188 261.527344 381.414062 C 273.496094 385.582031 263.855469 379.128906 268.453125 366.265625 " fill-opacity="1" fill-rule="nonzero"/><path fill="#6eca70" d="M 263.15625 176.277344 C 260.871094 179.09375 255.117188 185.335938 254.90625 185.792969 C 253.222656 189.5 258.726562 185.152344 266.417969 185.503906 C 270.488281 185.726562 271.40625 178.101562 276.839844 172.765625 C 277.289062 172.332031 277.328125 171.273438 276.703125 170.785156 C 275.53125 169.882812 274.429688 169.65625 272.746094 168.863281 C 271.003906 168.042969 269.972656 167.902344 263.15625 176.277344 " fill-opacity="1" fill-rule="nonzero"/><path fill="#ff66c4" d="M 12.566406 299.03125 C 13.34375 298.738281 30.136719 291.171875 30.679688 290.265625 C 32.644531 286.921875 21.261719 291.128906 9.75 289.347656 C 9.136719 289.261719 8.496094 289.21875 7.867188 289.261719 C 6.125 289.359375 6.960938 291.660156 7.839844 293.246094 C 10.90625 298.738281 8.578125 300.5625 12.566406 299.03125 " fill-opacity="1" fill-rule="nonzero"/><path fill="#ff66c4" d="M 86.195312 302.5 C 89.929688 294.933594 92.1875 296.953125 71.71875 292.203125 C 68.554688 291.476562 68.320312 293.46875 66.578125 300.800781 C 66.117188 302.75 69.445312 300.96875 76.539062 302.402344 C 79.007812 302.90625 81.527344 303.03125 83.605469 303.753906 C 85.152344 303.851562 85.640625 303.644531 86.195312 302.5 " fill-opacity="1" fill-rule="nonzero"/><path fill="#ff66c4" d="M 67.871094 17.710938 C 66.382812 15.703125 64.582031 13.90625 63.511719 11.984375 C 62.4375 10.867188 61.9375 10.714844 60.765625 11.1875 C 52.921875 14.3125 52.585938 11.285156 64.625 28.511719 C 66.492188 31.171875 67.996094 29.863281 74.199219 25.585938 C 75.84375 24.425781 72.179688 23.523438 67.871094 17.710938 " fill-opacity="1" fill-rule="nonzero"/><path fill="#ff66c4" d="M 279.933594 242.414062 C 280.867188 243.945312 281.621094 243.207031 282.792969 241.828125 C 286.652344 237.3125 293.910156 244.40625 295.054688 248.015625 C 295.613281 249.757812 298.386719 247.136719 300.070312 246.148438 C 305.449219 243.054688 290.691406 226.316406 282.5 234.398438 C 282.445312 234.414062 282.386719 234.429688 282.332031 234.457031 C 282.304688 234.484375 282.277344 234.511719 282.261719 234.554688 C 281.859375 234.691406 281.480469 234.847656 281.257812 235.222656 C 281.21875 235.234375 281.191406 235.25 281.160156 235.265625 C 281.148438 235.292969 281.121094 235.320312 281.105469 235.347656 C 280.421875 235.625 279.894531 236.042969 279.574219 236.742188 C 279.546875 236.753906 279.503906 236.769531 279.460938 236.78125 C 279.460938 236.8125 279.449219 236.839844 279.449219 236.867188 C 279.15625 236.964844 278.972656 237.144531 278.988281 237.464844 C 278.972656 237.480469 278.960938 237.492188 278.933594 237.507812 C 278.933594 237.535156 278.917969 237.535156 278.917969 237.5625 C 278.570312 237.632812 278.445312 237.855469 278.445312 238.191406 C 278.417969 238.203125 278.402344 238.21875 278.386719 238.230469 C 278.386719 238.246094 278.402344 238.273438 278.417969 238.289062 C 276.1875 240.363281 278.152344 239.488281 279.933594 242.414062 " fill-opacity="1" fill-rule="nonzero"/><path fill="#ff66c4" d="M 209.660156 250.746094 C 217.003906 250.675781 192.839844 239.960938 193.148438 227.753906 C 193.148438 227.542969 192.828125 227.222656 192.578125 227.125 C 191.085938 226.472656 189.386719 230.789062 189.886719 233.355469 C 191.851562 243.320312 200.003906 250.828125 209.660156 250.746094 " fill-opacity="1" fill-rule="nonzero"/><g clip-path="url(#91d9132e6a)"><path fill="#f5d629" d="M 147.203125 11.328125 C 146.84375 11.800781 147.039062 12.75 147.566406 12.988281 C 160.511719 18.714844 179.074219 3.101562 167.160156 -21.242188 C 167.035156 -21.507812 166.183594 -21.339844 166.171875 -20.984375 C 166.074219 -19.105469 167.328125 -15.8125 164.777344 -11.230469 C 160.511719 -3.554688 154.605469 2.136719 145.976562 3.78125 C 145.433594 3.890625 144.917969 4.042969 144.988281 4.730469 C 145.199219 6.789062 152.429688 4.679688 147.203125 11.328125 " fill-opacity="1" fill-rule="nonzero"/></g><path fill="#f5d629" d="M 392.683594 52.296875 C 392.890625 52.101562 392.503906 51.335938 392.167969 51.40625 C 390.328125 51.835938 387.511719 53.957031 382.398438 52.769531 C 373.84375 50.765625 366.75 46.652344 362.792969 38.824219 C 362.542969 38.320312 362.25 37.875 361.609375 38.125 C 359.683594 38.890625 363.699219 45.261719 355.867188 42.070312 C 355.308594 41.847656 354.460938 42.304688 354.390625 42.878906 C 352.425781 56.894531 372.546875 70.441406 392.683594 52.296875 " fill-opacity="1" fill-rule="nonzero"/><path fill="#6eca70" d="M 367.78125 167.832031 C 367.542969 164.238281 367.070312 167.511719 356.300781 171.332031 C 347.492188 174.4375 331.230469 168.65625 342.851562 186.367188 C 343.773438 187.773438 344.789062 186.101562 345.792969 185.113281 C 356.480469 174.4375 364.421875 184.289062 370.847656 176.152344 C 373.996094 171.148438 368.285156 175.414062 367.78125 167.832031 " fill-opacity="1" fill-rule="nonzero"/><path fill="#f5d629" d="M 89.472656 242.859375 C 88.328125 241.605469 87.589844 243.414062 86.769531 244.558594 C 77.90625 256.792969 68.5 248.320312 63.441406 257.363281 C 61.113281 262.800781 66.089844 257.699219 67.789062 265.085938 C 68.582031 268.625 68.527344 265.292969 78.5625 259.832031 C 86.78125 255.371094 103.742188 258.523438 89.472656 242.859375 " fill-opacity="1" fill-rule="nonzero"/><path fill="#f5d629" d="M 353.789062 121.207031 C 365.46875 116.0625 368.703125 130.375 360.6875 131.878906 C 357.539062 132.480469 357.914062 127.976562 356.480469 137.675781 C 356.046875 140.519531 368.339844 139 371.390625 130.304688 C 375.445312 118.699219 359.699219 110.128906 355.867188 116.121094 C 354.792969 117.804688 353.609375 119.394531 351.910156 120.539062 C 351.519531 120.789062 351.085938 121.511719 351.535156 121.820312 C 352.160156 122.238281 353.011719 121.554688 353.789062 121.207031 " fill-opacity="1" fill-rule="nonzero"/><path fill="#f5d629" d="M 210.832031 358.03125 C 216.476562 358.421875 216.835938 365.472656 218.203125 362.351562 C 226.117188 344.25 232.179688 339.636719 233.085938 338.035156 C 232.863281 337.785156 232.710938 337.492188 232.472656 337.351562 C 231.664062 336.890625 230.535156 336.851562 230.0625 335.972656 C 228.722656 333.476562 215.597656 341.8125 213.132812 345.167969 C 210.59375 348.667969 207.78125 355.691406 207.695312 356.832031 C 207.597656 358.101562 209.007812 357.90625 210.832031 358.03125 " fill-opacity="1" fill-rule="nonzero"/><path fill="#f5d629" d="M 254.9375 93.238281 C 258.894531 98.367188 266.113281 102.519531 269.820312 103.410156 C 270.710938 103.621094 271.460938 102.171875 270.613281 101.417969 C 270.097656 100.972656 268.242188 100.316406 267.601562 99.746094 C 262.320312 95.023438 256.59375 85.574219 260.800781 79.902344 C 262.949219 77.003906 261.695312 77.925781 260.859375 76.292969 C 259.492188 73.660156 259.9375 74.273438 257.527344 71.738281 C 255.871094 69.996094 246.226562 81.910156 254.9375 93.238281 " fill-opacity="1" fill-rule="nonzero"/><path fill="#f5d629" d="M 369.789062 256.878906 C 368.742188 264.109375 366.554688 263.230469 368.101562 265.824219 C 373.746094 275.339844 370.527344 288.089844 370.527344 288.089844 C 370.929688 288.691406 379.265625 288.996094 380.058594 286.40625 C 383.390625 275.550781 371.445312 257.910156 369.789062 256.878906 " fill-opacity="1" fill-rule="nonzero"/><path fill="#f5d629" d="M 239.773438 230.402344 C 235.398438 231.792969 233.40625 230.804688 230.144531 230.371094 C 229.363281 230.273438 228.933594 231.320312 229.769531 231.863281 C 236.152344 236.15625 248.46875 235.542969 251.105469 228.226562 C 255.8125 215.167969 243.507812 212.019531 241.949219 217.582031 C 241.015625 220.871094 240.191406 220.046875 242.769531 221.96875 C 245.195312 223.78125 243.859375 229.078125 239.773438 230.402344 " fill-opacity="1" fill-rule="nonzero"/><path fill="#f5d629" d="M 108.96875 382.808594 C 109.609375 383.8125 110.261719 383.839844 111.40625 383.199219 C 124.113281 375.9375 117.675781 376.71875 125.941406 370.933594 C 128.195312 369.359375 127.457031 368.257812 126.203125 360.875 C 125.746094 355.746094 126.300781 357.472656 106.710938 370.058594 C 102.488281 372.773438 100.828125 373.890625 101.191406 375.242188 C 102.835938 381.371094 105.539062 377.511719 108.96875 382.808594 " fill-opacity="1" fill-rule="nonzero"/><path fill="#38b6ff" d="M 247.214844 277.765625 C 247.410156 277.722656 247.59375 277.585938 248.039062 277.347656 C 247.496094 275.816406 245.53125 273.738281 247.3125 269.699219 C 247.757812 268.722656 246.949219 268.054688 246.351562 268.277344 C 244.859375 268.847656 224.070312 278.40625 218.523438 277.792969 C 217.3125 277.65625 217.03125 278.8125 217.839844 279.3125 C 220.183594 280.761719 219.765625 283.285156 219.929688 285.234375 C 220.183594 287.9375 222.160156 285.667969 233.238281 280.554688 C 242.214844 276.398438 244.011719 278.28125 247.214844 277.765625 " fill-opacity="1" fill-rule="nonzero"/><path fill="#ff66c4" d="M 20.492188 101.835938 C 23.195312 101.53125 25.941406 101.015625 28.617188 101.878906 C 32.671875 103.1875 31.933594 99.886719 40.9375 95.398438 C 51.039062 90.367188 53.574219 94.480469 43.847656 85.140625 C 43.429688 84.753906 42.914062 84.625 42.398438 84.90625 C 38.679688 86.816406 15.140625 102.464844 20.492188 101.835938 " fill-opacity="1" fill-rule="nonzero"/><path fill="#f5d629" d="M 274.710938 281.445312 C 273.875 282.085938 274.652344 283.367188 275.140625 284.300781 C 277.453125 288.746094 277.523438 289.554688 279.476562 290.152344 C 292.628906 294.195312 298.105469 302.152344 299.777344 298.207031 C 303.375 289.695312 303.457031 289.527344 298.050781 287.253906 C 295.597656 286.238281 275.992188 280.441406 274.710938 281.445312 " fill-opacity="1" fill-rule="nonzero"/><path fill="#f5d629" d="M 156.023438 185.558594 C 157.054688 179.707031 156.652344 179.816406 154.367188 178.519531 C 152.191406 177.28125 134.84375 170.605469 133.214844 172.863281 C 132.894531 173.324219 135.191406 177.808594 137.269531 178.1875 C 146.941406 179.859375 154.617188 193.542969 156.023438 185.558594 " fill-opacity="1" fill-rule="nonzero"/><path fill="#f5d629" d="M 115.085938 190.851562 C 114.652344 190.894531 114.609375 191.242188 114.570312 191.535156 C 114.359375 193.109375 113.371094 194.183594 112.285156 195.214844 C 106.652344 200.566406 109.675781 195.3125 112.867188 217.679688 C 113.160156 219.65625 114.316406 218.652344 119.765625 215.9375 C 121.660156 215.113281 120.5625 210.710938 120.128906 209.261719 C 118.21875 202.894531 117.453125 190.65625 115.085938 190.851562 " fill-opacity="1" fill-rule="nonzero"/><path fill="#f5d629" d="M 176.078125 204.59375 C 177.375 204.636719 178.238281 204.230469 179.085938 203.269531 C 183.796875 197.777344 192.855469 192.371094 192.855469 192.371094 C 193.023438 192.175781 192.96875 191.800781 193.007812 191.480469 C 191.042969 189.90625 189.09375 188.566406 188.523438 187.96875 C 186.847656 186.226562 186.570312 186.503906 181.597656 190.101562 C 175.171875 194.742188 178.570312 191.257812 166.558594 204.34375 C 164.679688 206.40625 170.265625 204.398438 176.078125 204.59375 " fill-opacity="1" fill-rule="nonzero"/><path fill="#f5d629" d="M 301.828125 51.921875 C 304.097656 51.292969 311.679688 47.683594 305.699219 43.308594 C 290.59375 32.273438 290.539062 32.148438 288.601562 31.464844 C 284.535156 34.710938 290.289062 39.921875 293.160156 43.460938 C 299.375 51.15625 299.777344 52.492188 301.828125 51.921875 " fill-opacity="1" fill-rule="nonzero"/><path fill="#f5d629" d="M 299.261719 167.886719 C 314.746094 166.328125 314.480469 168.585938 314.257812 163.636719 C 314.105469 160.195312 312.820312 156.894531 312.851562 153.421875 C 312.851562 152.9375 312.207031 152.476562 311.722656 152.585938 C 311.414062 152.644531 311.136719 152.796875 310.84375 152.878906 C 291.988281 158.675781 291.042969 151.457031 296.140625 166.953125 C 296.519531 168.082031 298.023438 167.859375 299.261719 167.886719 " fill-opacity="1" fill-rule="nonzero"/><path fill="#f5d629" d="M 242.242188 120.886719 C 242.03125 120.925781 241.863281 121.148438 241.710938 121.277344 C 241.070312 121.902344 244.652344 127.449219 245.179688 128.453125 C 246.9375 131.726562 251.757812 130.988281 256.398438 130.027344 C 288.824219 123.324219 268.816406 128.746094 257.082031 119.117188 C 253.890625 116.496094 252.816406 119.058594 242.242188 120.886719 " fill-opacity="1" fill-rule="nonzero"/><g clip-path="url(#78b9f6597f)"><path fill="#6eca70" d="M 414.535156 -8.507812 C 407.886719 -19.144531 409.90625 -20.59375 397.253906 0.386719 C 395.484375 3.320312 397.769531 2.230469 402.589844 6.210938 C 412.375 14.253906 405.558594 4.871094 414.339844 -5.601562 C 415.089844 -6.511719 415.160156 -7.492188 414.535156 -8.507812 " fill-opacity="1" fill-rule="nonzero"/></g><path fill="#f5d629" d="M 100.871094 101.042969 C 113.410156 100.890625 113.59375 103.371094 102.222656 81.660156 C 100.632812 78.621094 100.382812 81.144531 94.472656 83.207031 C 82.519531 87.386719 94.085938 86.4375 98.488281 99.371094 C 98.863281 100.5 99.660156 101.054688 100.871094 101.042969 " fill-opacity="1" fill-rule="nonzero"/><g clip-path="url(#44e78bc9c6)"><path fill="#f5d629" d="M -5.089844 168.613281 C -4.339844 168.988281 12.632812 176.125 13.679688 175.914062 C 17.457031 175.078125 6.628906 169.601562 0.078125 159.960938 C -0.269531 159.445312 -0.671875 158.957031 -1.121094 158.523438 C -2.386719 157.3125 -3.515625 159.484375 -4.074219 161.214844 C -5.996094 167.207031 -8.921875 166.746094 -5.089844 168.613281 " fill-opacity="1" fill-rule="nonzero"/></g><path fill="#6eca70" d="M 6.585938 55.308594 C -1.46875 60.046875 -1.175781 49.859375 6.058594 74.453125 C 6.542969 76.140625 9.207031 75.359375 11.4375 74.550781 C 14.890625 73.285156 16.089844 73.464844 11.117188 58.148438 C 10.667969 56.742188 8.941406 53.929688 6.585938 55.308594 " fill-opacity="1" fill-rule="nonzero"/><path fill="#f5d629" d="M 349.917969 231.753906 C 349.972656 231.765625 350.042969 231.792969 350.097656 231.820312 C 350.140625 231.792969 350.167969 231.78125 350.210938 231.765625 C 350.613281 231.863281 351.019531 231.933594 351.421875 231.738281 C 351.449219 231.753906 351.476562 231.753906 351.503906 231.765625 C 351.546875 231.738281 351.574219 231.738281 351.601562 231.710938 C 352.328125 231.863281 353.011719 231.792969 353.636719 231.390625 C 353.691406 231.390625 353.722656 231.402344 353.777344 231.417969 C 353.789062 231.390625 353.804688 231.375 353.820312 231.363281 C 354.125 231.433594 354.363281 231.375 354.542969 231.097656 C 354.558594 231.097656 354.570312 231.082031 354.613281 231.097656 C 354.613281 231.070312 354.640625 231.070312 354.640625 231.054688 C 354.976562 231.179688 355.210938 231.070312 355.394531 230.789062 C 355.40625 230.789062 355.433594 230.777344 355.449219 230.789062 C 355.464844 230.761719 355.464844 230.75 355.464844 230.722656 C 358.457031 230.191406 356.339844 229.871094 356.425781 226.429688 C 356.480469 224.644531 355.449219 224.839844 353.722656 225.371094 C 348.023438 227.054688 345.792969 217.148438 346.796875 213.496094 C 347.269531 211.742188 343.519531 212.425781 341.570312 212.328125 C 335.367188 212.007812 338.65625 234.078125 349.917969 231.753906 " fill-opacity="1" fill-rule="nonzero"/><path fill="#f5d629" d="M 54.953125 321.828125 C 54.855469 321.632812 54.425781 321.492188 54.148438 321.523438 C 52.53125 321.589844 52.933594 326.230469 54.523438 328.292969 C 60.710938 336.347656 71.34375 339.457031 79.953125 335.082031 C 86.503906 331.765625 60.097656 332.890625 54.953125 321.828125 " fill-opacity="1" fill-rule="nonzero"/><path fill="#6eca70" d="M 99.253906 141.957031 C 99.839844 143.265625 100.730469 141.859375 103.085938 140.4375 C 107.742188 137.621094 112.992188 139.15625 116.183594 141.203125 C 127.792969 148.601562 125.648438 156.140625 128.796875 152.394531 C 130.707031 150.09375 127.722656 142.332031 126.386719 139.601562 C 113.539062 119.894531 94.824219 130.722656 97.164062 134.472656 C 99.699219 138.527344 98.683594 140.671875 99.253906 141.957031 " fill-opacity="1" fill-rule="nonzero"/><path fill="#38b6ff" d="M 322.089844 269.460938 C 317.140625 272.695312 324.125 271.203125 321.417969 278.296875 C 320.125 281.679688 321.933594 278.878906 333.320312 279.910156 C 342.613281 280.746094 354.988281 292.761719 351.796875 271.828125 C 351.546875 270.15625 349.917969 271.257812 348.605469 271.746094 C 334.449219 277.011719 331.328125 264.738281 322.089844 269.460938 " fill-opacity="1" fill-rule="nonzero"/><path fill="#6eca70" d="M 101.050781 19.871094 C 104.160156 19.160156 103.976562 23.660156 105.023438 13.90625 C 105.328125 11.050781 93.109375 13.070312 90.417969 21.878906 C 86.851562 33.636719 102.933594 41.582031 106.515625 35.421875 C 107.519531 33.695312 108.632812 32.050781 110.289062 30.851562 C 110.667969 30.585938 111.085938 29.835938 110.609375 29.554688 C 109.96875 29.164062 109.148438 29.875 108.382812 30.253906 C 96.925781 35.882812 93.109375 21.710938 101.050781 19.871094 " fill-opacity="1" fill-rule="nonzero"/><path fill="#38b6ff" d="M 85.066406 110.617188 C 84.664062 107.816406 69.476562 111.1875 66.019531 113.515625 C 62.453125 115.9375 57.421875 121.582031 56.960938 122.640625 C 56.433594 123.796875 57.8125 124.089844 59.484375 124.84375 C 64.667969 127.128906 62.617188 133.859375 64.960938 131.40625 C 78.546875 117.054688 85.808594 114.78125 87.214844 113.582031 C 87.089844 113.261719 87.046875 112.941406 86.867188 112.734375 C 86.265625 112.023438 85.207031 111.589844 85.066406 110.617188 " fill-opacity="1" fill-rule="nonzero"/><path fill="#38b6ff" d="M 8.105469 217.777344 C 15.40625 217.289062 15.003906 219.613281 17.21875 217.566406 C 25.34375 210.042969 38.46875 210.53125 38.46875 210.53125 C 38.972656 210.015625 37.535156 201.804688 34.832031 201.570312 C 23.53125 200.578125 8.761719 215.9375 8.105469 217.777344 " fill-opacity="1" fill-rule="nonzero"/><g clip-path="url(#10072e4460)"><path fill="#38b6ff" d="M 334.8125 1.394531 C 338.394531 5.09375 336.875 4.097656 344.246094 -17.992188 C 345.832031 -22.765625 346.433594 -24.671875 345.289062 -25.488281 C 340.164062 -29.242188 340.484375 -24.535156 334.503906 -26.511719 C 333.363281 -26.890625 332.832031 -26.5 332.34375 -25.28125 C 327.007812 -11.660156 331.523438 -16.308594 328.707031 -6.621094 C 327.941406 -3.96875 329.210938 -3.582031 334.8125 1.394531 " fill-opacity="1" fill-rule="nonzero"/></g><path fill="#38b6ff" d="M 36.421875 59.78125 C 35.015625 65.980469 39.207031 63.820312 39.765625 70.09375 C 39.878906 71.304688 40.433594 71.625 41.746094 71.582031 C 56.363281 71.097656 50.3125 68.796875 60.320312 67.527344 C 63.050781 67.195312 62.910156 65.871094 65.253906 58.75 C 67.246094 53.996094 66.925781 55.78125 43.722656 57.773438 C 38.71875 58.207031 36.726562 58.429688 36.421875 59.78125 " fill-opacity="1" fill-rule="nonzero"/><g clip-path="url(#fb3bb278ae)"><path fill="#6eca70" d="M 19.8125 132.953125 C 21.105469 133.261719 22.484375 134.304688 23.726562 133.636719 C 24.785156 133.066406 24.632812 131.40625 25.191406 130.304688 C 25.746094 129.203125 26.09375 127.476562 24.882812 127.351562 C 18.207031 126.710938 8.984375 113.679688 7.410156 111.632812 C 6.476562 110.421875 5.375 108.398438 4.21875 109.265625 C 2.28125 110.714844 0.46875 112.316406 -0.828125 114.40625 C -1.425781 115.351562 -0.703125 116.371094 0.09375 117.164062 C 9.359375 126.558594 13.484375 131.476562 19.8125 132.953125 " fill-opacity="1" fill-rule="nonzero"/></g><g clip-path="url(#2cb6b2900f)"><path fill="#38b6ff" d="M 415.46875 365.933594 C 414.519531 364.914062 409.085938 358.769531 409.683594 354.839844 C 409.851562 353.824219 409.335938 353.40625 408.472656 352.988281 C 400.710938 349.238281 394.703125 341.421875 392.167969 343.246094 C 391.847656 343.679688 389.992188 348.191406 389.785156 348.707031 C 387.609375 354.074219 419.785156 370.53125 415.46875 365.933594 " fill-opacity="1" fill-rule="nonzero"/></g><path fill="#38b6ff" d="M 333.878906 376.898438 C 332.484375 376.957031 324.261719 376.96875 321.726562 373.929688 C 321.058594 373.136719 320.417969 373.25 319.511719 373.625 C 311.582031 376.984375 301.742188 376.34375 301.4375 379.449219 C 301.5625 379.980469 303.734375 384.355469 303.972656 384.84375 C 306.59375 390.011719 340.175781 376.691406 333.878906 376.898438 " fill-opacity="1" fill-rule="nonzero"/><path fill="#38b6ff" d="M 205.800781 160.613281 C 215.613281 154.386719 232.917969 149.464844 231.816406 146.386719 C 227.304688 133.96875 232.125 143.375 208.910156 151.597656 C 205.242188 152.894531 206.625 155.695312 203.195312 160.574219 C 203.152344 160.640625 203.167969 160.765625 203.152344 160.851562 C 203.113281 161.839844 204.921875 161.171875 205.800781 160.613281 " fill-opacity="1" fill-rule="nonzero"/><path fill="#38b6ff" d="M 93.414062 183.21875 C 95.03125 182.449219 95.183594 181.976562 94.753906 180.191406 C 93.011719 172.917969 93.792969 177.546875 88.816406 160.65625 C 88.414062 159.25 86.796875 157.910156 85.027344 163.890625 C 81.613281 175.398438 77.417969 175.414062 79.578125 177.644531 C 87.589844 185.878906 80.679688 189.265625 93.414062 183.21875 " fill-opacity="1" fill-rule="nonzero"/><g clip-path="url(#d151c5e34d)"><path fill="#38b6ff" d="M 376.910156 205.988281 C 376.464844 206.335938 377.410156 211.28125 379.304688 212.214844 C 388.113281 216.535156 391.652344 231.835938 395.234375 224.5625 C 397.867188 219.226562 397.449219 219.226562 395.609375 217.34375 C 393.882812 215.546875 379.097656 204.257812 376.910156 205.988281 " fill-opacity="1" fill-rule="nonzero"/></g><path fill="#38b6ff" d="M 45.117188 303.421875 C 42.984375 302.082031 40.894531 300.96875 40.253906 300.425781 C 38.398438 298.890625 38.164062 299.199219 33.621094 303.335938 C 27.765625 308.6875 30.75 304.828125 20.296875 319.195312 C 18.652344 321.453125 23.992188 318.832031 29.789062 318.359375 C 31.070312 318.261719 31.890625 317.757812 32.617188 316.699219 C 36.671875 310.707031 45.0625 304.3125 45.0625 304.3125 C 45.199219 304.101562 45.101562 303.742188 45.117188 303.421875 " fill-opacity="1" fill-rule="nonzero"/><path fill="#38b6ff" d="M 311.136719 216.394531 C 311.625 216.632812 312.082031 216.925781 312.570312 217.066406 C 313.015625 217.191406 313.699219 216.828125 313.351562 216.214844 C 312.585938 214.863281 310.078125 213.078125 310.535156 208.160156 C 311.023438 202.824219 308.277344 207.269531 302.914062 195.730469 C 298.050781 185.238281 300.546875 194.03125 296.335938 202 C 295.234375 204.105469 295.820312 202.863281 311.136719 216.394531 " fill-opacity="1" fill-rule="nonzero"/><path fill="#6eca70" d="M 30.21875 265.738281 C 31.390625 265.515625 31.347656 263.984375 31.558594 262.773438 C 32.046875 247.21875 34.261719 247.777344 29.3125 247.34375 C 25.871094 247.039062 22.445312 247.890625 19.003906 247.402344 C 18.515625 247.332031 17.984375 247.902344 18.027344 248.40625 C 18.054688 248.710938 18.167969 249.003906 18.207031 249.308594 C 21.46875 268.765625 14.195312 268.75 30.21875 265.738281 " fill-opacity="1" fill-rule="nonzero"/><path fill="#38b6ff" d="M 162.210938 368.355469 C 164.609375 371.714844 166.324219 369.527344 176.996094 370.574219 C 177.21875 370.585938 177.429688 370.40625 177.609375 370.335938 C 178.390625 369.902344 176.414062 363.605469 176.148438 362.503906 C 175.339844 358.882812 170.488281 358.308594 165.753906 358.003906 C 132.710938 355.914062 153.449219 355.96875 162.210938 368.355469 " fill-opacity="1" fill-rule="nonzero"/><path fill="#38b6ff" d="M 25.648438 349.308594 C 14.753906 355.507812 13.386719 353.417969 33.84375 366.9375 C 36.699219 368.816406 35.710938 366.488281 39.878906 361.820312 C 48.320312 352.375 38.652344 358.8125 28.546875 349.613281 C 27.671875 348.820312 26.695312 348.707031 25.648438 349.308594 " fill-opacity="1" fill-rule="nonzero"/><path fill="#38b6ff" d="M 307.511719 117.277344 C 304.378906 118.738281 304.058594 119.589844 305.421875 122.628906 C 308.238281 128.816406 306.984375 125.441406 322.421875 118.90625 C 325.699219 117.527344 326.449219 113.765625 326.296875 112.050781 C 326.117188 109.875 308.878906 116.648438 307.511719 117.277344 " fill-opacity="1" fill-rule="nonzero"/><path fill="#38b6ff" d="M 231.941406 58.722656 C 230.171875 58.039062 229.128906 57.984375 222.953125 66.859375 C 220.90625 69.839844 215.652344 76.515625 215.484375 76.992188 C 214.078125 80.808594 219.234375 76.042969 226.925781 75.820312 C 231.007812 75.707031 231.34375 68.042969 236.347656 62.304688 C 236.75 61.828125 236.707031 60.785156 236.039062 60.339844 C 234.828125 59.515625 233.699219 59.390625 231.941406 58.722656 " fill-opacity="1" fill-rule="nonzero"/><g clip-path="url(#408a00d879)"><path fill="#f5d629" d="M 388.085938 161.421875 C 392.167969 164.695312 396 169.253906 396.570312 174.507812 C 396.738281 176.109375 397.140625 176.320312 398.882812 176.347656 C 400.585938 176.386719 403.539062 176.109375 405.042969 175.34375 C 406.480469 174.589844 405.949219 173.714844 405.253906 172.445312 C 392.710938 149.96875 392.585938 154.050781 389.058594 157.339844 L 389.101562 157.382812 C 387.039062 159.136719 386.105469 159.804688 388.085938 161.421875 " fill-opacity="1" fill-rule="nonzero"/></g><path fill="#38b6ff" d="M 162.964844 140.074219 C 164.148438 139.085938 164.34375 138.597656 163.953125 137.382812 C 161.417969 129.332031 164.46875 129.234375 146.382812 139.949219 C 143.59375 141.605469 144.792969 143.222656 148.613281 149.703125 C 149.628906 151.445312 150.8125 147.851562 156.917969 143.988281 C 159.035156 142.652344 160.957031 140.992188 162.964844 140.074219 " fill-opacity="1" fill-rule="nonzero"/><path fill="#6eca70" d="M 121.242188 316.144531 C 121.203125 316.101562 121.160156 316.058594 121.105469 316.015625 C 121.0625 316.03125 121.035156 316.015625 120.980469 316.015625 C 120.660156 315.765625 120.308594 315.53125 119.863281 315.558594 C 119.835938 315.542969 119.808594 315.515625 119.78125 315.5 C 119.753906 315.5 119.710938 315.5 119.683594 315.515625 C 119.082031 315.082031 118.429688 314.875 117.675781 314.984375 C 117.648438 314.972656 117.605469 314.945312 117.578125 314.917969 C 117.550781 314.929688 117.535156 314.929688 117.507812 314.945312 C 117.257812 314.75 117.019531 314.707031 116.757812 314.902344 C 116.730469 314.886719 116.699219 314.886719 116.6875 314.875 C 116.671875 314.886719 116.644531 314.875 116.632812 314.886719 C 116.378906 314.652344 116.117188 314.652344 115.851562 314.847656 C 115.824219 314.832031 115.808594 314.832031 115.78125 314.820312 C 115.765625 314.832031 115.753906 314.847656 115.753906 314.875 C 112.800781 314.148438 114.609375 315.308594 113.148438 318.414062 C 112.378906 320.042969 113.410156 320.269531 115.210938 320.476562 C 121.089844 321.214844 119.167969 331.179688 116.796875 334.132812 C 115.65625 335.554688 119.363281 336.417969 121.105469 337.28125 C 126.664062 340.070312 132.503906 318.527344 121.242188 316.144531 " fill-opacity="1" fill-rule="nonzero"/><path fill="#38b6ff" d="M 152.332031 246.621094 C 151.609375 248.292969 155.414062 248.140625 157.335938 248.515625 C 163.4375 249.699219 163.285156 227.390625 151.816406 228.117188 C 151.746094 228.085938 151.691406 228.058594 151.636719 228.019531 C 151.59375 228.03125 151.566406 228.046875 151.523438 228.058594 C 151.132812 227.90625 150.742188 227.765625 150.324219 227.90625 C 150.296875 227.890625 150.257812 227.878906 150.226562 227.863281 C 150.199219 227.890625 150.171875 227.890625 150.128906 227.90625 C 149.433594 227.667969 148.75 227.628906 148.070312 227.949219 C 148.027344 227.933594 147.984375 227.921875 147.941406 227.90625 C 147.929688 227.933594 147.902344 227.933594 147.886719 227.949219 C 147.59375 227.835938 147.34375 227.863281 147.136719 228.117188 C 147.105469 228.101562 147.09375 228.117188 147.066406 228.101562 C 147.050781 228.117188 147.039062 228.117188 147.023438 228.128906 C 146.714844 227.960938 146.464844 228.046875 146.257812 228.296875 C 146.230469 228.28125 146.214844 228.296875 146.1875 228.28125 C 146.171875 228.308594 146.171875 228.339844 146.160156 228.351562 C 143.136719 228.449219 145.183594 229.078125 144.613281 232.464844 C 144.304688 234.234375 145.351562 234.164062 147.136719 233.898438 C 153.015625 233.035156 153.835938 243.152344 152.332031 246.621094 " fill-opacity="1" fill-rule="nonzero"/><path fill="#38b6ff" d="M 123.835938 50.738281 C 123.78125 50.527344 123.375 50.304688 123.109375 50.277344 C 121.507812 50.054688 121.046875 54.695312 122.234375 57.019531 C 126.832031 66.066406 136.710938 71.066406 145.992188 68.351562 C 153.042969 66.289062 126.859375 62.554688 123.835938 50.738281 " fill-opacity="1" fill-rule="nonzero"/></g></g></g></g><g fill="#fa2baa" fill-opacity="0.302"><g transform="translate(36.803972, 241.950555)"><g><path d="M 6.957031 0.554688 C 16.558594 1.949219 25.1875 0.835938 28.386719 -0.554688 L 28.386719 -27.554688 L 56.777344 -27.554688 C 57.890625 -32.703125 57.890625 -41.191406 56.777344 -46.199219 L 28.386719 -46.199219 L 28.386719 -57.75 L 60.394531 -57.75 C 61.507812 -62.898438 61.507812 -71.390625 60.394531 -76.398438 L 28.804688 -76.398438 C 17.8125 -76.398438 11.828125 -75.5625 5.566406 -73.753906 C 6.539062 -47.035156 6.957031 -22.265625 6.957031 0.554688 Z M 6.957031 0.554688 "/></g></g></g><g fill="#fa2baa" fill-opacity="0.302"><g transform="translate(117.79188, 241.950555)"><g><path d="M 6.957031 0 L 61.089844 0 C 62.203125 -5.007812 62.203125 -13.5 61.089844 -18.648438 L 28.386719 -18.648438 L 28.386719 -76.953125 C 21.011719 -77.511719 12.523438 -76.398438 5.566406 -73.894531 C 6.539062 -47.035156 6.957031 -22.265625 6.957031 0 Z M 6.957031 0 "/></g></g></g><g fill="#fa2baa" fill-opacity="0.302"><g transform="translate(198.501484, 241.950555)"><g><path d="M 38.40625 2.085938 C 59.976562 2.085938 72.640625 -9.742188 72.640625 -29.917969 L 72.640625 -76.953125 C 65.265625 -77.511719 56.777344 -76.398438 49.820312 -73.894531 C 50.652344 -54.132812 51.210938 -37.433594 50.933594 -28.527344 C 50.652344 -20.179688 47.3125 -16.421875 40.21875 -16.421875 C 32.144531 -16.421875 28.386719 -20.179688 28.386719 -28.527344 L 28.386719 -76.953125 C 21.011719 -77.511719 12.523438 -76.398438 5.566406 -73.894531 C 6.261719 -54.132812 6.679688 -37.433594 6.820312 -27.136719 C 7.097656 -6.957031 17.953125 2.085938 38.40625 2.085938 Z M 38.40625 2.085938 "/></g></g></g><g fill="#fa2baa" fill-opacity="0.502"><g transform="translate(30.653703, 235.800269)"><g><path d="M 6.957031 0.554688 C 16.558594 1.949219 25.1875 0.835938 28.386719 -0.554688 L 28.386719 -27.554688 L 56.777344 -27.554688 C 57.890625 -32.703125 57.890625 -41.191406 56.777344 -46.199219 L 28.386719 -46.199219 L 28.386719 -57.75 L 60.394531 -57.75 C 61.507812 -62.898438 61.507812 -71.390625 60.394531 -76.398438 L 28.804688 -76.398438 C 17.8125 -76.398438 11.828125 -75.5625 5.566406 -73.753906 C 6.539062 -47.035156 6.957031 -22.265625 6.957031 0.554688 Z M 6.957031 0.554688 "/></g></g></g><g fill="#fa2baa" fill-opacity="0.502"><g transform="translate(111.641611, 235.800269)"><g><path d="M 6.957031 0 L 61.089844 0 C 62.203125 -5.007812 62.203125 -13.5 61.089844 -18.648438 L 28.386719 -18.648438 L 28.386719 -76.953125 C 21.011719 -77.511719 12.523438 -76.398438 5.566406 -73.894531 C 6.539062 -47.035156 6.957031 -22.265625 6.957031 0 Z M 6.957031 0 "/></g></g></g><g fill="#fa2baa" fill-opacity="0.502"><g transform="translate(192.351215, 235.800269)"><g><path d="M 38.40625 2.085938 C 59.976562 2.085938 72.640625 -9.742188 72.640625 -29.917969 L 72.640625 -76.953125 C 65.265625 -77.511719 56.777344 -76.398438 49.820312 -73.894531 C 50.652344 -54.132812 51.210938 -37.433594 50.933594 -28.527344 C 50.652344 -20.179688 47.3125 -16.421875 40.21875 -16.421875 C 32.144531 -16.421875 28.386719 -20.179688 28.386719 -28.527344 L 28.386719 -76.953125 C 21.011719 -77.511719 12.523438 -76.398438 5.566406 -73.894531 C 6.261719 -54.132812 6.679688 -37.433594 6.820312 -27.136719 C 7.097656 -6.957031 17.953125 2.085938 38.40625 2.085938 Z M 38.40625 2.085938 "/></g></g></g><g fill="#ffffff" fill-opacity="1"><g transform="translate(24.503425, 229.65)"><g><path d="M 6.957031 0.554688 C 16.558594 1.949219 25.1875 0.835938 28.386719 -0.554688 L 28.386719 -27.554688 L 56.777344 -27.554688 C 57.890625 -32.703125 57.890625 -41.191406 56.777344 -46.199219 L 28.386719 -46.199219 L 28.386719 -57.75 L 60.394531 -57.75 C 61.507812 -62.898438 61.507812 -71.390625 60.394531 -76.398438 L 28.804688 -76.398438 C 17.8125 -76.398438 11.828125 -75.5625 5.566406 -73.753906 C 6.539062 -47.035156 6.957031 -22.265625 6.957031 0.554688 Z M 6.957031 0.554688 "/></g></g></g><g fill="#ffffff" fill-opacity="1"><g transform="translate(105.491332, 229.65)"><g><path d="M 6.957031 0 L 61.089844 0 C 62.203125 -5.007812 62.203125 -13.5 61.089844 -18.648438 L 28.386719 -18.648438 L 28.386719 -76.953125 C 21.011719 -77.511719 12.523438 -76.398438 5.566406 -73.894531 C 6.539062 -47.035156 6.957031 -22.265625 6.957031 0 Z M 6.957031 0 "/></g></g></g><g fill="#ffffff" fill-opacity="1"><g transform="translate(186.200937, 229.65)"><g><path d="M 38.40625 2.085938 C 59.976562 2.085938 72.640625 -9.742188 72.640625 -29.917969 L 72.640625 -76.953125 C 65.265625 -77.511719 56.777344 -76.398438 49.820312 -73.894531 C 50.652344 -54.132812 51.210938 -37.433594 50.933594 -28.527344 C 50.652344 -20.179688 47.3125 -16.421875 40.21875 -16.421875 C 32.144531 -16.421875 28.386719 -20.179688 28.386719 -28.527344 L 28.386719 -76.953125 C 21.011719 -77.511719 12.523438 -76.398438 5.566406 -73.894531 C 6.261719 -54.132812 6.679688 -37.433594 6.820312 -27.136719 C 7.097656 -6.957031 17.953125 2.085938 38.40625 2.085938 Z M 38.40625 2.085938 "/></g></g></g><g mask="url(#23f1eafcce)"><g transform="matrix(1, 0, 0, 1, 275, 109)"><g clip-path="url(#9e9d952411)"><g clip-path="url(#d0c686b2e0)"><path fill="#ff66c4" d="M 38.871094 20.125 C 38.871094 19.484375 38.902344 18.84375 38.964844 18.203125 C 39.027344 17.566406 39.125 16.929688 39.25 16.300781 C 39.375 15.671875 39.527344 15.050781 39.714844 14.433594 C 39.902344 13.820312 40.117188 13.21875 40.363281 12.625 C 40.609375 12.03125 40.882812 11.449219 41.183594 10.886719 C 41.488281 10.320312 41.816406 9.769531 42.171875 9.234375 C 42.527344 8.703125 42.910156 8.1875 43.316406 7.691406 C 43.722656 7.195312 44.152344 6.71875 44.609375 6.265625 C 45.0625 5.8125 45.535156 5.378906 46.03125 4.972656 C 46.527344 4.566406 47.042969 4.183594 47.574219 3.828125 C 48.109375 3.46875 48.65625 3.140625 49.222656 2.839844 C 49.789062 2.535156 50.367188 2.261719 50.960938 2.015625 C 51.554688 1.769531 52.15625 1.554688 52.769531 1.367188 C 53.382812 1.179688 54.003906 1.027344 54.632812 0.902344 C 55.261719 0.773438 55.894531 0.679688 56.535156 0.617188 C 57.171875 0.554688 57.8125 0.523438 58.453125 0.523438 C 59.09375 0.523438 59.734375 0.554688 60.375 0.617188 C 61.011719 0.679688 61.644531 0.773438 62.273438 0.902344 C 62.902344 1.027344 63.523438 1.179688 64.136719 1.367188 C 64.753906 1.554688 65.355469 1.769531 65.949219 2.015625 C 66.539062 2.261719 67.121094 2.535156 67.683594 2.839844 C 68.25 3.140625 68.800781 3.46875 69.332031 3.828125 C 69.867188 4.183594 70.382812 4.566406 70.875 4.972656 C 71.371094 5.378906 71.847656 5.8125 72.300781 6.265625 C 72.753906 6.71875 73.183594 7.195312 73.589844 7.691406 C 73.996094 8.1875 74.378906 8.703125 74.734375 9.234375 C 75.09375 9.769531 75.421875 10.320312 75.722656 10.886719 C 76.027344 11.449219 76.300781 12.03125 76.546875 12.625 C 76.789062 13.21875 77.007812 13.820312 77.191406 14.433594 C 77.378906 15.050781 77.535156 15.671875 77.660156 16.300781 C 77.785156 16.929688 77.878906 17.566406 77.941406 18.203125 C 78.003906 18.84375 78.035156 19.484375 78.035156 20.125 C 78.035156 20.765625 78.003906 21.40625 77.941406 22.046875 C 77.878906 22.683594 77.785156 23.320312 77.660156 23.949219 C 77.535156 24.578125 77.378906 25.199219 77.191406 25.816406 C 77.007812 26.429688 76.789062 27.03125 76.546875 27.625 C 76.300781 28.21875 76.027344 28.796875 75.722656 29.363281 C 75.421875 29.929688 75.09375 30.480469 74.734375 31.015625 C 74.378906 31.546875 73.996094 32.0625 73.589844 32.558594 C 73.183594 33.054688 72.753906 33.53125 72.300781 33.984375 C 71.847656 34.4375 71.371094 34.867188 70.875 35.277344 C 70.382812 35.683594 69.867188 36.066406 69.332031 36.421875 C 68.800781 36.777344 68.25 37.109375 67.683594 37.410156 C 67.121094 37.714844 66.539062 37.988281 65.949219 38.234375 C 65.355469 38.480469 64.753906 38.695312 64.136719 38.882812 C 63.523438 39.066406 62.902344 39.222656 62.273438 39.347656 C 61.644531 39.472656 61.011719 39.566406 60.375 39.632812 C 59.734375 39.695312 59.09375 39.726562 58.453125 39.726562 C 57.8125 39.726562 57.171875 39.691406 56.535156 39.628906 C 55.898438 39.566406 55.265625 39.472656 54.636719 39.34375 C 54.007812 39.21875 53.386719 39.0625 52.773438 38.875 C 52.160156 38.691406 51.554688 38.472656 50.964844 38.226562 C 50.371094 37.980469 49.792969 37.707031 49.226562 37.40625 C 48.664062 37.101562 48.113281 36.773438 47.578125 36.414062 C 47.046875 36.058594 46.53125 35.675781 46.039062 35.269531 C 45.542969 34.863281 45.066406 34.433594 44.613281 33.976562 C 44.160156 33.523438 43.730469 33.050781 43.324219 32.554688 C 42.917969 32.058594 42.535156 31.542969 42.179688 31.007812 C 41.824219 30.476562 41.492188 29.925781 41.191406 29.359375 C 40.886719 28.792969 40.613281 28.214844 40.367188 27.621094 C 40.121094 27.03125 39.90625 26.425781 39.71875 25.8125 C 39.535156 25.199219 39.378906 24.578125 39.253906 23.945312 C 39.125 23.316406 39.03125 22.683594 38.96875 22.046875 C 38.90625 21.40625 38.871094 20.765625 38.871094 20.125 Z M 113.621094 17.207031 C 110.183594 14.105469 104.808594 14.367188 101.390625 17.789062 L 74.964844 44.242188 L 41.949219 44.085938 L 15.257812 17.527344 C 14.851562 17.128906 14.414062 16.777344 13.9375 16.464844 C 13.464844 16.152344 12.964844 15.890625 12.4375 15.675781 C 11.914062 15.460938 11.371094 15.300781 10.8125 15.195312 C 10.257812 15.085938 9.695312 15.035156 9.128906 15.035156 C 8.558594 15.039062 8 15.09375 7.441406 15.207031 C 6.886719 15.320312 6.347656 15.484375 5.820312 15.703125 C 5.296875 15.921875 4.800781 16.1875 4.328125 16.503906 C 3.855469 16.820312 3.417969 17.175781 3.019531 17.578125 C 2.617188 17.980469 2.257812 18.414062 1.941406 18.886719 C 1.625 19.359375 1.355469 19.855469 1.136719 20.378906 C 0.917969 20.902344 0.75 21.441406 0.636719 22 C 0.523438 22.554688 0.464844 23.117188 0.460938 23.6875 C 0.457031 24.253906 0.507812 24.816406 0.613281 25.375 C 0.71875 25.933594 0.878906 26.476562 1.089844 27.003906 C 1.300781 27.527344 1.5625 28.03125 1.875 28.503906 C 2.183594 28.980469 2.535156 29.421875 2.933594 29.828125 L 38.871094 66.644531 L 38.871094 126.839844 C 38.871094 127.410156 38.929688 127.976562 39.039062 128.539062 C 39.152344 129.101562 39.316406 129.644531 39.535156 130.171875 C 39.753906 130.703125 40.019531 131.203125 40.339844 131.679688 C 40.65625 132.15625 41.015625 132.59375 41.421875 133 C 41.824219 133.402344 42.265625 133.765625 42.738281 134.082031 C 43.214844 134.402344 43.714844 134.667969 44.246094 134.886719 C 44.773438 135.105469 45.316406 135.273438 45.878906 135.382812 C 46.4375 135.496094 47.003906 135.550781 47.574219 135.550781 C 48.148438 135.550781 48.710938 135.496094 49.273438 135.382812 C 49.832031 135.273438 50.378906 135.105469 50.90625 134.886719 C 51.433594 134.667969 51.933594 134.402344 52.410156 134.082031 C 52.886719 133.765625 53.324219 133.402344 53.730469 133 C 54.132812 132.59375 54.492188 132.15625 54.8125 131.679688 C 55.128906 131.203125 55.398438 130.703125 55.617188 130.171875 C 55.835938 129.644531 56 129.101562 56.109375 128.539062 C 56.222656 127.976562 56.277344 127.410156 56.277344 126.839844 L 56.148438 91.992188 L 60.628906 91.863281 L 60.628906 126.839844 C 60.628906 127.410156 60.683594 127.976562 60.796875 128.539062 C 60.910156 129.101562 61.074219 129.644531 61.292969 130.171875 C 61.511719 130.703125 61.777344 131.203125 62.097656 131.679688 C 62.414062 132.15625 62.773438 132.59375 63.179688 133 C 63.582031 133.402344 64.023438 133.765625 64.496094 134.082031 C 64.972656 134.402344 65.472656 134.667969 66.003906 134.886719 C 66.53125 135.105469 67.074219 135.273438 67.636719 135.382812 C 68.195312 135.496094 68.761719 135.550781 69.332031 135.550781 C 69.902344 135.550781 70.46875 135.496094 71.03125 135.382812 C 71.589844 135.273438 72.136719 135.105469 72.664062 134.886719 C 73.191406 134.667969 73.691406 134.402344 74.167969 134.082031 C 74.644531 133.765625 75.082031 133.402344 75.488281 133 C 75.890625 132.59375 76.25 132.15625 76.570312 131.679688 C 76.886719 131.203125 77.15625 130.703125 77.375 130.171875 C 77.59375 129.644531 77.757812 129.101562 77.867188 128.539062 C 77.980469 127.976562 78.035156 127.410156 78.035156 126.839844 L 78.035156 66.644531 L 113.960938 29.847656 C 114.800781 29 115.445312 28.023438 115.886719 26.914062 C 116.328125 25.804688 116.535156 24.652344 116.503906 23.457031 C 116.476562 22.261719 116.214844 21.121094 115.710938 20.035156 C 115.210938 18.945312 114.515625 18.003906 113.621094 17.207031 Z M 113.621094 17.207031 " fill-opacity="1" fill-rule="nonzero"/></g></g></g></g><g mask="url(#948d613114)"><g transform="matrix(1, 0, 0, 1, 269, 103)"><g clip-path="url(#f9d80f3bbe)"><g clip-path="url(#440e62709b)"><path fill="#f621a4" d="M 39.203125 20.457031 C 39.203125 19.8125 39.234375 19.171875 39.296875 18.535156 C 39.359375 17.894531 39.453125 17.261719 39.578125 16.632812 C 39.703125 16 39.859375 15.378906 40.046875 14.765625 C 40.230469 14.152344 40.449219 13.546875 40.695312 12.953125 C 40.9375 12.363281 41.210938 11.78125 41.515625 11.214844 C 41.816406 10.648438 42.148438 10.097656 42.503906 9.566406 C 42.859375 9.03125 43.242188 8.515625 43.648438 8.019531 C 44.054688 7.523438 44.484375 7.050781 44.9375 6.59375 C 45.390625 6.140625 45.867188 5.710938 46.363281 5.304688 C 46.859375 4.898438 47.371094 4.515625 47.90625 4.15625 C 48.4375 3.800781 48.988281 3.472656 49.554688 3.167969 C 50.121094 2.867188 50.699219 2.59375 51.292969 2.347656 C 51.882812 2.101562 52.488281 1.886719 53.101562 1.699219 C 53.714844 1.511719 54.335938 1.355469 54.964844 1.230469 C 55.59375 1.105469 56.226562 1.011719 56.867188 0.949219 C 57.503906 0.886719 58.144531 0.855469 58.785156 0.855469 C 59.425781 0.855469 60.066406 0.886719 60.703125 0.949219 C 61.34375 1.011719 61.976562 1.105469 62.605469 1.230469 C 63.234375 1.355469 63.855469 1.511719 64.46875 1.699219 C 65.082031 1.886719 65.6875 2.101562 66.277344 2.347656 C 66.871094 2.59375 67.449219 2.867188 68.015625 3.167969 C 68.582031 3.472656 69.128906 3.800781 69.664062 4.15625 C 70.195312 4.515625 70.710938 4.898438 71.207031 5.304688 C 71.703125 5.710938 72.175781 6.140625 72.632812 6.59375 C 73.085938 7.050781 73.515625 7.523438 73.921875 8.019531 C 74.328125 8.515625 74.710938 9.03125 75.066406 9.566406 C 75.421875 10.097656 75.753906 10.648438 76.054688 11.214844 C 76.355469 11.78125 76.628906 12.363281 76.875 12.953125 C 77.121094 13.546875 77.335938 14.152344 77.523438 14.765625 C 77.710938 15.378906 77.863281 16 77.992188 16.632812 C 78.117188 17.261719 78.210938 17.894531 78.273438 18.535156 C 78.335938 19.171875 78.367188 19.8125 78.367188 20.457031 C 78.367188 21.097656 78.335938 21.738281 78.273438 22.375 C 78.210938 23.015625 78.117188 23.648438 77.992188 24.277344 C 77.863281 24.910156 77.710938 25.53125 77.523438 26.144531 C 77.335938 26.757812 77.121094 27.363281 76.875 27.957031 C 76.628906 28.550781 76.355469 29.128906 76.054688 29.695312 C 75.753906 30.261719 75.421875 30.8125 75.066406 31.34375 C 74.710938 31.878906 74.328125 32.394531 73.921875 32.890625 C 73.515625 33.386719 73.085938 33.859375 72.632812 34.316406 C 72.175781 34.769531 71.703125 35.199219 71.207031 35.605469 C 70.710938 36.015625 70.195312 36.394531 69.664062 36.753906 C 69.128906 37.109375 68.582031 37.4375 68.015625 37.742188 C 67.449219 38.042969 66.871094 38.320312 66.277344 38.5625 C 65.6875 38.808594 65.082031 39.027344 64.46875 39.210938 C 63.855469 39.398438 63.234375 39.554688 62.605469 39.679688 C 61.976562 39.804688 61.34375 39.898438 60.703125 39.960938 C 60.066406 40.023438 59.425781 40.054688 58.785156 40.054688 C 58.144531 40.054688 57.503906 40.023438 56.867188 39.960938 C 56.226562 39.894531 55.59375 39.800781 54.964844 39.675781 C 54.335938 39.550781 53.714844 39.394531 53.101562 39.207031 C 52.488281 39.019531 51.886719 38.804688 51.292969 38.558594 C 50.703125 38.3125 50.125 38.039062 49.558594 37.734375 C 48.992188 37.433594 48.445312 37.101562 47.910156 36.746094 C 47.378906 36.390625 46.863281 36.007812 46.367188 35.601562 C 45.871094 35.191406 45.398438 34.761719 44.945312 34.308594 C 44.492188 33.855469 44.0625 33.378906 43.65625 32.882812 C 43.246094 32.386719 42.867188 31.875 42.507812 31.339844 C 42.152344 30.804688 41.824219 30.257812 41.519531 29.691406 C 41.21875 29.125 40.945312 28.546875 40.699219 27.953125 C 40.453125 27.359375 40.238281 26.757812 40.050781 26.144531 C 39.863281 25.527344 39.707031 24.90625 39.582031 24.277344 C 39.457031 23.648438 39.363281 23.015625 39.300781 22.375 C 39.234375 21.738281 39.203125 21.097656 39.203125 20.457031 Z M 113.953125 17.539062 C 110.511719 14.433594 105.140625 14.695312 101.71875 18.121094 L 75.292969 44.570312 L 42.28125 44.417969 L 15.589844 17.859375 C 15.183594 17.460938 14.742188 17.105469 14.269531 16.792969 C 13.792969 16.484375 13.292969 16.21875 12.769531 16.007812 C 12.242188 15.792969 11.703125 15.632812 11.144531 15.523438 C 10.585938 15.417969 10.027344 15.363281 9.457031 15.367188 C 8.890625 15.367188 8.328125 15.425781 7.773438 15.539062 C 7.214844 15.652344 6.675781 15.816406 6.152344 16.035156 C 5.628906 16.25 5.128906 16.519531 4.660156 16.835938 C 4.1875 17.148438 3.75 17.507812 3.347656 17.910156 C 2.945312 18.308594 2.585938 18.746094 2.269531 19.21875 C 1.953125 19.6875 1.6875 20.1875 1.46875 20.710938 C 1.246094 21.234375 1.082031 21.773438 0.96875 22.332031 C 0.855469 22.886719 0.792969 23.449219 0.789062 24.015625 C 0.785156 24.585938 0.839844 25.148438 0.945312 25.707031 C 1.050781 26.261719 1.210938 26.804688 1.421875 27.332031 C 1.632812 27.859375 1.894531 28.359375 2.203125 28.835938 C 2.515625 29.3125 2.867188 29.753906 3.261719 30.160156 L 39.203125 66.976562 L 39.203125 127.171875 C 39.203125 127.742188 39.257812 128.308594 39.371094 128.871094 C 39.480469 129.429688 39.648438 129.976562 39.867188 130.503906 C 40.082031 131.03125 40.351562 131.535156 40.667969 132.011719 C 40.988281 132.484375 41.347656 132.925781 41.75 133.332031 C 42.15625 133.734375 42.59375 134.097656 43.070312 134.414062 C 43.546875 134.730469 44.046875 135 44.574219 135.21875 C 45.101562 135.4375 45.648438 135.601562 46.207031 135.714844 C 46.769531 135.824219 47.335938 135.882812 47.90625 135.882812 C 48.476562 135.882812 49.042969 135.824219 49.605469 135.714844 C 50.164062 135.601562 50.707031 135.4375 51.238281 135.21875 C 51.765625 135 52.265625 134.730469 52.742188 134.414062 C 53.214844 134.097656 53.65625 133.734375 54.058594 133.332031 C 54.464844 132.925781 54.824219 132.484375 55.140625 132.011719 C 55.460938 131.535156 55.726562 131.03125 55.945312 130.503906 C 56.164062 129.976562 56.332031 129.429688 56.441406 128.871094 C 56.554688 128.308594 56.609375 127.742188 56.609375 127.171875 L 56.476562 92.324219 L 60.960938 92.191406 L 60.960938 127.171875 C 60.960938 127.742188 61.015625 128.308594 61.128906 128.871094 C 61.238281 129.429688 61.402344 129.976562 61.621094 130.503906 C 61.839844 131.03125 62.109375 131.535156 62.425781 132.011719 C 62.746094 132.484375 63.105469 132.925781 63.507812 133.332031 C 63.914062 133.734375 64.351562 134.097656 64.828125 134.414062 C 65.304688 134.730469 65.804688 135 66.332031 135.21875 C 66.859375 135.4375 67.40625 135.601562 67.964844 135.714844 C 68.527344 135.824219 69.09375 135.882812 69.664062 135.882812 C 70.234375 135.882812 70.800781 135.824219 71.363281 135.714844 C 71.921875 135.601562 72.464844 135.4375 72.992188 135.21875 C 73.523438 135 74.023438 134.730469 74.5 134.414062 C 74.972656 134.097656 75.414062 133.734375 75.816406 133.332031 C 76.222656 132.925781 76.582031 132.484375 76.898438 132.011719 C 77.21875 131.535156 77.484375 131.03125 77.703125 130.503906 C 77.921875 129.976562 78.089844 129.429688 78.199219 128.871094 C 78.3125 128.308594 78.367188 127.742188 78.367188 127.171875 L 78.367188 66.976562 L 114.289062 30.179688 C 115.132812 29.332031 115.773438 28.355469 116.214844 27.246094 C 116.660156 26.136719 116.863281 24.984375 116.835938 23.789062 C 116.808594 22.59375 116.542969 21.449219 116.042969 20.363281 C 115.542969 19.277344 114.84375 18.335938 113.953125 17.539062 Z M 113.953125 17.539062 " fill-opacity="1" fill-rule="nonzero"/></g></g></g></g><g clip-path="url(#72cf8e6876)"><path fill="#ffec43" d="M 300.472656 123.457031 C 300.472656 122.8125 300.503906 122.171875 300.566406 121.535156 C 300.628906 120.894531 300.722656 120.261719 300.847656 119.632812 C 300.972656 119 301.128906 118.378906 301.316406 117.765625 C 301.5 117.152344 301.714844 116.546875 301.960938 115.953125 C 302.207031 115.363281 302.480469 114.78125 302.785156 114.214844 C 303.085938 113.648438 303.414062 113.097656 303.769531 112.566406 C 304.128906 112.03125 304.507812 111.515625 304.917969 111.019531 C 305.324219 110.523438 305.753906 110.050781 306.207031 109.59375 C 306.660156 109.140625 307.136719 108.710938 307.628906 108.304688 C 308.125 107.898438 308.640625 107.515625 309.175781 107.15625 C 309.707031 106.800781 310.257812 106.472656 310.824219 106.167969 C 311.386719 105.867188 311.96875 105.59375 312.558594 105.347656 C 313.152344 105.101562 313.753906 104.886719 314.367188 104.699219 C 314.984375 104.511719 315.605469 104.355469 316.234375 104.230469 C 316.863281 104.105469 317.496094 104.011719 318.132812 103.949219 C 318.773438 103.886719 319.410156 103.855469 320.054688 103.855469 C 320.695312 103.855469 321.335938 103.886719 321.972656 103.949219 C 322.609375 104.011719 323.246094 104.105469 323.875 104.230469 C 324.503906 104.355469 325.125 104.511719 325.738281 104.699219 C 326.351562 104.886719 326.953125 105.101562 327.546875 105.347656 C 328.140625 105.59375 328.71875 105.867188 329.285156 106.167969 C 329.851562 106.472656 330.398438 106.800781 330.933594 107.15625 C 331.464844 107.515625 331.980469 107.898438 332.476562 108.304688 C 332.972656 108.710938 333.445312 109.140625 333.898438 109.59375 C 334.351562 110.050781 334.785156 110.523438 335.191406 111.019531 C 335.597656 111.515625 335.980469 112.03125 336.335938 112.566406 C 336.691406 113.097656 337.019531 113.648438 337.324219 114.214844 C 337.625 114.78125 337.898438 115.363281 338.144531 115.953125 C 338.390625 116.546875 338.605469 117.152344 338.792969 117.765625 C 338.976562 118.378906 339.132812 119 339.257812 119.632812 C 339.382812 120.261719 339.476562 120.894531 339.539062 121.535156 C 339.605469 122.171875 339.636719 122.8125 339.636719 123.457031 C 339.636719 124.097656 339.605469 124.738281 339.539062 125.375 C 339.476562 126.015625 339.382812 126.648438 339.257812 127.277344 C 339.132812 127.910156 338.976562 128.53125 338.792969 129.144531 C 338.605469 129.757812 338.390625 130.363281 338.144531 130.957031 C 337.898438 131.550781 337.625 132.128906 337.324219 132.695312 C 337.019531 133.261719 336.691406 133.8125 336.335938 134.34375 C 335.980469 134.878906 335.597656 135.394531 335.191406 135.890625 C 334.785156 136.386719 334.351562 136.859375 333.898438 137.316406 C 333.445312 137.769531 332.972656 138.199219 332.476562 138.605469 C 331.980469 139.015625 331.464844 139.394531 330.933594 139.753906 C 330.398438 140.109375 329.851562 140.4375 329.285156 140.742188 C 328.71875 141.042969 328.140625 141.320312 327.546875 141.5625 C 326.953125 141.808594 326.351562 142.027344 325.738281 142.210938 C 325.125 142.398438 324.503906 142.554688 323.875 142.679688 C 323.246094 142.804688 322.609375 142.898438 321.972656 142.960938 C 321.335938 143.023438 320.695312 143.054688 320.054688 143.054688 C 319.410156 143.054688 318.773438 143.023438 318.132812 142.960938 C 317.496094 142.894531 316.863281 142.800781 316.234375 142.675781 C 315.605469 142.550781 314.984375 142.394531 314.371094 142.207031 C 313.757812 142.019531 313.15625 141.804688 312.5625 141.558594 C 311.972656 141.3125 311.390625 141.039062 310.828125 140.734375 C 310.261719 140.433594 309.710938 140.101562 309.179688 139.746094 C 308.644531 139.390625 308.132812 139.007812 307.636719 138.601562 C 307.140625 138.191406 306.667969 137.761719 306.214844 137.308594 C 305.761719 136.855469 305.328125 136.378906 304.921875 135.882812 C 304.515625 135.386719 304.132812 134.875 303.777344 134.339844 C 303.421875 133.804688 303.09375 133.257812 302.789062 132.691406 C 302.488281 132.125 302.214844 131.546875 301.96875 130.953125 C 301.722656 130.359375 301.507812 129.757812 301.320312 129.144531 C 301.132812 128.527344 300.976562 127.90625 300.851562 127.277344 C 300.726562 126.648438 300.632812 126.015625 300.566406 125.375 C 300.503906 124.738281 300.472656 124.097656 300.472656 123.457031 Z M 375.222656 120.539062 C 371.78125 117.433594 366.40625 117.695312 362.988281 121.121094 L 336.5625 147.570312 L 303.546875 147.417969 L 276.855469 120.859375 C 276.453125 120.460938 276.011719 120.105469 275.539062 119.792969 C 275.0625 119.484375 274.5625 119.21875 274.039062 119.007812 C 273.511719 118.792969 272.96875 118.632812 272.414062 118.523438 C 271.855469 118.417969 271.292969 118.363281 270.726562 118.367188 C 270.160156 118.367188 269.597656 118.425781 269.042969 118.539062 C 268.484375 118.652344 267.945312 118.816406 267.421875 119.035156 C 266.898438 119.25 266.398438 119.519531 265.925781 119.835938 C 265.457031 120.148438 265.019531 120.507812 264.617188 120.910156 C 264.214844 121.308594 263.855469 121.746094 263.539062 122.21875 C 263.222656 122.6875 262.957031 123.1875 262.734375 123.710938 C 262.515625 124.234375 262.351562 124.773438 262.234375 125.332031 C 262.121094 125.886719 262.0625 126.449219 262.058594 127.015625 C 262.054688 127.585938 262.105469 128.148438 262.210938 128.707031 C 262.320312 129.261719 262.476562 129.804688 262.691406 130.332031 C 262.902344 130.859375 263.164062 131.359375 263.472656 131.835938 C 263.78125 132.3125 264.136719 132.753906 264.53125 133.160156 L 300.472656 169.976562 L 300.472656 230.171875 C 300.472656 230.742188 300.527344 231.308594 300.636719 231.871094 C 300.75 232.429688 300.914062 232.976562 301.132812 233.503906 C 301.351562 234.03125 301.621094 234.535156 301.9375 235.011719 C 302.253906 235.484375 302.617188 235.925781 303.019531 236.332031 C 303.425781 236.734375 303.863281 237.097656 304.339844 237.414062 C 304.8125 237.730469 305.316406 238 305.84375 238.21875 C 306.371094 238.4375 306.914062 238.601562 307.476562 238.714844 C 308.035156 238.824219 308.601562 238.882812 309.175781 238.882812 C 309.746094 238.882812 310.3125 238.824219 310.871094 238.714844 C 311.433594 238.601562 311.976562 238.4375 312.503906 238.21875 C 313.03125 238 313.535156 237.730469 314.007812 237.414062 C 314.484375 237.097656 314.925781 236.734375 315.328125 236.332031 C 315.734375 235.925781 316.09375 235.484375 316.410156 235.011719 C 316.726562 234.535156 316.996094 234.03125 317.214844 233.503906 C 317.433594 232.976562 317.597656 232.429688 317.710938 231.871094 C 317.820312 231.308594 317.878906 230.742188 317.878906 230.171875 L 317.746094 195.324219 L 322.230469 195.191406 L 322.230469 230.171875 C 322.230469 230.742188 322.285156 231.308594 322.394531 231.871094 C 322.507812 232.429688 322.671875 232.976562 322.890625 233.503906 C 323.109375 234.03125 323.378906 234.535156 323.695312 235.011719 C 324.011719 235.484375 324.375 235.925781 324.777344 236.332031 C 325.183594 236.734375 325.621094 237.097656 326.097656 237.414062 C 326.570312 237.730469 327.074219 238 327.601562 238.21875 C 328.128906 238.4375 328.671875 238.601562 329.234375 238.714844 C 329.792969 238.824219 330.359375 238.882812 330.933594 238.882812 C 331.503906 238.882812 332.070312 238.824219 332.628906 238.714844 C 333.191406 238.601562 333.734375 238.4375 334.261719 238.21875 C 334.789062 238 335.292969 237.730469 335.765625 237.414062 C 336.242188 237.097656 336.683594 236.734375 337.085938 236.332031 C 337.488281 235.925781 337.851562 235.484375 338.167969 235.011719 C 338.484375 234.535156 338.753906 234.03125 338.972656 233.503906 C 339.191406 232.976562 339.355469 232.429688 339.46875 231.871094 C 339.578125 231.308594 339.636719 230.742188 339.636719 230.171875 L 339.636719 169.976562 L 375.558594 133.179688 C 376.402344 132.332031 377.042969 131.355469 377.484375 130.246094 C 377.925781 129.136719 378.132812 127.984375 378.105469 126.789062 C 378.078125 125.59375 377.8125 124.449219 377.3125 123.363281 C 376.808594 122.277344 376.113281 121.335938 375.222656 120.539062 Z M 375.222656 120.539062 " fill-opacity="1" fill-rule="nonzero"/></g></svg>