<svg xmlns="http://www.w3.org/2000/svg" xmlns:xlink="http://www.w3.org/1999/xlink" width="400" zoomAndPan="magnify" viewBox="0 0 300 374.999991" height="500" preserveAspectRatio="xMidYMid meet" version="1.0"><path fill="#e2a8e1" d="M 265.640625 267.046875 L 250.160156 244.949219 C 249.519531 244.03125 248.46875 243.484375 247.34375 243.484375 L 54.519531 243.484375 C 53.394531 243.484375 52.34375 244.03125 51.703125 244.949219 L 35.835938 267.59375 C 35.097656 268.644531 35.003906 270.019531 35.597656 271.164062 C 36.1875 272.304688 37.367188 273.019531 38.652344 273.019531 L 263.210938 273.019531 C 263.242188 273.015625 263.269531 273.019531 263.300781 273.019531 C 265.203125 273.019531 266.742188 271.476562 266.742188 269.574219 C 266.738281 268.574219 266.316406 267.671875 265.640625 267.046875 Z M 45.265625 266.121094 L 56.308594 250.367188 L 245.550781 250.367188 L 256.585938 266.121094 Z M 45.265625 266.121094 " fill-opacity="1" fill-rule="nonzero"/><path fill="#e2a8e1" d="M 297.019531 284.964844 C 296.84375 284.273438 296.535156 283.640625 296.019531 283.1875 L 258.0625 232.996094 L 258.0625 155.320312 C 269.425781 154.949219 278.570312 145.632812 278.570312 134.171875 L 278.570312 128.875 C 278.707031 127.867188 278.574219 127.046875 277.839844 126.1875 L 258.058594 88.796875 C 258.058594 78.691406 259.324219 70.816406 250.96875 65.152344 C 248.398438 63.417969 245.308594 62.398438 241.984375 62.398438 C 239.4375 62.398438 59.128906 62.214844 56.628906 62.726562 C 50.359375 64.015625 45.410156 68.976562 44.125 75.253906 C 43.625 77.699219 43.792969 86.207031 43.792969 88.785156 C 22.816406 128.445312 23.65625 126.921875 23.65625 126.921875 C 23.078125 128.109375 23.285156 132.8125 23.285156 134.167969 C 23.285156 145.632812 32.429688 154.949219 43.792969 155.3125 L 43.792969 232.984375 L 5.441406 283.699219 C 5.332031 283.847656 5.261719 284.011719 5.179688 284.171875 C 5.125 284.273438 5.050781 284.351562 5.003906 284.457031 C 4.996094 284.476562 4.992188 284.5 4.980469 284.523438 C 4.972656 284.542969 4.96875 284.558594 4.964844 284.578125 C -0.21875 297.265625 4.878906 313.46875 18.582031 313.46875 L 283.257812 313.46875 C 288.339844 313.46875 292.683594 311.144531 295.496094 306.921875 C 299.347656 301.164062 299.921875 292.40625 297.019531 284.964844 Z M 62.214844 145.683594 C 70.605469 158.609375 89.308594 158.609375 97.703125 145.683594 C 106.097656 158.609375 124.792969 158.609375 133.1875 145.683594 C 141.578125 158.609375 160.28125 158.609375 168.675781 145.683594 C 177.070312 158.609375 195.769531 158.609375 204.160156 145.683594 C 212.554688 158.609375 231.253906 158.609375 239.648438 145.683594 C 242.320312 149.804688 246.402344 152.867188 251.1875 154.34375 L 251.1875 230.640625 L 50.679688 230.640625 L 50.679688 154.347656 C 55.464844 152.867188 59.535156 149.804688 62.214844 145.683594 Z M 50.867188 76.644531 C 51.605469 73.054688 54.429688 70.21875 58.015625 69.476562 C 58.609375 69.351562 59.230469 69.289062 59.859375 69.289062 C 256.601562 69.289062 245.71875 67.601562 249.605469 73.34375 C 250.597656 74.808594 251.175781 76.578125 251.175781 78.480469 L 251.175781 86.1875 L 136.121094 86.1875 C 114.710938 86.1875 98.351562 86.1875 76.867188 86.1875 L 50.683594 86.1875 C 50.683594 84.644531 50.578125 78.0625 50.867188 76.644531 Z M 136.625 131.863281 L 165.230469 131.863281 C 165.230469 154.371094 136.625 153.894531 136.625 131.863281 Z M 101.140625 131.863281 L 129.746094 131.863281 C 129.742188 154.371094 101.140625 153.894531 101.140625 131.863281 Z M 79.242188 93.078125 L 102.183594 93.078125 L 100.886719 98.792969 L 94.953125 124.972656 L 67.195312 124.972656 Z M 222.609375 93.078125 L 234.660156 124.972656 L 206.902344 124.972656 L 200.1875 95.347656 L 199.675781 93.078125 Z M 192.621094 93.078125 C 195.058594 103.847656 197.464844 114.457031 199.847656 124.972656 L 171.863281 124.972656 C 171.410156 118.980469 170.070312 101.234375 169.453125 93.078125 Z M 162.550781 93.078125 C 162.757812 95.839844 164.734375 121.972656 164.957031 124.972656 L 136.894531 124.972656 C 137.070312 122.65625 139.03125 96.660156 139.304688 93.078125 Z M 132.332031 94.050781 L 129.996094 124.972656 L 102.007812 124.972656 C 104.394531 114.449219 106.792969 103.851562 109.238281 93.078125 L 132.402344 93.078125 Z M 172.109375 131.863281 L 200.714844 131.863281 C 200.714844 153.980469 172.109375 154.277344 172.109375 131.863281 Z M 207.597656 131.863281 L 236.203125 131.863281 C 236.203125 153.980469 207.597656 154.277344 207.597656 131.863281 Z M 65.65625 131.863281 L 94.261719 131.863281 C 94.261719 153.980469 65.65625 154.277344 65.65625 131.863281 Z M 243.082031 131.863281 L 271.6875 131.863281 C 271.6875 154.070312 243.082031 154.074219 243.082031 131.863281 Z M 242.019531 124.972656 L 229.96875 93.078125 L 252.542969 93.078125 L 269.410156 124.972656 Z M 49.3125 93.078125 L 71.878906 93.078125 L 59.835938 124.972656 L 32.445312 124.972656 Z M 30.167969 131.863281 L 58.773438 131.863281 L 58.773438 134.167969 C 58.773438 152.066406 30.167969 155.148438 30.167969 131.863281 Z M 48.984375 237.539062 L 252.867188 237.539062 L 286.742188 282.335938 L 15.109375 282.335938 Z M 289.785156 303.101562 C 288.246094 305.410156 286.054688 306.582031 283.265625 306.582031 L 18.589844 306.582031 C 10.746094 306.582031 8.484375 296.789062 10.632812 289.230469 L 291.226562 289.230469 C 292.625 294.160156 292.105469 299.613281 289.785156 303.101562 Z M 289.785156 303.101562 " fill-opacity="1" fill-rule="nonzero"/><path fill="#e2a8e1" d="M 240.523438 298.386719 C 240.523438 298.664062 240.496094 298.941406 240.441406 299.214844 C 240.386719 299.488281 240.308594 299.753906 240.199219 300.011719 C 240.09375 300.265625 239.964844 300.511719 239.808594 300.742188 C 239.65625 300.976562 239.480469 301.1875 239.28125 301.386719 C 239.085938 301.582031 238.871094 301.757812 238.640625 301.914062 C 238.410156 302.066406 238.167969 302.199219 237.910156 302.304688 C 237.652344 302.410156 237.386719 302.492188 237.113281 302.546875 C 236.84375 302.601562 236.566406 302.628906 236.289062 302.628906 C 236.011719 302.628906 235.734375 302.601562 235.464844 302.546875 C 235.191406 302.492188 234.925781 302.410156 234.667969 302.304688 C 234.410156 302.199219 234.167969 302.066406 233.9375 301.914062 C 233.707031 301.757812 233.492188 301.582031 233.296875 301.386719 C 233.097656 301.1875 232.921875 300.976562 232.769531 300.742188 C 232.613281 300.511719 232.484375 300.265625 232.378906 300.011719 C 232.269531 299.753906 232.191406 299.488281 232.136719 299.214844 C 232.082031 298.941406 232.054688 298.664062 232.054688 298.386719 C 232.054688 298.109375 232.082031 297.832031 232.136719 297.558594 C 232.191406 297.289062 232.269531 297.023438 232.378906 296.765625 C 232.484375 296.507812 232.613281 296.261719 232.769531 296.03125 C 232.921875 295.800781 233.097656 295.585938 233.296875 295.390625 C 233.492188 295.191406 233.707031 295.015625 233.9375 294.863281 C 234.167969 294.707031 234.410156 294.578125 234.667969 294.46875 C 234.925781 294.363281 235.191406 294.28125 235.464844 294.230469 C 235.734375 294.175781 236.011719 294.148438 236.289062 294.148438 C 236.566406 294.148438 236.84375 294.175781 237.113281 294.230469 C 237.386719 294.28125 237.652344 294.363281 237.910156 294.46875 C 238.167969 294.578125 238.410156 294.707031 238.640625 294.863281 C 238.871094 295.015625 239.085938 295.191406 239.28125 295.390625 C 239.480469 295.585938 239.65625 295.800781 239.808594 296.03125 C 239.964844 296.261719 240.09375 296.507812 240.199219 296.765625 C 240.308594 297.023438 240.386719 297.289062 240.441406 297.558594 C 240.496094 297.832031 240.523438 298.109375 240.523438 298.386719 Z M 240.523438 298.386719 " fill-opacity="1" fill-rule="nonzero"/><path fill="#e2a8e1" d="M 255.523438 298.386719 C 255.523438 298.664062 255.496094 298.941406 255.441406 299.214844 C 255.386719 299.488281 255.308594 299.753906 255.199219 300.011719 C 255.09375 300.265625 254.964844 300.511719 254.808594 300.742188 C 254.65625 300.976562 254.480469 301.1875 254.28125 301.386719 C 254.085938 301.582031 253.871094 301.757812 253.640625 301.914062 C 253.410156 302.066406 253.167969 302.199219 252.910156 302.304688 C 252.652344 302.410156 252.386719 302.492188 252.113281 302.546875 C 251.84375 302.601562 251.566406 302.628906 251.289062 302.628906 C 251.011719 302.628906 250.734375 302.601562 250.464844 302.546875 C 250.191406 302.492188 249.925781 302.410156 249.667969 302.304688 C 249.410156 302.199219 249.167969 302.066406 248.9375 301.914062 C 248.707031 301.757812 248.492188 301.582031 248.296875 301.386719 C 248.097656 301.1875 247.921875 300.976562 247.769531 300.742188 C 247.613281 300.511719 247.484375 300.265625 247.378906 300.011719 C 247.269531 299.753906 247.191406 299.488281 247.136719 299.214844 C 247.082031 298.941406 247.054688 298.664062 247.054688 298.386719 C 247.054688 298.109375 247.082031 297.832031 247.136719 297.558594 C 247.191406 297.289062 247.269531 297.023438 247.378906 296.765625 C 247.484375 296.507812 247.613281 296.261719 247.769531 296.03125 C 247.921875 295.800781 248.097656 295.585938 248.296875 295.390625 C 248.492188 295.191406 248.707031 295.015625 248.9375 294.863281 C 249.167969 294.707031 249.410156 294.578125 249.667969 294.46875 C 249.925781 294.363281 250.191406 294.28125 250.464844 294.230469 C 250.734375 294.175781 251.011719 294.148438 251.289062 294.148438 C 251.566406 294.148438 251.84375 294.175781 252.113281 294.230469 C 252.386719 294.28125 252.652344 294.363281 252.910156 294.46875 C 253.167969 294.578125 253.410156 294.707031 253.640625 294.863281 C 253.871094 295.015625 254.085938 295.191406 254.28125 295.390625 C 254.480469 295.585938 254.65625 295.800781 254.808594 296.03125 C 254.964844 296.261719 255.09375 296.507812 255.199219 296.765625 C 255.308594 297.023438 255.386719 297.289062 255.441406 297.558594 C 255.496094 297.832031 255.523438 298.109375 255.523438 298.386719 Z M 255.523438 298.386719 " fill-opacity="1" fill-rule="nonzero"/><path fill="#e2a8e1" d="M 270.523438 298.386719 C 270.523438 298.664062 270.496094 298.941406 270.441406 299.214844 C 270.386719 299.488281 270.308594 299.753906 270.199219 300.011719 C 270.09375 300.265625 269.964844 300.511719 269.808594 300.742188 C 269.65625 300.976562 269.480469 301.1875 269.28125 301.386719 C 269.085938 301.582031 268.871094 301.757812 268.640625 301.914062 C 268.410156 302.066406 268.167969 302.199219 267.910156 302.304688 C 267.652344 302.410156 267.386719 302.492188 267.113281 302.546875 C 266.84375 302.601562 266.566406 302.628906 266.289062 302.628906 C 266.011719 302.628906 265.734375 302.601562 265.464844 302.546875 C 265.191406 302.492188 264.925781 302.410156 264.667969 302.304688 C 264.410156 302.199219 264.167969 302.066406 263.9375 301.914062 C 263.707031 301.757812 263.492188 301.582031 263.296875 301.386719 C 263.097656 301.1875 262.921875 300.976562 262.769531 300.742188 C 262.613281 300.511719 262.484375 300.265625 262.378906 300.011719 C 262.269531 299.753906 262.191406 299.488281 262.136719 299.214844 C 262.082031 298.941406 262.054688 298.664062 262.054688 298.386719 C 262.054688 298.109375 262.082031 297.832031 262.136719 297.558594 C 262.191406 297.289062 262.269531 297.023438 262.378906 296.765625 C 262.484375 296.507812 262.613281 296.261719 262.769531 296.03125 C 262.921875 295.800781 263.097656 295.585938 263.296875 295.390625 C 263.492188 295.191406 263.707031 295.015625 263.9375 294.863281 C 264.167969 294.707031 264.410156 294.578125 264.667969 294.46875 C 264.925781 294.363281 265.191406 294.28125 265.464844 294.230469 C 265.734375 294.175781 266.011719 294.148438 266.289062 294.148438 C 266.566406 294.148438 266.84375 294.175781 267.113281 294.230469 C 267.386719 294.28125 267.652344 294.363281 267.910156 294.46875 C 268.167969 294.578125 268.410156 294.707031 268.640625 294.863281 C 268.871094 295.015625 269.085938 295.191406 269.28125 295.390625 C 269.480469 295.585938 269.65625 295.800781 269.808594 296.03125 C 269.964844 296.261719 270.09375 296.507812 270.199219 296.765625 C 270.308594 297.023438 270.386719 297.289062 270.441406 297.558594 C 270.496094 297.832031 270.523438 298.109375 270.523438 298.386719 Z M 270.523438 298.386719 " fill-opacity="1" fill-rule="nonzero"/><path fill="#e2a8e1" d="M 107.042969 198.03125 L 111.890625 184 L 116.742188 198.03125 L 121.667969 198.03125 L 128.753906 177.527344 L 124.289062 177.527344 L 119.207031 193.019531 L 114.125 177.527344 L 109.65625 177.527344 L 104.578125 193.019531 L 99.496094 177.527344 L 95.027344 177.527344 L 102.109375 198.03125 Z M 107.042969 198.03125 " fill-opacity="1" fill-rule="nonzero"/><path fill="#e2a8e1" d="M 142.152344 198.03125 L 147 184 L 151.851562 198.03125 L 156.78125 198.03125 L 163.863281 177.527344 L 159.398438 177.527344 L 154.316406 193.019531 L 149.234375 177.527344 L 144.769531 177.527344 L 139.6875 193.019531 L 134.605469 177.527344 L 130.136719 177.527344 L 137.226562 198.03125 Z M 142.152344 198.03125 " fill-opacity="1" fill-rule="nonzero"/><path fill="#e2a8e1" d="M 177.261719 198.03125 L 182.113281 184 L 186.964844 198.03125 L 191.890625 198.03125 L 198.972656 177.527344 L 194.507812 177.527344 L 189.425781 193.019531 L 184.34375 177.527344 L 179.878906 177.527344 L 174.796875 193.019531 L 169.714844 177.527344 L 165.246094 177.527344 L 172.335938 198.03125 Z M 177.261719 198.03125 " fill-opacity="1" fill-rule="nonzero"/><path fill="#e2a8e1" d="M 203.941406 198.34375 C 204.734375 198.34375 205.417969 198.0625 205.980469 197.496094 C 206.546875 196.929688 206.832031 196.25 206.832031 195.453125 C 206.832031 194.65625 206.546875 193.980469 205.980469 193.425781 C 205.417969 192.875 204.738281 192.597656 203.941406 192.597656 C 203.148438 192.597656 202.472656 192.875 201.917969 193.425781 C 201.367188 193.980469 201.089844 194.65625 201.089844 195.453125 C 201.089844 196.25 201.367188 196.929688 201.917969 197.496094 C 202.472656 198.0625 203.148438 198.34375 203.941406 198.34375 Z M 203.941406 198.34375 " fill-opacity="1" fill-rule="nonzero"/></svg>